<svg width="28" height="28" viewBox="0 0 28 28" fill="none" xmlns="http://www.w3.org/2000/svg">
<path d="M26.8617 21.8813H23.7586C23.51 21.0416 22.9966 20.3048 22.295 19.7808C21.5934 19.2568 20.7412 18.9736 19.8655 18.9736C18.9898 18.9736 18.1376 19.2568 17.436 19.7808C16.7344 20.3048 16.221 21.0416 15.9725 21.8813H1.19545C0.89101 21.8888 0.601547 22.015 0.388863 22.2329C0.17618 22.4509 0.0571289 22.7434 0.0571289 23.0479C0.0571289 23.3524 0.17618 23.6449 0.388863 23.8628C0.601547 24.0808 0.89101 24.207 1.19545 24.2144H15.9689C16.2175 25.0541 16.7309 25.791 17.4325 26.315C18.1341 26.839 18.9863 27.1222 19.862 27.1222C20.7377 27.1222 21.5899 26.839 22.2915 26.315C22.9931 25.791 23.5065 25.0541 23.7551 24.2144H26.8617C27.1661 24.207 27.4556 24.0808 27.6682 23.8628C27.8809 23.6449 28 23.3524 28 23.0479C28 22.7434 27.8809 22.4509 27.6682 22.2329C27.4556 22.015 27.1661 21.8888 26.8617 21.8813ZM19.8617 24.7983C19.5155 24.7983 19.1772 24.6956 18.8894 24.5033C18.6016 24.311 18.3773 24.0377 18.2449 23.7179C18.1124 23.3982 18.0778 23.0463 18.1453 22.7068C18.2128 22.3674 18.3795 22.0555 18.6242 21.8108C18.869 21.5661 19.1808 21.3994 19.5202 21.3319C19.8597 21.2644 20.2116 21.299 20.5313 21.4315C20.8511 21.5639 21.1244 21.7882 21.3167 22.076C21.509 22.3638 21.6117 22.7021 21.6117 23.0483C21.6115 23.5123 21.427 23.9572 21.0988 24.2852C20.7707 24.6133 20.3257 24.7976 19.8617 24.7976V24.7983Z" fill="#A5A5A5"/>
<path d="M26.8617 3.21435H23.7586C23.51 2.37466 22.9967 1.63783 22.2951 1.1138C21.5935 0.589777 20.7412 0.306641 19.8655 0.306641C18.9898 0.306641 18.1376 0.589777 17.436 1.1138C16.7344 1.63783 16.221 2.37466 15.9725 3.21435H1.19548C1.03988 3.21054 0.885092 3.2379 0.740225 3.29481C0.595358 3.35172 0.463341 3.43704 0.351944 3.54574C0.240547 3.65444 0.152022 3.78433 0.0915795 3.92776C0.0311375 4.07119 0 4.22526 0 4.3809C0 4.53655 0.0311375 4.69062 0.0915795 4.83405C0.152022 4.97748 0.240547 5.10737 0.351944 5.21607C0.463341 5.32477 0.595358 5.41009 0.740225 5.467C0.885092 5.52391 1.03988 5.55127 1.19548 5.54745H15.969C16.2175 6.38715 16.7309 7.12398 17.4325 7.64801C18.1341 8.17203 18.9863 8.45517 19.862 8.45517C20.7377 8.45517 21.59 8.17203 22.2916 7.64801C22.9932 7.12398 23.5065 6.38715 23.7551 5.54745H26.8617C27.1661 5.54 27.4556 5.41382 27.6683 5.19586C27.8809 4.9779 28 4.68544 28 4.3809C28 4.07637 27.8809 3.78391 27.6683 3.56595C27.4556 3.34799 27.1661 3.22181 26.8617 3.21435ZM19.8617 6.13055C19.5156 6.13055 19.1772 6.02792 18.8894 5.83563C18.6016 5.64333 18.3773 5.37002 18.2449 5.05025C18.1124 4.73048 18.0778 4.37861 18.1453 4.03915C18.2128 3.69968 18.3795 3.38786 18.6242 3.14312C18.869 2.89838 19.1808 2.7317 19.5203 2.66418C19.8597 2.59666 20.2116 2.63131 20.5314 2.76377C20.8511 2.89622 21.1245 3.12052 21.3167 3.40831C21.509 3.69609 21.6117 4.03444 21.6117 4.38055C21.6117 4.84468 21.4273 5.2898 21.0991 5.61799C20.7709 5.94618 20.3258 6.13055 19.8617 6.13055Z" fill="#A5A5A5"/>
<path d="M26.8617 12.5464H12.0882C11.8396 11.7067 11.3263 10.9699 10.6247 10.4458C9.92306 9.92181 9.07083 9.63867 8.19513 9.63867C7.31943 9.63867 6.46719 9.92181 5.76559 10.4458C5.06398 10.9699 4.55061 11.7067 4.30208 12.5464H1.19548C1.03988 12.5426 0.885092 12.5699 0.740225 12.6268C0.595358 12.6838 0.463341 12.7691 0.351944 12.8778C0.240547 12.9865 0.152022 13.1164 0.0915795 13.2598C0.0311375 13.4032 0 13.5573 0 13.7129C0 13.8686 0.0311375 14.0227 0.0915795 14.1661C0.152022 14.3095 0.240547 14.4394 0.351944 14.5481C0.463341 14.6568 0.595358 14.7421 0.740225 14.799C0.885092 14.8559 1.03988 14.8833 1.19548 14.8795H4.30208C4.55061 15.7192 5.06398 16.456 5.76559 16.98C6.46719 17.5041 7.31943 17.7872 8.19513 17.7872C9.07083 17.7872 9.92306 17.5041 10.6247 16.98C11.3263 16.456 11.8396 15.7192 12.0882 14.8795H26.8617C27.1661 14.872 27.4556 14.7459 27.6683 14.5279C27.8809 14.3099 28 14.0175 28 13.7129C28 13.4084 27.8809 13.1159 27.6683 12.898C27.4556 12.68 27.1661 12.5538 26.8617 12.5464ZM8.19478 15.4633C7.84866 15.4633 7.51032 15.3607 7.22253 15.1684C6.93474 14.9761 6.71044 14.7028 6.57799 14.383C6.44554 14.0632 6.41088 13.7114 6.4784 13.3719C6.54593 13.0324 6.7126 12.7206 6.95734 12.4759C7.20208 12.2311 7.5139 12.0644 7.85337 11.9969C8.19284 11.9294 8.5447 11.964 8.86447 12.0965C9.18424 12.229 9.45756 12.4533 9.64985 12.741C9.84214 13.0288 9.94478 13.3672 9.94478 13.7133C9.94478 14.1773 9.7605 14.6223 9.43246 14.9505C9.10442 15.2787 8.65948 15.4631 8.19548 15.4633H8.19478Z" fill="#A5A5A5"/>
</svg>
