<svg width="24" height="25" viewBox="0 0 24 25" fill="none" xmlns="http://www.w3.org/2000/svg">
<path d="M0.703242 21.2303H9.89058V22.9005H6.76908C6.58257 22.9005 6.40369 22.9884 6.27181 23.1451C6.13993 23.3017 6.06583 23.5141 6.06583 23.7355C6.06583 23.957 6.13993 24.1694 6.27181 24.326C6.40369 24.4826 6.58257 24.5706 6.76908 24.5706H17.2309C17.4174 24.5706 17.5963 24.4826 17.7282 24.326C17.8601 24.1694 17.9342 23.957 17.9342 23.7355C17.9342 23.5141 17.8601 23.3017 17.7282 23.1451C17.5963 22.9884 17.4174 22.9005 17.2309 22.9005H14.1094V21.2303H23.2968C23.4833 21.2303 23.6621 21.1423 23.794 20.9857C23.9259 20.8291 24 20.6167 24 20.3952V1.12024C24 0.898764 23.9259 0.686355 23.794 0.529746C23.6621 0.373137 23.4833 0.285156 23.2968 0.285156H0.703242C0.51673 0.285156 0.337858 0.373137 0.205975 0.529746C0.0740913 0.686355 0 0.898764 0 1.12024L0 20.3952C0 20.6167 0.0740913 20.8291 0.205975 20.9857C0.337858 21.1423 0.51673 21.2303 0.703242 21.2303ZM12.7029 22.8997H11.2965V21.2303H12.7029V22.8997ZM1.40648 1.95533H22.5935V16.2205H1.40648V1.95533ZM1.40648 17.8907H22.5935V19.5608H1.40648V17.8907Z" fill="#A5A5A5"/>
<path d="M19.0779 3.625C18.6988 3.62531 18.3268 3.74694 18.001 3.9771C17.6752 4.20726 17.4077 4.53743 17.2265 4.93289C17.0454 5.32835 16.9574 5.77447 16.9717 6.22431C16.9861 6.67415 17.1023 7.11109 17.3081 7.48915L15.8949 9.66596C15.6137 9.55597 15.316 9.51785 15.0215 9.55411C14.727 9.59037 14.4422 9.70018 14.186 9.87634L12.2811 7.93854C12.4013 7.56904 12.446 7.17095 12.4115 6.77696C12.377 6.38298 12.2643 6.00432 12.0827 5.67209C11.9011 5.33986 11.6556 5.06352 11.3666 4.86578C11.0776 4.66804 10.7531 4.55453 10.42 4.53457C10.0868 4.51462 9.75446 4.58878 9.45013 4.75097C9.1458 4.91316 8.87821 5.15875 8.66932 5.46759C8.46044 5.77642 8.31622 6.13969 8.2485 6.52755C8.18079 6.91542 8.19152 7.31683 8.27981 7.69882L6.15141 9.45629C5.74719 9.11185 5.25345 8.94817 4.75744 8.9942C4.26144 9.04022 3.7951 9.29298 3.44084 9.7078C3.08659 10.1226 2.86724 10.6728 2.82154 11.2611C2.77585 11.8494 2.90675 12.4379 3.19113 12.9227C3.47551 13.4075 3.89505 13.7573 4.3756 13.9102C4.85615 14.0632 5.36677 14.0096 5.81722 13.7587C6.26767 13.5079 6.62895 13.076 6.8372 12.5395C7.04546 12.0029 7.08728 11.3963 6.95528 10.8266L9.08369 9.06916C9.41236 9.35106 9.8027 9.51402 10.2076 9.5384C10.6125 9.56278 11.0148 9.44753 11.3658 9.20655L13.2706 11.1443C13.1401 11.5442 13.0982 11.9771 13.1489 12.4016C13.1996 12.8262 13.3413 13.2281 13.5604 13.569C13.7794 13.9099 14.0685 14.1783 14.4 14.3485C14.7314 14.5187 15.0941 14.585 15.4533 14.541C15.8125 14.4971 16.1562 14.3443 16.4515 14.0975C16.7467 13.8506 16.9836 13.5178 17.1395 13.131C17.2954 12.7442 17.3651 12.3164 17.3418 11.8885C17.3186 11.4605 17.2032 11.0469 17.0068 10.6871L18.4193 8.51029C18.7092 8.6231 19.0163 8.65987 19.3193 8.61807C19.6224 8.57627 19.9142 8.4569 20.1746 8.26818C20.4351 8.07946 20.6579 7.8259 20.8278 7.52498C20.9977 7.22406 21.1106 6.88295 21.1587 6.52519C21.2068 6.16743 21.189 5.80153 21.1065 5.45274C21.024 5.10396 20.8787 4.78059 20.6807 4.50494C20.4827 4.2293 20.2367 4.00794 19.9597 3.85614C19.6827 3.70435 19.3812 3.62573 19.0761 3.62572L19.0779 3.625ZM4.92149 12.3243C4.7824 12.3243 4.64643 12.2754 4.53079 12.1836C4.41514 12.0918 4.325 11.9614 4.27178 11.8088C4.21855 11.6562 4.20462 11.4883 4.23176 11.3263C4.25889 11.1644 4.32587 11.0156 4.42422 10.8988C4.52257 10.782 4.64788 10.7024 4.78429 10.6702C4.92071 10.638 5.0621 10.6545 5.1906 10.7177C5.3191 10.7809 5.42893 10.888 5.50621 11.0253C5.58348 11.1626 5.62473 11.3241 5.62473 11.4893C5.62457 11.7107 5.55042 11.923 5.41857 12.0795C5.28673 12.2361 5.10795 12.3242 4.92149 12.3243V12.3243ZM10.3142 7.87127C10.1751 7.87127 10.0392 7.82229 9.92351 7.73053C9.80786 7.63877 9.71773 7.50835 9.6645 7.35576C9.61127 7.20317 9.59734 7.03526 9.62448 6.87327C9.65161 6.71128 9.71859 6.56248 9.81694 6.44569C9.91529 6.3289 10.0406 6.24937 10.177 6.21715C10.3134 6.18492 10.4548 6.20146 10.5833 6.26466C10.7118 6.32787 10.8217 6.43491 10.8989 6.57223C10.9762 6.70956 11.0174 6.87102 11.0174 7.03619C11.0173 7.25761 10.9431 7.4699 10.8113 7.62647C10.6795 7.78304 10.5007 7.87108 10.3142 7.87127V7.87127ZM15.2381 12.8804C15.099 12.8804 14.9631 12.8314 14.8474 12.7396C14.7318 12.6479 14.6416 12.5174 14.5884 12.3648C14.5352 12.2123 14.5212 12.0443 14.5484 11.8824C14.5755 11.7204 14.6425 11.5716 14.7408 11.4548C14.8392 11.338 14.9645 11.2585 15.1009 11.2262C15.2373 11.194 15.3787 11.2105 15.5072 11.2737C15.6357 11.337 15.7456 11.444 15.8228 11.5813C15.9001 11.7186 15.9413 11.8801 15.9413 12.0453C15.9413 12.2668 15.8673 12.4793 15.7354 12.636C15.6035 12.7927 15.4247 12.8809 15.2381 12.8811V12.8804ZM19.0773 6.96463C18.9382 6.96463 18.8023 6.91565 18.6866 6.82389C18.571 6.73213 18.4808 6.6017 18.4276 6.44911C18.3744 6.29652 18.3604 6.12862 18.3876 5.96663C18.4147 5.80464 18.4817 5.65584 18.58 5.53905C18.6784 5.42226 18.8037 5.34272 18.9401 5.3105C19.0765 5.27828 19.2179 5.29482 19.3464 5.35802C19.4749 5.42123 19.5848 5.52826 19.662 5.66559C19.7393 5.80292 19.7805 5.96438 19.7805 6.12954C19.7804 6.35084 19.7063 6.56303 19.5746 6.71957C19.4429 6.87612 19.2643 6.96425 19.0779 6.96463H19.0773Z" fill="#A5A5A5"/>
</svg>
