<svg width="16" height="16" viewBox="0 0 16 16" fill="none" xmlns="http://www.w3.org/2000/svg">
<g clip-path="url(#clip0)">
<path d="M8.88344 8.00002L15.8165 1.06697C16.0606 0.822881 16.0606 0.427132 15.8165 0.18307C15.5724 -0.0609921 15.1766 -0.0610233 14.9326 0.18307L7.99951 7.11612L1.06649 0.18307C0.822393 -0.0610233 0.426644 -0.0610233 0.182582 0.18307C-0.0614804 0.427163 -0.0615116 0.822912 0.182582 1.06697L7.1156 7.99999L0.182582 14.933C-0.0615116 15.1771 -0.0615116 15.5729 0.182582 15.8169C0.304613 15.939 0.464581 16 0.62455 16C0.784518 16 0.944455 15.939 1.06652 15.8169L7.99951 8.88393L14.9325 15.8169C15.0546 15.939 15.2145 16 15.3745 16C15.5345 16 15.6944 15.939 15.8165 15.8169C16.0606 15.5729 16.0606 15.1771 15.8165 14.933L8.88344 8.00002Z" fill="#FF2626"/>
</g>
<defs>
<clipPath id="clip0">
<rect width="16" height="16" fill="white"/>
</clipPath>
</defs>
</svg>
