<svg width="48" height="48" viewBox="0 0 48 48" fill="none" xmlns="http://www.w3.org/2000/svg">
<g clip-path="url(#clip0)">
<path d="M47.2493 9.87849C46.6054 9.08181 45.6484 8.62497 44.6239 8.62497H8.0378L7.71108 6.28348C7.47971 4.62543 6.04271 3.375 4.36844 3.375H1.49999C0.671621 3.375 0 4.04662 0 4.87499C0 5.70336 0.671621 6.37498 1.49999 6.37498H4.36844C4.55444 6.37498 4.71419 6.51392 4.73978 6.69814L8.78873 35.7163C9.0201 37.3745 10.4571 38.6248 12.1314 38.6248H13.7578C13.5913 39.0943 13.4998 39.5989 13.4998 40.1248C13.4998 42.6061 15.5185 44.6248 17.9998 44.6248C20.4811 44.6248 22.4998 42.6061 22.4998 40.1248C22.4998 39.5989 22.4083 39.0943 22.2418 38.6248H30.2577C30.0912 39.0943 29.9997 39.5989 29.9997 40.1248C29.9997 42.6061 32.0184 44.6248 34.4997 44.6248C36.981 44.6248 38.9997 42.6061 38.9997 40.1248C38.9997 39.5989 38.9082 39.0943 38.7417 38.6248H41.9998C42.8281 38.6248 43.4997 37.9532 43.4997 37.1248C43.4997 36.2964 42.8281 35.6248 41.9998 35.6248H12.1315C11.9455 35.6248 11.7857 35.4859 11.7601 35.3017L11.3866 32.6248H40.9273C42.5077 32.6248 43.8956 31.5031 44.2277 29.9569L47.9242 12.7073C48.1389 11.706 47.8929 10.6749 47.2493 9.87849ZM19.4999 40.1248C19.4999 40.9518 18.827 41.6248 17.9999 41.6248C17.1728 41.6248 16.4999 40.9518 16.4999 40.1248C16.4999 39.2977 17.1728 38.6248 17.9999 38.6248C18.827 38.6248 19.4999 39.2976 19.4999 40.1248ZM35.9998 40.1248C35.9998 40.9518 35.3269 41.6248 34.4998 41.6248C33.6727 41.6248 32.9998 40.9518 32.9998 40.1248C32.9998 39.2977 33.6727 38.6248 34.4998 38.6248C35.3269 38.6248 35.9998 39.2976 35.9998 40.1248ZM44.9908 12.0784L41.2945 29.3277C41.2575 29.4998 41.103 29.6248 40.9273 29.6248H10.9679L8.45639 11.6249H44.6238C44.7722 11.6249 44.8646 11.7006 44.916 11.7642C44.9673 11.8276 45.0219 11.9337 44.9908 12.0784Z" fill="black"/>
</g>
<defs>
<clipPath id="clip0">
<rect width="48" height="48" fill="white"/>
</clipPath>
</defs>
</svg>
