<svg width="32" height="32" viewBox="0 0 32 32" fill="none" xmlns="http://www.w3.org/2000/svg">
<g clip-path="url(#clip0)">
<path d="M26.9375 7.61125V24.2638C26.9375 25.7038 25.7663 26.875 24.3263 26.875H7.67375C6.23375 26.875 5.0625 25.7038 5.0625 24.2638V7.61125C5.0625 6.17125 6.23375 5 7.67375 5H24.3263C25.7663 5 26.9375 6.17125 26.9375 7.61125Z" fill="#FF9B1E" fill-opacity="0.35"/>
<path d="M26.9375 7.61125V24.2638C26.9375 25.7038 25.7663 26.875 24.3263 26.875H16V5H24.3263C25.7663 5 26.9375 6.17125 26.9375 7.61125Z" fill="#FF9B1E" fill-opacity="0.5"/>
<path d="M30.9997 16.9375H0.999664C-0.240586 16.9375 -0.240961 15.0625 0.999664 15.0625H30.9997C32.2399 15.0625 32.2403 16.9375 30.9997 16.9375Z" fill="#FF9B1E"/>
<path d="M31 16.9375H16V15.0625H31C32.2402 15.0625 32.2406 16.9375 31 16.9375Z" fill="#FF9B1E"/>
<path d="M30.1256 7.9375V3.45881C30.1256 2.5855 29.4151 1.875 28.5418 1.875H24.0631C22.8236 1.875 22.8218 0 24.0631 0H28.5418C30.449 0 32.0006 1.55163 32.0006 3.45881V7.9375C32.0006 9.177 30.1256 9.17875 30.1256 7.9375Z" fill="#FF9B1E"/>
<path d="M28.5418 32.0006H24.0631C22.8236 32.0006 22.8218 30.1256 24.0631 30.1256H28.5418C29.4151 30.1256 30.1256 29.4151 30.1256 28.5418V24.0631C30.1256 22.8236 32.0006 22.8218 32.0006 24.0631V28.5418C32.0006 30.449 30.449 32.0006 28.5418 32.0006Z" fill="#FF9B1E"/>
<path d="M0 7.9375V3.45881C0 1.55163 1.55163 0 3.45875 0H7.9375C9.177 0 9.17875 1.875 7.9375 1.875H3.45875C2.5855 1.875 1.875 2.5855 1.875 3.45881V7.9375C1.875 9.177 0 9.17875 0 7.9375H0Z" fill="#FF9B1E"/>
<path d="M7.9375 32.0006H3.45875C1.55163 32.0006 0 30.449 0 28.5418V24.0631C0 22.8236 1.875 22.8218 1.875 24.0631V28.5418C1.875 29.4151 2.5855 30.1256 3.45875 30.1256H7.9375C9.177 30.1256 9.17875 32.0006 7.9375 32.0006Z" fill="#FF9B1E"/>
<path d="M24.3256 26.8744H21.3522C20.1127 26.8744 20.1109 24.9994 21.3522 24.9994H24.3256C24.7317 24.9994 25.062 24.6691 25.062 24.263V21.2897C25.062 20.0502 26.937 20.0484 26.937 21.2897V24.263C26.937 25.703 25.7655 26.8744 24.3256 26.8744Z" fill="#FF9B1E"/>
<path d="M25.062 10.5847V7.61137C25.062 7.20531 24.7316 6.875 24.3256 6.875H21.3522C20.1127 6.875 20.1109 5 21.3522 5H24.3256C25.7655 5 26.937 6.17144 26.937 7.61137V10.5847C26.937 11.8242 25.062 11.826 25.062 10.5847Z" fill="#FF9B1E"/>
<path d="M5.0625 10.5847V7.61137C5.0625 6.17144 6.234 5 7.67388 5H10.6473C11.8868 5 11.8886 6.875 10.6473 6.875H7.67388C7.26781 6.875 6.9375 7.20531 6.9375 7.61137V10.5847C6.9375 11.8242 5.0625 11.826 5.0625 10.5847Z" fill="#FF9B1E"/>
<path d="M10.6473 26.8744H7.67388C6.234 26.8744 5.0625 25.703 5.0625 24.263V21.2897C5.0625 20.0502 6.9375 20.0484 6.9375 21.2897V24.263C6.9375 24.6691 7.26788 24.9994 7.67388 24.9994H10.6473C11.8868 24.9994 11.8886 26.8744 10.6473 26.8744Z" fill="#FF9B1E"/>
</g>
<defs>
<clipPath id="clip0">
<rect width="32" height="32" fill="white"/>
</clipPath>
</defs>
</svg>
