<svg width="110" height="110" viewBox="0 0 110 110" fill="none" xmlns="http://www.w3.org/2000/svg">
<path d="M93.8908 16.109C83.5027 5.72086 69.6912 0 55 0C40.3088 0 26.4973 5.72086 16.1094 16.109C5.72086 26.4973 0 40.309 0 55C0 69.691 5.72086 83.5027 16.1094 93.891C26.4973 104.279 40.3088 110 55 110C69.6912 110 83.5027 104.279 93.8908 93.891C104.279 83.5027 110 69.691 110 55C110 40.309 104.279 26.4973 93.8908 16.109ZM55 105.618C27.0894 105.618 4.38238 82.9108 4.38238 55C4.38238 27.0892 27.0894 4.38238 55 4.38238C82.9106 4.38238 105.618 27.0894 105.618 55C105.618 82.9106 82.9106 105.618 55 105.618Z" fill="#FF9B1E"/>
<path d="M86.2798 31.3891C83.2896 28.3989 78.4241 28.3989 75.4339 31.3891L43.1676 63.6552L32.5945 53.0825C29.6043 50.0924 24.7387 50.0924 21.7485 53.0825C18.7583 56.0727 18.7583 60.9383 21.7485 63.9287L37.7447 79.9247C39.1934 81.3732 41.1192 82.1707 43.1676 82.1707C45.2159 82.1707 47.1418 81.373 48.5907 79.9245L86.2798 42.2353C89.2698 39.2449 89.2698 34.3791 86.2798 31.3891ZM83.1809 39.1362L45.492 76.8254C44.8711 77.446 44.0456 77.7883 43.1678 77.7883C42.2899 77.7883 41.4645 77.4463 40.8438 76.8254L24.8478 60.8294C23.5661 59.5476 23.5661 57.4626 24.8476 56.181C25.4883 55.5404 26.33 55.22 27.1718 55.22C28.0134 55.22 28.8553 55.5406 29.4958 56.1812L41.6181 68.3036C42.4743 69.1593 43.8613 69.1593 44.7172 68.3036L78.5326 34.4878C79.8143 33.2063 81.8996 33.2063 83.1811 34.4878C84.4625 35.7694 84.4625 37.8544 83.1809 39.1362Z" fill="#FF9B1E"/>
<path d="M99.2862 64.0528C98.1123 63.7538 96.9206 64.4625 96.6222 65.6354C91.7764 84.6611 74.6611 97.9489 55.0003 97.9489C53.7903 97.9489 52.8091 98.9299 52.8091 100.14C52.8091 101.35 53.7903 102.331 55.0003 102.331C76.6666 102.331 95.5284 87.6863 100.869 66.7169C101.168 65.5445 100.459 64.3515 99.2862 64.0528Z" fill="#FF9B1E"/>
<path d="M100.139 52.8086C98.9294 52.8086 97.9482 53.7896 97.9482 54.9998C97.9482 55.6263 97.9347 56.2577 97.9079 56.8773C97.8554 58.0862 98.7932 59.1089 100.002 59.1611C100.035 59.1624 100.067 59.163 100.099 59.163C101.265 59.163 102.235 58.2431 102.286 57.0664C102.316 56.3842 102.331 55.689 102.331 54.9998C102.331 53.7896 101.349 52.8086 100.139 52.8086Z" fill="#FF9B1E"/>
</svg>
