<svg width="24" height="26" viewBox="0 0 24 26" fill="none" xmlns="http://www.w3.org/2000/svg">
<path d="M8.43663 12.764V13.0015C8.43663 13.9575 8.81192 14.8743 9.47994 15.5503C10.148 16.2263 11.054 16.6061 11.9987 16.6061C12.9434 16.6061 13.8495 16.2263 14.5175 15.5503C15.1855 14.8743 15.5608 13.9575 15.5608 13.0015V12.764C15.5608 12.5124 15.6596 12.2711 15.8354 12.0932C16.0112 11.9153 16.2497 11.8153 16.4983 11.8153C16.747 11.8153 16.9854 11.9153 17.1612 12.0932C17.3371 12.2711 17.4358 12.5124 17.4358 12.764V13.0015C17.4358 14.4606 16.863 15.86 15.8434 16.8918C14.8238 17.9236 13.441 18.5032 11.9991 18.5032C10.5571 18.5032 9.17426 17.9236 8.15466 16.8918C7.13507 15.86 6.56227 14.4606 6.56227 13.0015V12.764C6.56227 12.5124 6.66104 12.2711 6.83686 12.0932C7.01268 11.9153 7.25114 11.8153 7.49978 11.8153C7.74843 11.8153 7.98689 11.9153 8.1627 12.0932C8.33852 12.2711 8.43663 12.5124 8.43663 12.764ZM23.0589 11.7199C22.8104 11.7199 22.572 11.8198 22.3962 11.9976C22.2205 12.1755 22.1217 12.4167 22.1217 12.6682V13.4777C22.1214 13.7291 22.0225 13.9701 21.8469 14.1479C21.6712 14.3257 21.433 14.4257 21.1846 14.426H20.7126C20.2791 14.4262 19.8555 14.557 19.4957 14.8019C19.136 15.0467 18.8565 15.3945 18.693 15.8007L18.687 15.8156C18.5188 16.2198 18.4734 16.6655 18.5565 17.0959C18.6396 17.5263 18.8474 17.922 19.1536 18.2324L19.4868 18.5697C19.5739 18.6577 19.643 18.7623 19.6901 18.8774C19.7373 18.9925 19.7615 19.1159 19.7615 19.2405C19.7615 19.3651 19.7373 19.4884 19.6901 19.6035C19.643 19.7186 19.5739 19.8232 19.4868 19.9113L18.8243 20.5824C18.6484 20.7603 18.41 20.8601 18.1614 20.8601C17.9128 20.8601 17.6743 20.7603 17.4985 20.5824L17.1652 20.2452C16.8582 19.9353 16.467 19.7249 16.0415 19.6408C15.6159 19.5567 15.1752 19.6027 14.7756 19.773L14.7623 19.7784C14.3608 19.9439 14.0172 20.2268 13.7752 20.5908C13.5333 20.9548 13.404 21.3835 13.4038 21.8222V22.2998C13.4028 22.551 13.3034 22.7915 13.1275 22.9687C12.9516 23.146 12.7135 23.2455 12.4653 23.2455H11.5321C11.2837 23.2451 11.0455 23.1451 10.8698 22.9673C10.6941 22.7895 10.5953 22.5485 10.5949 22.2971V21.8195C10.5947 21.3808 10.4652 20.952 10.2232 20.588C9.98111 20.224 9.63738 19.9412 9.23583 19.7757L9.22317 19.7703C8.82356 19.5999 8.38286 19.5539 7.95727 19.638C7.53168 19.722 7.14048 19.9325 6.83356 20.2425L6.50028 20.5797C6.41325 20.6679 6.3099 20.7378 6.19616 20.7855C6.08242 20.8332 5.96051 20.8577 5.83739 20.8577C5.71426 20.8577 5.59235 20.8332 5.47861 20.7855C5.36487 20.7378 5.26153 20.6679 5.17449 20.5797L4.51193 19.9093C4.42485 19.8212 4.35576 19.7166 4.30863 19.6015C4.26149 19.4864 4.23723 19.363 4.23723 19.2384C4.23723 19.1139 4.26149 18.9905 4.30863 18.8754C4.35576 18.7603 4.42485 18.6557 4.51193 18.5676L4.84521 18.2304C5.15126 17.9199 5.35906 17.5243 5.44216 17.0939C5.52525 16.6634 5.47987 16.2178 5.3118 15.8135L5.3058 15.7987C5.14215 15.3925 4.86265 15.0448 4.50295 14.8C4.14324 14.5551 3.71963 14.4243 3.28613 14.424H2.81221C2.56342 14.4237 2.32494 14.3234 2.14921 14.1451C1.97347 13.9669 1.87485 13.7254 1.87503 13.4736V12.6642C1.87503 12.4126 1.77626 12.1713 1.60044 11.9933C1.42462 11.8154 1.18616 11.7155 0.937514 11.7155C0.68887 11.7155 0.45041 11.8154 0.274592 11.9933C0.0987735 12.1713 0 12.4126 0 12.6642V13.4736C0.00070592 14.2282 0.297218 14.9516 0.824457 15.4851C1.3517 16.0187 2.06658 16.3187 2.81221 16.3194H3.28413C3.3457 16.3204 3.40562 16.3397 3.45637 16.375C3.50712 16.4103 3.54645 16.4599 3.56942 16.5177L3.57742 16.538C3.60256 16.5957 3.61016 16.6597 3.59924 16.7218C3.58832 16.7839 3.55937 16.8413 3.5161 16.8867L3.18282 17.224C2.65554 17.7577 2.35933 18.4814 2.35933 19.2361C2.35933 19.9907 2.65554 20.7145 3.18282 21.2482L3.84604 21.9187C4.37342 22.4522 5.08863 22.752 5.83439 22.752C6.58014 22.752 7.29535 22.4522 7.82273 21.9187L8.15601 21.5814C8.20085 21.5376 8.25754 21.5082 8.31889 21.497C8.38025 21.4859 8.4435 21.4934 8.50062 21.5187L8.51795 21.5261C8.57598 21.5489 8.626 21.5886 8.66161 21.6403C8.69723 21.6919 8.71683 21.7532 8.71792 21.8161V22.2937C8.71792 23.0491 9.01437 23.7736 9.5421 24.3079C10.0698 24.8422 10.7856 25.1425 11.5321 25.1429H12.4653C13.2109 25.1422 13.9258 24.8421 14.4531 24.3086C14.9803 23.775 15.2768 23.0516 15.2775 22.2971V21.8195C15.2786 21.7566 15.2983 21.6955 15.3339 21.644C15.3695 21.5924 15.4195 21.5528 15.4775 21.5301L15.4955 21.522C15.5525 21.4966 15.6158 21.4889 15.6771 21.5C15.7385 21.511 15.7952 21.5403 15.8401 21.5841L16.1734 21.9214C16.7007 22.4549 17.416 22.7547 18.1617 22.7547C18.9075 22.7547 19.6227 22.4549 20.1501 21.9214L20.8126 21.2509C21.3399 20.7172 21.6361 19.9934 21.6361 19.2388C21.6361 18.4841 21.3399 17.7604 20.8126 17.2267L20.4793 16.8894C20.4361 16.844 20.4071 16.7866 20.3962 16.7245C20.3853 16.6624 20.3929 16.5984 20.418 16.5407L20.4253 16.5231C20.4479 16.4644 20.4871 16.4138 20.5382 16.3778C20.5892 16.3417 20.6497 16.3219 20.712 16.3208H21.1839C21.9298 16.3201 22.645 16.0199 23.1724 15.486C23.6997 14.9522 23.9962 14.2285 23.9968 13.4736V12.6642C23.9957 12.4132 23.8964 12.173 23.7206 11.996C23.5448 11.819 23.3069 11.7197 23.0589 11.7199ZM0.35061 9.67065C0.203784 9.48863 0.0990804 9.27566 0.0441788 9.04736C-0.0107227 8.81906 -0.0144303 8.58122 0.0333279 8.35128C0.165607 7.71572 0.427876 7.11521 0.803265 6.58838C1.17865 6.06155 1.65885 5.62006 2.21297 5.29231C1.92816 4.86411 1.76379 4.36559 1.73747 3.85011C1.71114 3.33463 1.82385 2.82162 2.06354 2.36599C2.30322 1.91036 2.66084 1.52928 3.09812 1.26354C3.5354 0.997805 4.03586 0.857422 4.54593 0.857422C5.056 0.857422 5.55646 0.997805 5.99374 1.26354C6.43102 1.52928 6.78864 1.91036 7.02832 2.36599C7.268 2.82162 7.38071 3.33463 7.35439 3.85011C7.32807 4.36559 7.1637 4.86411 6.87888 5.29231C7.42427 5.61556 7.89857 6.04825 8.27266 6.56379C8.64654 6.04832 9.12062 5.61563 9.66576 5.29231C9.38095 4.86411 9.21658 4.36559 9.19026 3.85011C9.16393 3.33463 9.27664 2.82162 9.51633 2.36599C9.75601 1.91036 10.1136 1.52928 10.5509 1.26354C10.9882 0.997805 11.4886 0.857422 11.9987 0.857422C12.5088 0.857422 13.0092 0.997805 13.4465 1.26354C13.8838 1.52928 14.2414 1.91036 14.4811 2.36599C14.7208 2.82162 14.8335 3.33463 14.8072 3.85011C14.7809 4.36559 14.6165 4.86411 14.3317 5.29231C14.8766 5.61571 15.3504 6.04839 15.7241 6.56379C16.0978 6.04839 16.5716 5.61571 17.1166 5.29231C16.768 4.76731 16.6022 4.13974 16.6454 3.50877C16.6887 2.87779 16.9385 2.27938 17.3553 1.80809C17.7721 1.3368 18.3323 1.01951 18.9472 0.906343C19.5622 0.793179 20.1968 0.890597 20.7509 1.1832C21.3051 1.47581 21.747 1.94692 22.007 2.5221C22.267 3.09728 22.3302 3.74373 22.1866 4.3593C22.043 4.97487 21.7008 5.52447 21.214 5.92125C20.7273 6.31803 20.1238 6.53937 19.4988 6.5503H19.4742H19.4248C18.8698 6.55248 18.3286 6.72627 17.8739 7.0484C17.4192 7.37053 17.0726 7.82559 16.8806 8.35263H22.1304C22.1737 8.13852 22.2887 7.94609 22.456 7.8079C22.6233 7.66971 22.8326 7.59423 23.0486 7.59423C23.2646 7.59423 23.4739 7.66971 23.6412 7.8079C23.8085 7.94609 23.9235 8.13852 23.9668 8.35263C24.0143 8.5819 24.0108 8.81903 23.9564 9.04674C23.902 9.27445 23.7981 9.48702 23.6522 9.66897C23.5064 9.85092 23.3223 9.99768 23.1134 10.0985C22.9044 10.1994 22.6759 10.2519 22.4444 10.2521H1.55575C1.32472 10.2524 1.09655 10.2003 0.888008 10.0997C0.679465 9.99908 0.495838 9.85248 0.35061 9.67065ZM9.4298 8.3533H14.5676C14.3756 7.82627 14.0291 7.3712 13.5743 7.04908C13.1196 6.72695 12.5784 6.55315 12.0234 6.55097H11.9741C11.4189 6.55311 10.8776 6.72688 10.4228 7.049C9.96795 7.37113 9.62192 7.82622 9.4298 8.3533ZM18.513 3.70583C18.513 3.8934 18.568 4.07676 18.6709 4.23272C18.7739 4.38868 18.9203 4.51024 19.0915 4.58202C19.2628 4.6538 19.4512 4.67258 19.633 4.63599C19.8148 4.59939 19.9818 4.50907 20.1129 4.37644C20.2439 4.2438 20.3332 4.07482 20.3693 3.89085C20.4055 3.70688 20.3869 3.51619 20.316 3.3429C20.2451 3.1696 20.125 3.02149 19.9708 2.91728C19.8167 2.81307 19.6355 2.75745 19.4502 2.75745C19.2017 2.7578 18.9636 2.85784 18.7879 3.03562C18.6122 3.21339 18.5133 3.45441 18.513 3.70583ZM11.0609 3.70583C11.061 3.89334 11.1161 4.07661 11.2191 4.23247C11.3221 4.38832 11.4685 4.50978 11.6397 4.58147C11.8109 4.65317 11.9993 4.67189 12.181 4.63528C12.3628 4.59866 12.5297 4.50835 12.6607 4.37576C12.7918 4.24317 12.881 4.07424 12.9172 3.89034C12.9534 3.70643 12.9349 3.5158 12.864 3.34254C12.7932 3.16927 12.6732 3.02115 12.5191 2.91688C12.3651 2.81262 12.184 2.75691 11.9987 2.75677C11.75 2.75695 11.5116 2.857 11.3358 3.03494C11.1599 3.21289 11.061 3.45418 11.0609 3.70583ZM3.60875 3.70583C3.60888 3.89334 3.66394 4.07661 3.76697 4.23247C3.87 4.38832 4.01637 4.50978 4.18759 4.58147C4.35881 4.65317 4.54719 4.67189 4.72893 4.63528C4.91066 4.59866 5.07759 4.50835 5.20862 4.37576C5.33964 4.24317 5.42889 4.07424 5.46507 3.89034C5.50125 3.70643 5.48275 3.5158 5.4119 3.34254C5.34105 3.16927 5.22103 3.02115 5.06701 2.91688C4.913 2.81262 4.73189 2.75691 4.54659 2.75677C4.29792 2.75695 4.05947 2.857 3.88363 3.03494C3.70779 3.21289 3.60892 3.45418 3.60875 3.70583ZM1.97701 8.3533H7.11551C6.92343 7.82632 6.57683 7.37131 6.12212 7.0492C5.66741 6.72708 5.1263 6.55325 4.57126 6.55097H4.52193C3.96677 6.55311 3.42551 6.72688 2.97067 7.049C2.51583 7.37113 2.16913 7.82622 1.97701 8.3533Z" fill="#FFA83D"/>
</svg>
