<svg width="24" height="25" viewBox="0 0 24 25" fill="none" xmlns="http://www.w3.org/2000/svg">
<path d="M19.7143 0H4.28579C3.75568 0.000962964 3.24755 0.211975 2.87271 0.58682C2.49786 0.961666 2.28685 1.46979 2.28589 1.9999V23.4281H4.00043V1.9999C4.00138 1.92435 4.03181 1.85216 4.08523 1.79874C4.13866 1.74531 4.21085 1.71488 4.28639 1.71394H19.7143C19.7898 1.71488 19.862 1.74531 19.9154 1.79874C19.9689 1.85216 19.9993 1.92435 20.0002 1.9999V23.4281H21.7142V1.9999C21.7132 1.46979 21.5022 0.961666 21.1273 0.58682C20.7525 0.211975 20.2444 0.000962964 19.7143 0V0Z" fill="#A5A5A5"/>
<path d="M10.0001 3.42871H6.57163C6.34426 3.42871 6.12622 3.51903 5.96545 3.6798C5.80468 3.84057 5.71436 4.05862 5.71436 4.28599V7.71447C5.71436 7.94183 5.80468 8.15988 5.96545 8.32065C6.12622 8.48142 6.34426 8.57174 6.57163 8.57174H10.0001C10.2275 8.57174 10.4455 8.48142 10.6063 8.32065C10.7671 8.15988 10.8574 7.94183 10.8574 7.71447V4.28599C10.8574 4.05862 10.7671 3.84057 10.6063 3.6798C10.4455 3.51903 10.2275 3.42871 10.0001 3.42871ZM9.14284 6.8572H7.42829V5.14326H9.14284V6.8572Z" fill="#A5A5A5"/>
<path d="M17.1431 3.42871H13.7146C13.4872 3.42871 13.2691 3.51903 13.1084 3.6798C12.9476 3.84057 12.8573 4.05862 12.8573 4.28599V7.71447C12.8573 7.94183 12.9476 8.15988 13.1084 8.32065C13.2691 8.48142 13.4872 8.57174 13.7146 8.57174H17.1431C17.3704 8.57174 17.5885 8.48142 17.7492 8.32065C17.91 8.15988 18.0003 7.94183 18.0003 7.71447V4.28599C18.0003 4.05862 17.91 3.84057 17.7492 3.6798C17.5885 3.51903 17.3704 3.42871 17.1431 3.42871ZM16.2858 6.8572H14.5718V5.14326H16.2858V6.8572Z" fill="#A5A5A5"/>
<path d="M10.0001 10.2852H6.57163C6.34426 10.2852 6.12622 10.3755 5.96545 10.5362C5.80468 10.697 5.71436 10.9151 5.71436 11.1424V14.5709C5.71436 14.7983 5.80468 15.0163 5.96545 15.1771C6.12622 15.3379 6.34426 15.4282 6.57163 15.4282H10.0001C10.2275 15.4282 10.4455 15.3379 10.6063 15.1771C10.7671 15.0163 10.8574 14.7983 10.8574 14.5709V11.1424C10.8574 10.9151 10.7671 10.697 10.6063 10.5362C10.4455 10.3755 10.2275 10.2852 10.0001 10.2852ZM9.14284 13.7136H7.42829V11.9991H9.14284V13.7136Z" fill="#A5A5A5"/>
<path d="M17.1431 10.2852H13.7146C13.4872 10.2852 13.2691 10.3755 13.1084 10.5362C12.9476 10.697 12.8573 10.9151 12.8573 11.1424V14.5709C12.8573 14.7983 12.9476 15.0163 13.1084 15.1771C13.2691 15.3379 13.4872 15.4282 13.7146 15.4282H17.1431C17.3704 15.4282 17.5885 15.3379 17.7492 15.1771C17.91 15.0163 18.0003 14.7983 18.0003 14.5709V11.1424C18.0003 10.9151 17.91 10.697 17.7492 10.5362C17.5885 10.3755 17.3704 10.2852 17.1431 10.2852ZM16.2858 13.7136H14.5718V11.9991H16.2858V13.7136Z" fill="#A5A5A5"/>
<path d="M15.7145 17.1426H8.00021C7.77285 17.1426 7.5548 17.2329 7.39403 17.3937C7.23326 17.5544 7.14294 17.7725 7.14294 17.9999V23.4283H8.85748V18.8571H14.8572V23.4283H16.5717V17.9999C16.5717 17.8873 16.5496 17.7758 16.5065 17.6718C16.4634 17.5678 16.4002 17.4733 16.3206 17.3937C16.241 17.3141 16.1465 17.2509 16.0425 17.2078C15.9385 17.1648 15.827 17.1426 15.7145 17.1426Z" fill="#A5A5A5"/>
<path d="M23.1427 22.5713H0.857273C0.62991 22.5713 0.411859 22.6616 0.25109 22.8224C0.0903197 22.9831 0 23.2012 0 23.4286C0 23.6559 0.0903197 23.874 0.25109 24.0347C0.411859 24.1955 0.62991 24.2858 0.857273 24.2858H23.1427C23.3701 24.2858 23.5881 24.1955 23.7489 24.0347C23.9097 23.874 24 23.6559 24 23.4286C24 23.2012 23.9097 22.9831 23.7489 22.8224C23.5881 22.6616 23.3701 22.5713 23.1427 22.5713Z" fill="#A5A5A5"/>
</svg>
