<svg width="24" height="24" viewBox="0 0 24 24" fill="none" xmlns="http://www.w3.org/2000/svg">
<g clip-path="url(#clip0)">
<path d="M23.1448 11.0449H19.0973C18.625 11.0449 18.2422 11.4115 18.2422 11.8638C18.2422 12.3162 18.625 12.6828 19.0973 12.6828H23.1448C23.6171 12.6828 23.9999 12.3162 23.9999 11.8638C23.9999 11.4116 23.6171 11.0449 23.1448 11.0449Z" fill="#A5A5A5"/>
<path d="M12.9121 11.0449H0.855094C0.382781 11.0449 0 11.4116 0 11.8639C0 12.3162 0.382781 12.6828 0.855094 12.6828H12.9121C13.3844 12.6828 13.7672 12.3162 13.7672 11.8639C13.7672 11.4116 13.3844 11.0449 12.9121 11.0449Z" fill="#A5A5A5"/>
<path d="M15.9901 8.09766C13.821 8.09766 12.0566 9.78766 12.0566 11.8647C12.0566 13.9421 13.8213 15.6318 15.9901 15.6318C18.1589 15.6318 19.9236 13.9421 19.9236 11.8647C19.9236 9.78766 18.1592 8.09766 15.9901 8.09766ZM15.9901 13.994C14.7642 13.994 13.7668 13.0388 13.7668 11.8648C13.7668 10.6907 14.7642 9.73554 15.9901 9.73554C17.216 9.73554 18.2137 10.6907 18.2137 11.8648C18.2137 13.0388 17.2163 13.994 15.9901 13.994Z" fill="#A5A5A5"/>
<path d="M4.90261 17.8145H0.855094C0.382781 17.8145 0 18.1811 0 18.6334C0 19.0857 0.382781 19.4523 0.855094 19.4523H4.90261C5.37492 19.4523 5.7577 19.0857 5.7577 18.6334C5.7577 18.1811 5.37492 17.8145 4.90261 17.8145Z" fill="#A5A5A5"/>
<path d="M23.145 17.8145H11.088C10.6157 17.8145 10.2329 18.1811 10.2329 18.6334C10.2329 19.0857 10.6157 19.4523 11.088 19.4523H23.145C23.6173 19.4523 24.0001 19.0857 24.0001 18.6334C24.0001 18.181 23.6173 17.8145 23.145 17.8145Z" fill="#A5A5A5"/>
<path d="M8.00964 14.8672C5.84078 14.8672 4.07617 16.5569 4.07617 18.6342C4.07617 20.7116 5.84083 22.4013 8.00964 22.4013C10.1785 22.4013 11.9431 20.7113 11.9431 18.6343C11.9431 16.5572 10.1785 14.8672 8.00964 14.8672ZM8.00964 20.7638C6.78372 20.7638 5.78636 19.8086 5.78636 18.6346C5.78636 17.4602 6.78372 16.5051 8.00964 16.5051C9.23556 16.5051 10.2329 17.4602 10.2329 18.6346C10.2329 19.8086 9.23561 20.7638 8.00964 20.7638Z" fill="#A5A5A5"/>
<path d="M4.90261 4.54883H0.855094C0.382781 4.54883 0 4.91546 0 5.36779C0 5.82012 0.382781 6.18671 0.855094 6.18671H4.90261C5.37492 6.18671 5.7577 5.82012 5.7577 5.36779C5.7577 4.91546 5.37492 4.54883 4.90261 4.54883Z" fill="#A5A5A5"/>
<path d="M23.145 4.54883H11.088C10.6157 4.54883 10.2329 4.91546 10.2329 5.36775C10.2329 5.82003 10.6157 6.18666 11.088 6.18666H23.145C23.6173 6.18666 24.0001 5.82008 24.0001 5.36775C24.0001 4.91542 23.6173 4.54883 23.145 4.54883Z" fill="#A5A5A5"/>
<path d="M8.00964 1.59961C5.84078 1.59961 4.07617 3.28961 4.07617 5.36666C4.07617 7.44372 5.84083 9.13372 8.00964 9.13372C10.1785 9.13372 11.9431 7.44399 11.9431 5.36666C11.9432 3.28934 10.1785 1.59961 8.00964 1.59961ZM8.00964 7.49588C6.78372 7.49588 5.78636 6.54072 5.78636 5.36666C5.78636 4.19261 6.78372 3.23744 8.00964 3.23744C9.23556 3.23744 10.2329 4.19261 10.2329 5.36666C10.2329 6.54077 9.23561 7.49588 8.00964 7.49588Z" fill="#A5A5A5"/>
</g>
<defs>
<clipPath id="clip0">
<rect width="24" height="22.9846" fill="white" transform="translate(0 0.507812)"/>
</clipPath>
</defs>
</svg>
