<svg width="319" height="261" viewBox="0 0 319 261" fill="none" xmlns="http://www.w3.org/2000/svg">
<path d="M198.87 204.058H119.531C119.531 204.058 122.821 254.595 107.111 254.595C112.137 254.595 206.263 254.595 211.289 254.595C195.58 254.595 198.87 204.058 198.87 204.058Z" fill="#CCE9FF"/>
<path opacity="0.65" d="M118.631 234.437L198.616 218.231C198.469 210.216 198.87 204.058 198.87 204.058H119.531C119.531 204.058 120.59 220.352 118.631 234.437Z" fill="#6695F2"/>
<path d="M307.587 219.295H10.8137C4.84129 219.295 0 214.454 0 208.481V21.174C0 15.2016 4.84129 10.3604 10.8137 10.3604H307.588C313.56 10.3604 318.401 15.2016 318.401 21.174V208.481C318.401 214.454 313.559 219.295 307.587 219.295Z" fill="#CCE9FF"/>
<path d="M304.671 211.89H13.7296C11.0851 211.89 8.94092 209.746 8.94092 207.101V22.5543C8.94092 19.9098 11.0851 17.7656 13.7296 17.7656H304.672C307.316 17.7656 309.46 19.9098 309.46 22.5543V207.102C309.46 209.746 307.316 211.89 304.671 211.89Z" fill="white" stroke="#2A94F5" stroke-miterlimit="10"/>
<g opacity="0.75">
<g opacity="0.75">
<path opacity="0.55" d="M69.6564 113.868H31.0608C28.5717 113.868 26.5536 111.851 26.5536 109.361V70.7645C26.5536 68.2755 28.5717 66.2573 31.0608 66.2573H69.6564C72.1454 66.2573 74.1636 68.2755 74.1636 70.7645V109.361C74.1636 111.851 72.1454 113.868 69.6564 113.868Z" stroke="#B3E0FF" stroke-miterlimit="10" stroke-linejoin="round"/>
<g opacity="0.75">
<path opacity="0.75" d="M46.1101 79.9106L34.6139 102.132H57.6057L46.1101 79.9106Z" stroke="#B3E0FF" stroke-miterlimit="10" stroke-linejoin="round"/>
<path opacity="0.75" d="M58.3847 87.2129L55.6199 92.5574L60.5728 102.132H66.1031L58.3847 87.2129Z" stroke="#B3E0FF" stroke-miterlimit="10" stroke-linejoin="round"/>
<path opacity="0.75" d="M64.532 83.0517C64.532 84.3809 63.4585 85.4587 62.1337 85.4587C60.8089 85.4587 59.7354 84.3809 59.7354 83.0517C59.7354 81.7226 60.8089 80.6455 62.1337 80.6455C63.4585 80.6448 64.532 81.7226 64.532 83.0517Z" stroke="#B3E0FF" stroke-miterlimit="10" stroke-linejoin="round"/>
</g>
</g>
<g opacity="0.75">
<path opacity="0.55" d="M142.485 113.868H103.89C101.4 113.868 99.3823 111.851 99.3823 109.361V70.7645C99.3823 68.2755 101.4 66.2573 103.89 66.2573H142.485C144.974 66.2573 146.992 68.2755 146.992 70.7645V109.361C146.992 111.851 144.974 113.868 142.485 113.868Z" stroke="#B3E0FF" stroke-miterlimit="10" stroke-linejoin="round"/>
<g opacity="0.75">
<path opacity="0.75" d="M118.939 79.9106L107.443 102.132H130.434L118.939 79.9106Z" stroke="#B3E0FF" stroke-miterlimit="10" stroke-linejoin="round"/>
<path opacity="0.75" d="M131.214 87.2129L128.449 92.5574L133.402 102.132H138.932L131.214 87.2129Z" stroke="#B3E0FF" stroke-miterlimit="10" stroke-linejoin="round"/>
<path opacity="0.75" d="M137.361 83.0517C137.361 84.3809 136.287 85.4587 134.963 85.4587C133.638 85.4587 132.564 84.3809 132.564 83.0517C132.564 81.7226 133.638 80.6455 134.963 80.6455C136.287 80.6448 137.361 81.7226 137.361 83.0517Z" stroke="#B3E0FF" stroke-miterlimit="10" stroke-linejoin="round"/>
</g>
</g>
<g opacity="0.75">
<path opacity="0.55" d="M215.314 113.868H176.718C174.229 113.868 172.211 111.851 172.211 109.361V70.7645C172.211 68.2755 174.229 66.2573 176.718 66.2573H215.314C217.803 66.2573 219.821 68.2755 219.821 70.7645V109.361C219.821 111.851 217.803 113.868 215.314 113.868Z" stroke="#B3E0FF" stroke-miterlimit="10" stroke-linejoin="round"/>
<g opacity="0.75">
<path opacity="0.75" d="M191.768 79.9106L180.271 102.132H203.263L191.768 79.9106Z" stroke="#B3E0FF" stroke-miterlimit="10" stroke-linejoin="round"/>
<path opacity="0.75" d="M204.042 87.2129L201.277 92.5574L206.23 102.132H211.761L204.042 87.2129Z" stroke="#B3E0FF" stroke-miterlimit="10" stroke-linejoin="round"/>
<path opacity="0.75" d="M210.19 83.0517C210.19 84.3809 209.116 85.4587 207.791 85.4587C206.466 85.4587 205.393 84.3809 205.393 83.0517C205.393 81.7226 206.466 80.6455 207.791 80.6455C209.116 80.6448 210.19 81.7226 210.19 83.0517Z" stroke="#B3E0FF" stroke-miterlimit="10" stroke-linejoin="round"/>
</g>
</g>
<g opacity="0.75">
<path opacity="0.55" d="M288.143 113.868H249.547C247.058 113.868 245.04 111.851 245.04 109.361V70.7645C245.04 68.2755 247.058 66.2573 249.547 66.2573H288.143C290.632 66.2573 292.65 68.2755 292.65 70.7645V109.361C292.65 111.851 290.632 113.868 288.143 113.868Z" stroke="#B3E0FF" stroke-miterlimit="10" stroke-linejoin="round"/>
<g opacity="0.75">
<path opacity="0.75" d="M264.596 79.9106L253.1 102.132H276.092L264.596 79.9106Z" stroke="#B3E0FF" stroke-miterlimit="10" stroke-linejoin="round"/>
<path opacity="0.75" d="M276.871 87.2129L274.106 92.5574L279.059 102.132H284.589L276.871 87.2129Z" stroke="#B3E0FF" stroke-miterlimit="10" stroke-linejoin="round"/>
<path opacity="0.75" d="M283.018 83.0517C283.018 84.3809 281.945 85.4587 280.62 85.4587C279.295 85.4587 278.222 84.3809 278.222 83.0517C278.222 81.7226 279.295 80.6455 280.62 80.6455C281.945 80.6448 283.018 81.7226 283.018 83.0517Z" stroke="#B3E0FF" stroke-miterlimit="10" stroke-linejoin="round"/>
</g>
</g>
</g>
<g opacity="0.75">
<g opacity="0.75">
<path opacity="0.55" d="M69.6564 175.401H31.0608C28.5717 175.401 26.5536 173.383 26.5536 170.894V132.297C26.5536 129.808 28.5717 127.79 31.0608 127.79H69.6564C72.1454 127.79 74.1636 129.808 74.1636 132.297V170.894C74.1636 173.383 72.1454 175.401 69.6564 175.401Z" stroke="#B3E0FF" stroke-miterlimit="10" stroke-linejoin="round"/>
<g opacity="0.75">
<path opacity="0.75" d="M46.1101 141.443L34.6139 163.664H57.6057L46.1101 141.443Z" stroke="#B3E0FF" stroke-miterlimit="10" stroke-linejoin="round"/>
<path opacity="0.75" d="M58.3847 148.746L55.6199 154.09L60.5728 163.664H66.1031L58.3847 148.746Z" stroke="#B3E0FF" stroke-miterlimit="10" stroke-linejoin="round"/>
<path opacity="0.75" d="M64.532 144.584C64.532 145.914 63.4585 146.991 62.1337 146.991C60.8089 146.991 59.7354 145.913 59.7354 144.584C59.7354 143.255 60.8089 142.178 62.1337 142.178C63.4585 142.178 64.532 143.255 64.532 144.584Z" stroke="#B3E0FF" stroke-miterlimit="10" stroke-linejoin="round"/>
</g>
</g>
<g opacity="0.75">
<path opacity="0.55" d="M142.485 175.401H103.89C101.4 175.401 99.3823 173.383 99.3823 170.894V132.297C99.3823 129.808 101.4 127.79 103.89 127.79H142.485C144.974 127.79 146.992 129.808 146.992 132.297V170.894C146.992 173.383 144.974 175.401 142.485 175.401Z" stroke="#B3E0FF" stroke-miterlimit="10" stroke-linejoin="round"/>
<g opacity="0.75">
<path opacity="0.75" d="M118.939 141.443L107.443 163.664H130.434L118.939 141.443Z" stroke="#B3E0FF" stroke-miterlimit="10" stroke-linejoin="round"/>
<path opacity="0.75" d="M131.214 148.746L128.449 154.09L133.402 163.664H138.932L131.214 148.746Z" stroke="#B3E0FF" stroke-miterlimit="10" stroke-linejoin="round"/>
<path opacity="0.75" d="M137.361 144.584C137.361 145.914 136.287 146.991 134.963 146.991C133.638 146.991 132.564 145.913 132.564 144.584C132.564 143.255 133.638 142.178 134.963 142.178C136.287 142.178 137.361 143.255 137.361 144.584Z" stroke="#B3E0FF" stroke-miterlimit="10" stroke-linejoin="round"/>
</g>
</g>
<g opacity="0.75">
<path opacity="0.55" d="M215.314 175.401H176.718C174.229 175.401 172.211 173.383 172.211 170.894V132.297C172.211 129.808 174.229 127.79 176.718 127.79H215.314C217.803 127.79 219.821 129.808 219.821 132.297V170.894C219.821 173.383 217.803 175.401 215.314 175.401Z" stroke="#B3E0FF" stroke-miterlimit="10" stroke-linejoin="round"/>
<g opacity="0.75">
<path opacity="0.75" d="M191.768 141.443L180.271 163.664H203.263L191.768 141.443Z" stroke="#B3E0FF" stroke-miterlimit="10" stroke-linejoin="round"/>
<path opacity="0.75" d="M204.042 148.746L201.277 154.09L206.23 163.664H211.761L204.042 148.746Z" stroke="#B3E0FF" stroke-miterlimit="10" stroke-linejoin="round"/>
<path opacity="0.75" d="M210.19 144.584C210.19 145.914 209.116 146.991 207.791 146.991C206.466 146.991 205.393 145.913 205.393 144.584C205.393 143.255 206.466 142.178 207.791 142.178C209.116 142.178 210.19 143.255 210.19 144.584Z" stroke="#B3E0FF" stroke-miterlimit="10" stroke-linejoin="round"/>
</g>
</g>
<g opacity="0.75">
<path opacity="0.55" d="M288.143 175.401H249.547C247.058 175.401 245.04 173.383 245.04 170.894V132.297C245.04 129.808 247.058 127.79 249.547 127.79H288.143C290.632 127.79 292.65 129.808 292.65 132.297V170.894C292.65 173.383 290.632 175.401 288.143 175.401Z" stroke="#B3E0FF" stroke-miterlimit="10" stroke-linejoin="round"/>
<g opacity="0.75">
<path opacity="0.75" d="M264.596 141.443L253.1 163.664H276.092L264.596 141.443Z" stroke="#B3E0FF" stroke-miterlimit="10" stroke-linejoin="round"/>
<path opacity="0.75" d="M276.871 148.746L274.106 154.09L279.059 163.664H284.589L276.871 148.746Z" stroke="#B3E0FF" stroke-miterlimit="10" stroke-linejoin="round"/>
<path opacity="0.75" d="M283.018 144.584C283.018 145.914 281.945 146.991 280.62 146.991C279.295 146.991 278.222 145.913 278.222 144.584C278.222 143.255 279.295 142.178 280.62 142.178C281.945 142.178 283.018 143.255 283.018 144.584Z" stroke="#B3E0FF" stroke-miterlimit="10" stroke-linejoin="round"/>
</g>
</g>
</g>
<path d="M219.822 190.977C221.534 190.977 222.921 192.365 222.921 194.076C222.921 195.786 221.533 197.174 219.822 197.174H99.3815C97.6701 197.174 96.2834 195.786 96.2834 194.076C96.2834 192.365 97.6708 190.977 99.3815 190.977H219.822ZM219.822 190.257H99.3815C97.2762 190.257 95.5634 191.97 95.5634 194.076C95.5634 196.181 97.2762 197.894 99.3815 197.894H219.822C221.928 197.894 223.641 196.181 223.641 194.076C223.641 191.97 221.928 190.257 219.822 190.257Z" fill="#2A94F5"/>
<path d="M184.076 190.977H99.3809C97.6694 190.977 96.2827 192.365 96.2827 194.075C96.2827 195.786 97.6701 197.173 99.3809 197.173H184.076V190.977Z" fill="#295CCE"/>
<path d="M108.389 182.981L89.344 202.025L91.889 204.57L110.934 185.526L108.389 182.981Z" fill="#2B94F4"/>
<path d="M117.85 182.98L98.8055 202.025L101.351 204.57L120.395 185.525L117.85 182.98Z" fill="#2B94F4"/>
<path d="M127.313 182.98L108.268 202.025L110.813 204.57L129.858 185.525L127.313 182.98Z" fill="#2B94F4"/>
<path d="M136.774 182.981L117.729 202.025L120.274 204.57L139.319 185.526L136.774 182.981Z" fill="#2B94F4"/>
<path d="M146.236 182.981L127.191 202.025L129.736 204.57L148.781 185.526L146.236 182.981Z" fill="#2B94F4"/>
<path d="M155.698 182.981L136.653 202.025L139.198 204.57L158.243 185.526L155.698 182.981Z" fill="#2B94F4"/>
<path d="M165.159 182.976L146.115 202.021L148.66 204.566L167.704 185.521L165.159 182.976Z" fill="#2B94F4"/>
<path d="M174.621 182.976L155.576 202.021L158.121 204.566L177.166 185.521L174.621 182.976Z" fill="#2B94F4"/>
<path d="M184.082 182.976L165.038 202.021L167.583 204.566L186.628 185.521L184.082 182.976Z" fill="#2B94F4"/>
<path d="M193.544 182.976L174.5 202.021L177.045 204.566L196.089 185.521L193.544 182.976Z" fill="#2B94F4"/>
<path d="M203.006 182.977L183.961 202.021L186.506 204.567L205.551 185.522L203.006 182.977Z" fill="#103BB2"/>
<path d="M212.468 182.982L193.423 202.027L195.968 204.572L215.013 185.527L212.468 182.982Z" fill="#103BB2"/>
<path d="M221.93 182.982L202.885 202.026L205.43 204.571L224.475 185.527L221.93 182.982Z" fill="#103BB2"/>
<path d="M8.94019 41.5283H309.46" stroke="#2A94F5" stroke-miterlimit="10"/>
<path opacity="0.45" d="M273.369 34.6236H66.3322C63.4954 34.6236 61.1957 32.3239 61.1957 29.4871C61.1957 26.6503 63.4954 24.3506 66.3322 24.3506H273.369C276.206 24.3506 278.505 26.6503 278.505 29.4871C278.505 32.3239 276.206 34.6236 273.369 34.6236Z" fill="#89B5F4"/>
<path d="M23.6879 29.7403C23.6879 31.2538 22.461 32.4807 20.9476 32.4807C19.4342 32.4807 18.2073 31.2538 18.2073 29.7403C18.2073 28.2269 19.4342 27 20.9476 27C22.461 27 23.6879 28.2269 23.6879 29.7403Z" stroke="#2A94F5" stroke-miterlimit="10"/>
<path d="M36.4772 29.7403C36.4772 31.2538 35.2503 32.4807 33.7369 32.4807C32.2235 32.4807 30.9966 31.2538 30.9966 29.7403C30.9966 28.2269 32.2235 27 33.7369 27C35.2503 27 36.4772 28.2269 36.4772 29.7403Z" stroke="#2A94F5" stroke-miterlimit="10"/>
<path d="M49.2667 29.7403C49.2667 31.2538 48.0398 32.4807 46.5263 32.4807C45.0129 32.4807 43.786 31.2538 43.786 29.7403C43.786 28.2269 45.0129 27 46.5263 27C48.0398 27 49.2667 28.2269 49.2667 29.7403Z" stroke="#2A94F5" stroke-miterlimit="10"/>
<path d="M225.458 253.153H92.9426V260.527H225.458V253.153Z" fill="#CCE9FF"/>
<path opacity="0.75" d="M250.596 51.5215H262.755" stroke="#E0EBFC" stroke-miterlimit="10" stroke-linejoin="round"/>
<path opacity="0.75" d="M268.643 51.5215H280.801" stroke="#E0EBFC" stroke-miterlimit="10" stroke-linejoin="round"/>
<g opacity="0.45">
<path opacity="0.75" d="M286.814 48.2285H285.178V49.8643H286.814V48.2285Z" fill="#89B5F4"/>
<path opacity="0.75" d="M289.096 48.2285H287.461V49.8643H289.096V48.2285Z" fill="#89B5F4"/>
<path opacity="0.75" d="M291.379 48.2285H289.743V49.8643H291.379V48.2285Z" fill="#89B5F4"/>
<path opacity="0.75" d="M286.814 50.7036H285.178V52.3395H286.814V50.7036Z" fill="#89B5F4"/>
<path opacity="0.75" d="M289.096 50.7036H287.461V52.3395H289.096V50.7036Z" fill="#89B5F4"/>
<path opacity="0.75" d="M291.379 50.7036H289.743V52.3395H291.379V50.7036Z" fill="#89B5F4"/>
<path opacity="0.75" d="M286.814 53.1792H285.178V54.815H286.814V53.1792Z" fill="#89B5F4"/>
<path opacity="0.75" d="M289.096 53.1792H287.461V54.815H289.096V53.1792Z" fill="#89B5F4"/>
<path opacity="0.75" d="M291.379 53.1792H289.743V54.815H291.379V53.1792Z" fill="#89B5F4"/>
</g>
<path opacity="0.45" d="M302.284 51.522C302.284 53.8123 300.428 55.6684 298.138 55.6684C295.847 55.6684 293.991 53.8123 293.991 51.522C293.991 49.2316 295.847 47.3755 298.138 47.3755C300.428 47.3755 302.284 49.2316 302.284 51.522Z" fill="#89B5F4"/>
<path d="M302.242 24.3505C302.242 24.9481 301.758 25.4319 301.161 25.4319C300.563 25.4319 300.079 24.9474 300.079 24.3505C300.079 23.7529 300.564 23.269 301.161 23.269C301.758 23.2683 302.242 23.7529 302.242 24.3505Z" fill="#498EF2"/>
<path d="M302.242 29.4872C302.242 30.0848 301.758 30.5686 301.161 30.5686C300.563 30.5686 300.079 30.0841 300.079 29.4872C300.079 28.8896 300.564 28.4058 301.161 28.4058C301.758 28.4058 302.242 28.8896 302.242 29.4872Z" fill="#498EF2"/>
<path d="M302.242 34.6234C302.242 35.221 301.758 35.7049 301.161 35.7049C300.563 35.7049 300.079 35.2203 300.079 34.6234C300.079 34.0266 300.564 33.542 301.161 33.542C301.758 33.542 302.242 34.0258 302.242 34.6234Z" fill="#498EF2"/>
<path d="M207.673 253.547H139.865" stroke="#2A94F5" stroke-miterlimit="10"/>
<path d="M132.257 253.547H110.12" stroke="#2A94F5" stroke-miterlimit="10"/>
<path opacity="0.55" d="M257.902 133.357V7.0332H61.3015V181.969H220.499C226.194 192.404 237.269 199.5 249.97 199.5C268.469 199.5 283.519 184.45 283.519 165.951C283.519 150.184 272.584 136.931 257.902 133.357Z" fill="#89B5F4"/>
<path d="M257.902 175.936L257.902 1L61.3013 1L61.3013 175.936L257.902 175.936Z" fill="white" stroke="#2A94F5" stroke-miterlimit="10"/>
<path d="M248.542 10.3592V166.575H70.6615V10.3592H248.542ZM249.262 9.63916H248.542H70.6615H69.9415V10.3592V166.575V167.295H70.6615H248.542H249.262V166.575V10.3592V9.63916Z" fill="#2A94F5"/>
<path d="M248.822 10.0513H70.3022V155.572H248.822V10.0513Z" fill="#FFBF55"/>
<path d="M204.525 45.2205C206.567 36.4874 201.142 27.7531 192.409 25.7119C183.675 23.6708 174.941 29.0957 172.9 37.8289C170.859 46.562 176.284 55.2963 185.017 57.3374C193.75 59.3785 202.484 53.9536 204.525 45.2205Z" fill="#FFE292"/>
<path d="M127.268 191.207L213.271 77.0176L289.297 191.207H127.268Z" fill="#0E538B"/>
<path d="M24.3308 194.431L132.915 50.2617L228.902 194.431H24.3308Z" fill="#2A94F5"/>
<path d="M249.97 191.666C267.505 191.666 281.719 177.452 281.719 159.917C281.719 142.383 267.505 128.168 249.97 128.168C232.436 128.168 218.221 142.383 218.221 159.917C218.221 177.452 232.436 191.666 249.97 191.666Z" fill="#FFBD58"/>
<path d="M249.97 129.968C266.51 129.968 279.919 143.377 279.919 159.917C279.919 176.458 266.51 189.866 249.97 189.866C233.429 189.866 220.02 176.458 220.02 159.917C220.021 143.377 233.43 129.968 249.97 129.968ZM249.97 126.368C231.471 126.368 216.42 141.418 216.42 159.917C216.42 178.416 231.471 193.466 249.97 193.466C268.468 193.466 283.519 178.416 283.519 159.917C283.519 141.418 268.468 126.368 249.97 126.368Z" fill="white"/>
<path d="M268.18 162.91L250.043 140.348L231.76 162.91H242.134V179.486H257.952V162.91H268.18Z" fill="white"/>
</svg>
