<svg width="24" height="26" viewBox="0 0 24 26" fill="none" xmlns="http://www.w3.org/2000/svg">
<path d="M23.0223 1.67474L22.9934 1.64803C22.4053 1.10685 21.6278 0.823228 20.8322 0.859549C20.0365 0.895871 19.2877 1.24916 18.7505 1.8417L8.01759 13.6809C7.91968 13.7888 7.84536 13.9163 7.79945 14.0549L6.5376 17.8672C6.46567 18.0849 6.44609 18.3168 6.48047 18.5437C6.51484 18.7706 6.60219 18.986 6.73533 19.1723C6.86847 19.3585 7.04359 19.5103 7.24629 19.615C7.44899 19.7198 7.67348 19.7745 7.90129 19.7748V19.7748C8.1002 19.7752 8.297 19.7338 8.47918 19.6534L12.1334 18.0426C12.2661 17.984 12.3852 17.898 12.4829 17.7901L23.2158 5.95083C23.7522 5.3576 24.0331 4.57417 23.9969 3.77248C23.9606 2.97078 23.6101 2.21634 23.0223 1.67474V1.67474ZM8.95524 17.1623L9.69583 14.9256L9.75609 14.8564L11.1596 16.1477L11.0993 16.217L8.95524 17.1623ZM21.6846 4.54166L12.56 14.6062L11.1553 13.3148L20.2811 3.24966C20.3635 3.15856 20.4629 3.08472 20.5736 3.03236C20.6843 2.97999 20.8042 2.95014 20.9264 2.9445C21.0485 2.93886 21.1706 2.95755 21.2856 2.99949C21.4006 3.04144 21.5063 3.10582 21.5966 3.18895L21.6255 3.21566C21.8078 3.38362 21.9165 3.61767 21.9276 3.86634C21.9387 4.115 21.8512 4.35792 21.6846 4.54166V4.54166Z" fill="#A5A5A5"/>
<path d="M20.9404 10.4896C20.6655 10.4896 20.4018 10.5996 20.2075 10.7955C20.0131 10.9913 19.9039 11.2569 19.9039 11.5339V20.3981C19.9031 21.1022 19.6251 21.7772 19.131 22.2751C18.6369 22.7729 17.9669 23.053 17.2681 23.0538H4.70812C4.00983 23.0523 3.34059 22.7721 2.84699 22.2744C2.3534 21.7768 2.07571 21.1023 2.07475 20.3987V7.84612C2.07571 7.14258 2.3534 6.4681 2.84699 5.97045C3.34059 5.47279 4.00983 5.19255 4.70812 5.1911H13.7995C14.0744 5.1911 14.3381 5.08108 14.5324 4.88524C14.7268 4.6894 14.836 4.42378 14.836 4.14682C14.836 3.86986 14.7268 3.60424 14.5324 3.4084C14.3381 3.21256 14.0744 3.10254 13.7995 3.10254H4.70812C3.45989 3.10399 2.26319 3.60422 1.38056 4.4935C0.497929 5.38278 0.00143539 6.58849 0 7.84612V20.3981C0.00127592 21.6559 0.497699 22.8617 1.38035 23.7512C2.263 24.6406 3.45978 25.1409 4.70812 25.1423H17.2687C18.5169 25.1409 19.7136 24.6406 20.5963 23.7514C21.4789 22.8621 21.9754 21.6564 21.9768 20.3987V11.5345C21.9769 11.3973 21.9502 11.2615 21.8981 11.1347C21.8461 11.0079 21.7697 10.8927 21.6735 10.7957C21.5772 10.6987 21.4629 10.6217 21.3371 10.5692C21.2114 10.5166 21.0765 10.4896 20.9404 10.4896Z" fill="#A5A5A5"/>
</svg>
