<svg width="24" height="26" viewBox="0 0 24 26" fill="none" xmlns="http://www.w3.org/2000/svg">
<g clip-path="url(#clip0)">
<path d="M19.714 12.9997C19.2406 12.9997 18.8569 13.388 18.8569 13.8671V22.5403C18.8569 23.0193 18.4731 23.4076 17.9997 23.4076H2.57139C2.098 23.4076 1.71425 23.0193 1.71425 22.5403V5.19378C1.71425 4.71475 2.098 4.32643 2.57139 4.32643H12.857C13.3304 4.32643 13.7141 3.93812 13.7141 3.45909C13.7141 2.98006 13.3304 2.5918 12.857 2.5918H2.57139C1.15125 2.5918 0 3.75674 0 5.19378V22.5403C0 23.9773 1.15125 25.1423 2.57139 25.1423H17.9998C19.4199 25.1423 20.5712 23.9773 20.5712 22.5403V13.867C20.5712 13.388 20.1874 12.9997 19.714 12.9997Z" fill="#A5A5A5"/>
<path d="M23.0391 1.83003C22.4236 1.20718 21.5889 0.857334 20.7185 0.857436C19.8476 0.854895 19.012 1.20535 18.3982 1.83059L7.10804 13.2541C7.01438 13.3496 6.94372 13.4657 6.90148 13.5932L5.18723 18.7972C5.03762 19.2517 5.28044 19.7428 5.72958 19.8941C5.81672 19.9235 5.90798 19.9385 5.99978 19.9386C6.09179 19.9384 6.18325 19.9235 6.27063 19.8944L11.4134 18.1597C11.5397 18.1171 11.6545 18.0452 11.7486 17.9499L23.0387 6.52543C24.3201 5.22892 24.3203 3.1267 23.0391 1.83003ZM21.8267 5.29986L10.684 16.5751L7.35489 17.7L8.46315 14.3356L19.6102 3.06043C20.223 2.44154 21.2156 2.44256 21.8272 3.06266C22.1194 3.35889 22.284 3.75991 22.2853 4.17842C22.2863 4.59915 22.1212 5.00287 21.8267 5.29986Z" fill="#A5A5A5"/>
</g>
<defs>
<clipPath id="clip0">
<rect width="24" height="24.2855" fill="white" transform="translate(0 0.857422)"/>
</clipPath>
</defs>
</svg>
