<svg width="39" height="40" viewBox="0 0 39 40" fill="none" xmlns="http://www.w3.org/2000/svg">
<rect x="0.5" y="0.5" width="38" height="39" rx="7.5" fill="white"/>
<path d="M27.9397 13.1902L26.3086 11.5589C25.5633 10.8137 24.3508 10.8137 23.6055 11.5589C22.9038 12.2607 12.1862 22.9791 11.47 23.6954C11.3937 23.7717 11.3426 23.8731 11.3244 23.9722L10.5088 28.3766C10.4772 28.5474 10.5316 28.7228 10.6544 28.8456C10.7774 28.9685 10.9528 29.0228 11.1234 28.9912L15.5273 28.1755C15.6291 28.1566 15.7292 28.105 15.8042 28.0299L27.9397 15.8935C28.6867 15.1465 28.6868 13.9373 27.9397 13.1902ZM11.6855 27.8144L12.1788 25.1501L14.3496 27.321L11.6855 27.8144ZM15.4313 26.9112L12.5886 24.0683L22.9671 13.689L25.8098 16.5319L15.4313 26.9112ZM27.1939 15.1477L26.5555 15.7862L23.7128 12.9433L24.3512 12.3048C24.6853 11.9707 25.2287 11.9707 25.5628 12.3048L27.1939 13.936C27.5288 14.2709 27.5288 14.8128 27.1939 15.1477Z" fill="#FFA83D"/>
<rect x="0.5" y="0.5" width="38" height="39" rx="7.5" stroke="#FFA83D"/>
</svg>
