<svg width="21" height="14" viewBox="0 0 21 14" fill="none" xmlns="http://www.w3.org/2000/svg">
<path d="M18.7422 0.148438H2.25781C1.28855 0.148438 0.5 0.936992 0.5 1.90625V12.093C0.5 13.0623 1.28855 13.8509 2.25781 13.8509H18.7422C19.7114 13.8509 20.5 13.0623 20.5 12.093V1.90625C20.5 0.936992 19.7114 0.148438 18.7422 0.148438ZM18.5128 1.32031L18.2782 1.51566L11.1974 7.4118C10.7933 7.74828 10.2066 7.74828 9.80258 7.4118L2.72184 1.51566L2.48723 1.32031H18.5128ZM1.67188 2.16633L7.44109 6.97035L1.67188 10.8099V2.16633ZM18.7422 12.679H2.25781C1.97469 12.679 1.73789 12.4771 1.68363 12.2098L8.3807 7.75273L9.05273 8.31234C9.47203 8.66148 9.98606 8.83605 10.5 8.83605C11.014 8.83605 11.528 8.66148 11.9473 8.31234L12.6194 7.75273L19.3164 12.2098C19.2621 12.4771 19.0253 12.679 18.7422 12.679ZM19.3281 10.8099L13.5589 6.97039L19.3281 2.16633V10.8099Z" fill="#A5A5A5"/>
</svg>
