<svg width="540" height="304" viewBox="0 0 540 304" fill="none" xmlns="http://www.w3.org/2000/svg">
<path opacity="0.1" d="M485.297 278.353H79.1719C79.1719 124.622 170.1 0 282.234 0C394.369 0 485.297 124.622 485.297 278.353Z" fill="#2A94F4"/>
<path d="M463.837 166.527L471.824 169.565C471.824 169.565 466.059 178.424 463.949 181.18C461.784 184.021 436.893 186.187 436.893 186.187L436.837 184.105C436.837 184.105 457.874 179.184 459.984 176.962C462.093 174.74 463.837 166.527 463.837 166.527Z" fill="#FCD2B1"/>
<path d="M477.618 151.059C477.618 151.059 467.381 150.863 465.946 156.544C464.512 162.225 461.446 171.141 461.446 171.141L469.293 172.125C469.293 172.125 480.571 153.478 477.618 151.059Z" fill="#FFBE55"/>
<path opacity="0.1" d="M279.871 297.507C391.305 297.507 481.64 288.806 481.64 278.073C481.64 267.34 391.305 258.639 279.871 258.639C168.437 258.639 78.1025 267.34 78.1025 278.073C78.1025 288.806 168.437 297.507 279.871 297.507Z" fill="#2A94F4"/>
<path d="M445.725 78.1316C432.647 78.1316 422.072 67.5285 422.072 54.4785C422.072 53.8035 422.1 53.1566 422.156 52.5098H106.312V276.75H453.431V76.8379C451.012 77.6816 448.425 78.1316 445.725 78.1316Z" fill="#FFAB42"/>
<path opacity="0.15" d="M106.312 276.723H453.431L279.872 117.535L106.312 276.723Z" fill="#4E4E4E"/>
<path d="M445.726 73.041C455.977 73.041 464.288 64.7303 464.288 54.4785C464.288 44.2267 455.977 35.916 445.726 35.916C435.474 35.916 427.163 44.2267 427.163 54.4785C427.163 64.7303 435.474 73.041 445.726 73.041Z" fill="#FFAB42"/>
<path d="M450.337 65.9828H443.643V52.7641H438.384V48.1797C441.928 48.1234 444.487 46.8859 445.246 42.9766H450.337V65.9828Z" fill="white"/>
<path d="M422.044 54.4785C422.044 53.8035 422.072 53.1566 422.128 52.5098H106.312L279.872 246.207L433.491 74.7566C426.628 70.5941 422.044 63.0848 422.044 54.4785Z" fill="#FFAB42"/>
<path opacity="0.26" d="M422.044 54.4785C422.044 53.8035 422.072 53.1566 422.128 52.5098H106.312L279.872 246.207L433.491 74.7566C426.628 70.5941 422.044 63.0848 422.044 54.4785Z" fill="white"/>
<path d="M479.419 138.6C479.419 142.06 479.925 148.866 483.047 149.822C483.75 150.047 486.31 146.25 487.069 146.25C491.288 146.25 495.169 144.619 495.169 140.372C495.169 138.263 495.281 135.591 493.875 134.213C492.497 132.835 489.403 129.994 487.294 129.994C483.075 129.994 479.419 134.354 479.419 138.6Z" fill="#0B4870"/>
<path d="M488.616 273.403L489.009 279.393H470.25C470.25 279.393 472.191 274.837 474.947 274.049C477.731 273.262 480.6 274.162 481.387 272.165C481.95 270.731 485.409 271.349 487.294 271.828C488.025 271.996 488.559 272.643 488.616 273.403Z" fill="#0B4870"/>
<path d="M467.944 273.403L468.337 279.393H449.578C449.578 279.393 451.519 274.837 454.275 274.049C457.059 273.262 459.928 274.162 460.716 272.165C461.278 270.731 464.737 271.349 466.622 271.828C467.353 271.996 467.887 272.643 467.944 273.403Z" fill="#0B4870"/>
<path d="M480.459 208.266C480.459 208.266 479.868 228.488 481.668 234.675C483.131 239.794 486.787 263.475 488.025 271.575C488.25 273.01 487.125 274.275 485.69 274.275H483.525C482.4 274.275 481.415 273.46 481.218 272.363C479.925 265.585 475.509 242.888 473.681 236.447C471.515 228.853 468.422 212.541 468.422 212.541C468.422 212.541 464.175 230.035 463.022 234.675C462.093 238.416 465.693 262.041 467.1 270.928C467.381 272.7 466.031 274.332 464.231 274.388L463.19 274.416C461.784 274.444 460.518 273.488 460.209 272.11C458.409 264.6 453.037 241.2 453.375 232.622C453.768 222.328 459.196 206.044 459.196 206.044C459.196 206.044 475.537 196.932 480.459 208.266Z" fill="#0E538C"/>
<path d="M484.875 132.273L482.794 133.033C478.8 134.467 475.988 138.18 475.875 142.427C475.847 143.748 476.072 144.761 476.86 144.817C479.335 145.07 479.335 145.07 479.335 145.07C479.335 145.07 478.266 151.652 476.579 152.158C475.229 152.552 473.457 153.255 473.625 154.155C473.794 154.97 474.441 157.952 474.441 157.952C474.441 157.952 478.8 158.205 480.769 157.277C481.444 156.939 484.06 157.811 483.779 157.248C483.469 156.63 483.441 154.661 483.666 153.03C484.116 149.908 484.819 145.577 484.819 145.577C484.819 145.577 485.157 144.648 485.775 144.705C486.394 144.733 489.263 143.495 489.01 142.033C488.757 140.57 487.632 139.952 486.591 140.683C485.55 141.414 484.566 141.836 485.888 139.755C487.21 137.673 492.047 138.63 487.575 135.395C484.594 133.23 484.875 132.273 484.875 132.273Z" fill="#FFE3CA"/>
<path d="M483.187 153.366C481.528 153.535 480.037 154.238 478.828 155.082C478.266 155.447 477.591 155.644 476.944 155.588C474.975 155.419 474.328 154.435 474.187 153.479C474.975 152.325 476.184 151.904 477.028 151.229C477.028 151.229 469.969 152.044 467.212 161.213C466.116 164.897 463.219 180.085 461.475 187.341C460.406 191.841 459.141 206.044 459.141 206.044L480.487 208.266C480.487 208.266 481.022 196.313 481.275 193.81C481.781 189.141 489.572 162.591 489.572 159.863C489.516 156.01 483.694 153.31 483.187 153.366Z" fill="#FFBE55"/>
<path d="M486.196 173.137L494.381 170.719C494.381 170.719 495.168 181.266 495.168 184.753C495.168 188.325 476.69 205.144 476.69 205.144L475.368 203.512C475.368 203.512 489.121 186.834 489.431 183.769C489.74 180.703 486.196 173.137 486.196 173.137Z" fill="#FCD2B1"/>
<path d="M483.075 160.144L485.381 174.431L495.169 172.828C495.169 172.828 493.369 157.078 485.887 154.688C478.434 152.297 483.075 160.144 483.075 160.144Z" fill="#FFBE55"/>
<path d="M476.69 206.523V208.464C476.69 208.464 477.731 209.983 478.209 210.039C478.209 210.039 478.125 210.939 476.69 210.883C475.256 210.827 472.837 208.83 473.372 207.536C473.878 206.242 474.244 204.948 475.087 203.908C475.931 202.867 475.931 202.867 475.931 202.867L477.562 204.386C477.534 204.386 476.69 206.13 476.69 206.523Z" fill="#FCD2B1"/>
</svg>
