<svg width="540" height="540" viewBox="0 0 540 540" fill="none" xmlns="http://www.w3.org/2000/svg">
<path d="M440.95 199.6C475.606 199.6 503.7 171.505 503.7 136.85C503.7 102.194 475.606 74.0996 440.95 74.0996C406.294 74.0996 378.2 102.194 378.2 136.85C378.2 171.505 406.294 199.6 440.95 199.6Z" stroke="#C1C1C1" stroke-miterlimit="10" stroke-dasharray="11.95 11.95"/>
<path d="M413.4 126.4C427.25 131.3 441.05 137.25 450.75 146.6C460.45 155.95 465.3 169.4 459.5 180.65C451.7 195.7 427.1 204.45 426.95 220.75C426.85 232.4 440.25 241.35 453.75 245.55C467.25 249.8 482.2 251.3 494.45 257.5C512.95 266.85 521.65 284.95 525.2 302.35C528.9 320.4 527.4 340.95 511.55 354C491.9 370.3 459.3 368.5 431.45 365C394.25 360.35 357.2 354.95 320.15 349.5C238.95 337.6 157.75 325.65 76.5503 313.75C67.8503 312.45 58.8003 311.05 51.7003 306.8C37.6503 298.3 36.4503 280.75 44.6503 268.2C52.8003 255.65 67.9003 247.15 82.9003 239.8C97.9003 232.45 113.75 225.45 125 214.55C136.25 203.65 141.85 187.55 133.3 175.15C126.1 164.65 110.6 159.05 103.85 148.35C94.9503 134.25 105.2 116.3 121.3 107.3C137.4 98.3002 340.1 100.55 413.4 126.4Z" fill="#FAFAFA"/>
<path d="M508.25 434.3H31.7496C28.1996 434.3 25.3496 431.4 25.3496 427.9V389.75C25.3496 386.2 28.2496 383.35 31.7496 383.35H508.25C511.8 383.35 514.65 386.25 514.65 389.75V427.9C514.65 431.4 511.8 434.3 508.25 434.3Z" fill="#EAEAEA"/>
<path d="M480.85 360.4H443.95C436.45 360.4 430.65 353.75 431.7 346.3L442.2 271.2C436.35 265.75 432.65 258 432.65 249.4C432.65 232.95 445.95 219.65 462.4 219.65C465.4 219.65 468.3 220.1 471.05 220.95C483.25 224.65 492.15 236 492.15 249.4C492.15 258 488.45 265.8 482.6 271.2L493.1 346.3C494.15 353.75 488.4 360.4 480.85 360.4Z" fill="#82CCF9"/>
<path d="M480.85 360.399H461.25C453.75 360.399 447.95 353.749 449 346.299L459.5 271.199C453.65 265.749 450 257.999 450 249.399C450 235.999 458.9 224.649 471.1 220.949C483.3 224.649 492.2 235.999 492.2 249.399C492.2 257.999 488.5 265.799 482.65 271.199L493.15 346.299C494.15 353.749 488.4 360.399 480.85 360.399Z" fill="#CCE9FF"/>
<path d="M448.9 297.699V332.999C448.9 337.749 445.05 341.599 440.3 341.599H434.9C432.4 341.599 430.45 339.549 430.45 337.049V336.999C430.45 331.999 427.7 327.649 423.7 325.349C423.9 324.749 424 324.149 424.05 323.449C424.2 319.699 421.2 316.449 417.5 316.249C413.5 316.049 410.2 319.199 410.2 323.199C410.2 323.949 410.3 324.649 410.55 325.349C406.5 327.649 403.8 331.999 403.8 336.999V337.049C403.8 339.549 401.85 341.599 399.35 341.599H393.95C389.2 341.599 385.35 337.749 385.35 332.999V297.699H448.9Z" fill="#F7A226"/>
<path d="M176.25 266.949H184.35C188.4 266.949 191.75 270.299 191.75 274.349V312.849C191.75 316.899 188.4 320.249 184.35 320.249H176.25C172.2 320.249 168.85 316.899 168.85 312.849V274.349C168.85 270.249 172.2 266.949 176.25 266.949Z" fill="#FFBE55"/>
<path d="M114.8 212.1C77.2 212.1 46.75 248.6 46.75 293.6C46.75 338.6 77.2 375.1 114.8 375.1C152.4 375.1 182.85 338.6 182.85 293.6C182.85 248.6 152.4 212.1 114.8 212.1ZM114.8 353.75C87.05 353.75 64.55 326.8 64.55 293.6C64.55 260.4 87.05 233.45 114.8 233.45C142.55 233.45 165.05 260.4 165.05 293.6C165.05 326.8 142.55 353.75 114.8 353.75Z" fill="#FFCB80"/>
<path d="M356.1 404.4C356.1 404.4 363.9 408.4 368.9 411C369.95 411.55 369.55 413.15 368.35 413.15C361.75 413.15 351.65 413.15 351.65 413.15V404.4H356.1Z" fill="#072D42"/>
<path d="M368.05 311.349L358.45 405.899H350.35V351.599L353.85 310.199L368.05 311.349Z" fill="#073C59"/>
<path d="M324 401.2C326.5 404.65 328.8 411 331.7 411.55C330.35 413.65 327.1 413.3 325 412.7C322.9 412.1 316.7 404.45 316.7 404.45L320.4 399.25L324 401.2Z" fill="#072D42"/>
<path d="M358.45 310.45L351.7 354.15L326 402.85H316.65C316.65 402.85 335.3 354.55 339.75 352.85C339.85 345.85 337.6 308 337.6 308L358.45 310.45Z" fill="#0B4870"/>
<path d="M364 249.699C367.4 251.749 374.1 284.249 389.35 289.449C383.5 294.149 376.65 291.099 376.65 291.099C376.65 291.099 360.6 265.099 360.85 260.049C361.05 254.999 364 249.699 364 249.699Z" fill="#1A85D6"/>
<path d="M349.45 247C343.9 247.55 338.25 249.5 337.55 253.8C336.85 258.1 335.4 313.85 335.4 313.85H368.1C368.1 313.85 367.5 251.75 365.2 250.2C362.9 248.65 349.45 247 349.45 247Z" fill="#2A94F4"/>
<path d="M217.2 349.549C217 350.349 207.7 403.649 207.7 403.649H202.15V349.549H217.2Z" fill="#F7C39F"/>
<path d="M207.7 351C204.2 356.15 167.15 374.85 161.3 376.85C157.1 373.55 158.2 372.8 158.2 372.8L193.8 344.9L207.7 351Z" fill="#FCD2B1"/>
<path d="M199.65 291.751C194.75 297.101 192.95 336.701 176.6 343.001C187.6 355.851 219.35 355.151 236.85 352.601C232.65 334.151 218.7 295.701 212.8 291.451C207.2 288.351 199.65 291.751 199.65 291.751Z" fill="#2A94F4"/>
<path d="M247.4 271.1C249.4 269.95 256.6 265.25 261.65 267.6C259.55 268.4 256.5 268.2 255.4 269.3C256.7 269.75 257.8 269.95 258.8 270.7C257.15 270.9 256 270.9 254.2 271.2C252.4 272 247.8 273.5 247.8 273.5L247.4 271.1Z" fill="#FCD2B1"/>
<path d="M213.1 264.25C217.3 265.9 223.95 274.2 228.65 275.3C233.35 276.4 247.9 270.2 248.75 270.1C249.1 270.75 249.75 273.15 249.75 273.15C249.75 273.15 234.35 285.5 223.65 282.1C212.95 278.7 214.15 276.55 214.15 276.55L213.1 264.25Z" fill="#AADBF9"/>
<path d="M205.2 262.75C200.25 263.5 194.15 265.8 193.4 266.95C192.05 274.9 195.05 282.65 199.65 291.8C205.1 291.9 209.05 291.95 212.85 291.5C214.1 288.5 216.6 281.3 218.05 277.2C218.3 276.45 218.3 275.65 218.05 274.9C216.55 270.8 214.3 264.15 212.7 264.15C210.8 264.05 205.2 262.75 205.2 262.75Z" fill="#CCE9FF"/>
<path d="M210.65 259.55C210.65 259.55 209.55 264.45 210.65 265.8C210.15 267.75 209.6 269.4 209.6 269.4L204.35 264.45L205.55 257.5L210.65 259.55Z" fill="#FCD2B1"/>
<path d="M215.3 251.75C217 251.2 218.15 249.45 218.4 247.7C218.65 245.9 218.05 244.1 217.2 242.5C216.25 240.75 214.8 239.05 212.85 238.7C211.9 238.5 210.9 238.65 209.95 238.8C207.05 239.25 204.15 239.7 201.2 240.15C198.4 240.55 195.4 241.1 193.45 243.1C190.85 245.75 190.9 250.2 188.55 253.1C186.65 255.5 183.5 256.45 180.5 257.05C177.5 257.65 174.35 257.95 171.7 259.55C169.05 261.1 167.2 263.8 166.05 266.7C165.2 268.75 164.7 271 165.2 273.15C166.05 276.9 169.85 279.45 173.7 280C177.55 280.55 181.4 279.6 185.15 278.65C187.1 278.15 189.15 277.6 190.55 276.15C191.7 274.95 192.25 273.35 192.9 271.85C196.85 262.45 205.35 255.05 215.2 252.45" fill="#0E538C"/>
<path d="M216.65 251.199C216.65 255.549 215.3 260.599 211.7 260.599C208.1 260.599 203.7 257.949 203.7 251.199C203.7 246.849 206.6 243.299 210.2 243.299C213.75 243.299 216.65 246.849 216.65 251.199Z" fill="#FFE3CA"/>
<path d="M217.15 245.049C216.8 246.749 215.65 248.299 214.05 249.099C212.75 249.749 211.2 249.849 209.75 249.949C207.3 250.099 204.85 250.249 202.45 250.399C202.35 250.399 202.2 250.399 202.1 250.299C202.05 250.199 202.1 250.049 202.2 249.949C203.15 248.549 204.1 247.149 205.05 245.699C206.05 244.199 207.3 242.549 209.1 242.249C210.5 241.999 211.85 242.599 213.1 243.299C214.3 243.999 215.5 244.799 216.9 245.049" fill="#0E538C"/>
<path d="M204.347 255.835C205.214 255.409 205.434 254.079 204.837 252.864C204.24 251.65 203.053 251.011 202.186 251.437C201.318 251.863 201.099 253.193 201.696 254.408C202.292 255.622 203.479 256.261 204.347 255.835Z" fill="#FFE3CA"/>
<path d="M204.45 256.549C204.864 256.549 205.2 256.213 205.2 255.799C205.2 255.385 204.864 255.049 204.45 255.049C204.036 255.049 203.7 255.385 203.7 255.799C203.7 256.213 204.036 256.549 204.45 256.549Z" fill="#FFBE55"/>
<path d="M161.3 376.9C161.3 376.9 159.05 389.95 158.95 392.4C155.95 388.8 155.5 376.65 154.05 375.95C152.6 375.25 158.15 372.9 158.15 372.9L161.3 376.9Z" fill="#0B4870"/>
<path d="M207.7 403.65C207.7 403.65 218.2 408.55 220.5 409.35C216.2 411.25 203.9 408.1 202.8 409.3C201.75 410.5 202.15 402.85 202.15 402.85L207.7 403.65Z" fill="#0B4870"/>
<path d="M345 226C342.5 229.2 343.55 237.1 344.15 238.25C344.75 239.4 344.95 241.8 346.5 242.75C348.05 243.7 350.45 244.2 350.5 243.65C350.55 243.1 350.95 227.55 350.95 227.55L345 226Z" fill="#0B4870"/>
<path d="M354.75 243.85C354.75 243.85 355.8 248.1 356.1 249.05C355.35 250.3 354.55 252.9 354.55 252.9L348.5 248.6L349 241.1L354.75 243.85Z" fill="#FCD2B1"/>
<path d="M360.85 235.601C360.85 240.051 359.2 245.501 355.3 245.501C348.25 245.501 346.8 240.051 346.8 235.601C346.8 231.151 349.95 227.551 353.85 227.551C357.75 227.551 360.85 231.151 360.85 235.601Z" fill="#FFE3CA"/>
<path d="M353.351 232.9C351.901 233.3 350.501 233.75 349.001 233.75C347.551 233.75 346.001 233.35 344.901 232.25C343.801 231.15 343.151 229.3 343.651 227.75C344.251 225.75 346.351 224.8 348.251 224.8C350.101 224.8 351.951 225.5 353.801 225.6C355.651 225.7 357.801 225.05 358.651 223.15C360.101 224.6 361.501 226.05 362.851 227.6C363.551 228.4 364.301 229.45 363.901 230.5C363.651 231.15 363.001 231.45 362.351 231.5C361.751 231.55 361.101 231.4 360.501 231.4C359.351 231.4 358.201 231.85 357.151 232.35C356.101 232.85 355.251 232.75 354.051 232.75L353.351 232.9Z" fill="#0B4870"/>
<path d="M348.399 232.601C348.649 234.801 348.149 236.251 347.699 236.851C347.599 237.901 347.699 239.351 347.699 239.351H346.599L345.649 232.201L348.399 232.601Z" fill="#0B4870"/>
<path d="M346.782 238.962C347.348 238.74 347.479 237.727 347.075 236.699C346.672 235.671 345.886 235.017 345.321 235.239C344.755 235.461 344.624 236.474 345.027 237.502C345.431 238.531 346.217 239.184 346.782 238.962Z" fill="#FFE3CA"/>
<path d="M346.35 234.75L347.05 239.1L347.5 238.85L347.2 235.2L346.35 234.75Z" fill="#0B4870"/>
<path d="M360.85 270.85C358.75 270.85 357.05 269.15 357.05 267.05V262H364.65V267.1C364.65 269.2 362.95 270.85 360.85 270.85Z" fill="#49B0FC"/>
<path d="M451.45 304.55H182.85V282.65H451.45C457.5 282.65 462.4 287.55 462.4 293.6C462.4 299.65 457.5 304.55 451.45 304.55Z" fill="#FFBE55"/>
<path d="M376.65 302.65C376.65 302.65 380.45 307.45 386.4 306.7C392.45 306.05 392.85 304.05 393.75 303.55C389.85 303.7 377.55 300.65 377.55 300.65L376.65 302.65Z" fill="#FCD2B1"/>
<path d="M202.6 306.399C204.4 307.249 211.1 308.299 212.8 307.949C214.55 307.599 217.85 304.899 218.5 304.999C216.6 304.949 213.5 306.749 212.85 306.499C212.2 306.249 211.35 305.949 211.35 305.949C211.35 305.949 213.5 304.699 213.25 303.949C212.35 304.349 210 305.699 210 305.699L202.2 304.899L202.6 306.399Z" fill="#FCD2B1"/>
<path d="M200.05 264C194.95 264.75 191.9 267 188.95 273.9C186 280.85 174.4 305.2 208.95 308.45C209.15 307.5 209.05 305.25 209.05 305.25C209.05 305.25 178 301.7 196.5 277.6L200.05 264Z" fill="#CCE9FF"/>
<path d="M260.2 267.949C265.95 267.949 270.65 272.649 270.65 278.399V308.749C270.65 314.499 265.95 319.199 260.2 319.199C254.45 319.199 249.75 314.499 249.75 308.749V278.399C249.75 272.649 254.4 267.949 260.2 267.949Z" fill="#FFCB80"/>
<path d="M341 249.4C337.4 254.1 337 261.8 339 263.95C341 266.1 367.1 296.45 376.75 304.6C377.8 303.1 379.2 300.5 379.2 300.5L341 249.4Z" fill="#49B0FC"/>
<path d="M64.6003 410.55C73.3503 410.55 77.0003 403.6 78.4503 396.2C80.1003 387.85 78.9003 379 78.9003 379H50.3002C50.3002 379 50.2502 379.35 50.2002 379.95C49.6502 385.15 47.9502 410.55 64.6003 410.55Z" fill="#B6E7FF"/>
<path d="M50.3008 378.951C50.3008 379.551 56.7008 380.101 64.6008 380.101C72.5008 380.101 78.9008 379.601 78.9008 378.951C78.9008 378.301 72.5008 377.801 64.6008 377.801C56.7008 377.851 50.3008 378.351 50.3008 378.951Z" fill="#85DDFF"/>
<path d="M25.9004 299.7C25.9004 299.7 40.9504 322.65 50.0004 336.65C59.0504 350.65 61.4004 353.55 62.5004 358.1C63.6004 362.6 64.5504 379.3 64.5504 379.3H65.2004C65.2004 379.3 64.9504 365.15 64.1504 360.35C63.3504 355.75 64.2004 354.1 64.8504 349.25C65.5004 344.4 66.3504 336.65 61.4504 331.25C56.5504 325.85 57.8504 320.6 56.1004 317.05C54.4004 313.5 41.0004 309.2 39.3004 305.55C37.6504 301.85 30.1004 299.6 25.9004 299.7Z" fill="#2A94F4"/>
<path d="M25.9004 299.701C25.9004 299.701 30.6504 305.101 33.8504 306.901C37.1004 308.751 38.6004 307.101 41.0504 311.551C43.5504 315.951 43.6004 317.901 45.9004 320.151C48.1504 322.401 50.8504 322.501 51.0504 327.451C51.2504 332.401 49.9504 336.601 49.9504 336.601C49.9504 336.601 26.8504 300.901 25.9004 299.701Z" fill="#41AAF7"/>
<path d="M63.3502 379.299H62.6502C62.6502 379.299 62.4502 374.699 60.6502 372.499C59.5002 371.049 54.5002 369.449 49.5502 367.499C46.8502 366.399 44.1502 365.249 42.1002 363.949C36.3502 360.299 30.9002 348.55 30.4502 346.5C30.3002 345.75 30.2002 345.349 30.2002 345.049C30.2002 344.5 30.5002 344.4 30.9502 343.85C31.2002 343.6 31.9002 343.65 32.7502 343.95C35.2002 344.7 37.3002 346.4 38.6002 348.649C39.8002 350.699 41.7002 353.3 44.0502 353.95C48.1002 355.05 47.7502 355.699 49.2502 359.799C50.7502 363.899 54.5002 364.599 59.2002 369.449C63.9502 374.149 63.3502 379.299 63.3502 379.299Z" fill="#2A94F4"/>
<path d="M49.5502 367.45C46.8502 366.35 44.1502 365.2 42.1002 363.9C36.3502 360.25 30.9002 348.5 30.4502 346.45C30.3002 345.7 30.2002 345.3 30.2002 345C30.2002 345.15 30.5002 347 33.4502 348.25C36.5502 349.55 37.1502 349.55 37.5502 351.5C37.9502 353.45 38.3002 355.55 39.9002 355.95C41.5002 356.35 42.5502 354.55 43.8002 357.5C45.1002 360.45 45.7002 361.5 46.8502 361.9C48.0502 362.3 48.9002 361.7 49.2002 364C49.4502 365.3 49.5002 366.65 49.5502 367.45Z" fill="#41AAF7"/>
<path d="M68.3009 379.301H69.1009C69.1009 379.301 70.6509 350.901 72.8009 348.251C74.2009 346.551 78.8009 343.501 84.6009 341.201C87.8009 339.901 91.0009 338.551 93.4009 337.001C100.201 332.701 106.651 318.801 107.201 316.301C107.401 315.451 107.501 314.901 107.501 314.551C107.501 313.901 107.151 313.801 106.601 313.101C106.351 312.751 105.501 312.901 104.501 313.201C101.551 314.101 99.1009 316.101 97.5509 318.751C96.1509 321.201 93.8509 324.251 91.1009 325.001C86.3009 326.301 86.7009 327.101 84.9509 331.951C83.2009 336.851 78.7509 337.601 73.1509 343.351C67.6009 349.151 68.3009 379.301 68.3009 379.301Z" fill="#2A94F4"/>
<path d="M84.6504 341.201C87.8504 339.901 91.0504 338.551 93.4504 337.001C100.25 332.701 106.7 318.801 107.25 316.301C107.45 315.451 107.55 314.901 107.55 314.551C107.55 314.701 107.2 316.901 103.7 318.401C100.05 319.901 99.3004 319.901 98.8504 322.251C98.3504 324.551 97.9504 327.051 96.0504 327.501C94.1504 328.001 92.9504 325.801 91.4004 329.351C89.9004 332.851 89.1504 334.051 87.7504 334.551C86.3504 335.051 85.3004 334.301 85.0004 337.051C84.8004 338.651 84.7004 340.251 84.6504 341.201Z" fill="#41AAF7"/>
<path d="M64.6002 410.551C73.3502 410.551 77.0002 403.601 78.4502 396.201C69.9002 392.951 59.1502 387.751 50.2002 379.951C49.6502 385.151 47.9502 410.551 64.6002 410.551Z" fill="#CCE9FF"/>
</svg>
