<svg width="25" height="24" viewBox="0 0 25 24" fill="none" xmlns="http://www.w3.org/2000/svg">
<path d="M21.2257 6.79688C21.7218 6.79688 22.0659 6.29527 21.8798 5.83528C21.2192 4.20211 19.6169 3.04688 17.7497 3.04688H16.8865C16.5647 1.34658 15.0739 0 13.2497 0H11.7497C9.92669 0 8.43494 1.34569 8.11286 3.04688H7.24971C5.38249 3.04688 3.78021 4.20211 3.1196 5.83528C2.93355 6.29527 3.27757 6.79688 3.77374 6.79688H21.2257ZM11.7497 1.40625H13.2497C14.2763 1.40625 15.1477 2.09691 15.441 3.04688H9.55839C9.85174 2.09691 10.7231 1.40625 11.7497 1.40625Z" fill="#FF2626"/>
<path d="M5.70562 22.0404C5.78386 23.1393 6.70809 24 7.80965 24H17.1903C18.2919 24 19.2161 23.1393 19.2944 22.0404L20.2798 8.20312H4.72021L5.70562 22.0404ZM14.4228 11.9649C14.4422 11.577 14.7729 11.2779 15.1601 11.2978C15.548 11.3172 15.8467 11.6473 15.8272 12.0351L15.4522 19.5351C15.4334 19.911 15.1228 20.2031 14.7506 20.2031C14.3457 20.2031 14.0278 19.8645 14.0477 19.4649L14.4228 11.9649ZM9.8399 11.2978C10.2272 11.2783 10.5579 11.5771 10.5772 11.9649L10.9522 19.4649C10.9722 19.8647 10.654 20.2031 10.2494 20.2031C9.87721 20.2031 9.56653 19.911 9.54773 19.5351L9.17273 12.0351C9.15337 11.6473 9.45206 11.3172 9.8399 11.2978Z" fill="#FF2626"/>
</svg>
