<svg width="18" height="18" viewBox="0 0 18 18" fill="none" xmlns="http://www.w3.org/2000/svg">
<path d="M17.4397 2.19019L15.8086 0.558945C15.0633 -0.186332 13.8508 -0.186297 13.1055 0.558945C12.4038 1.2607 1.68623 11.9791 0.969993 12.6954C0.893704 12.7717 0.842587 12.8731 0.824376 12.9722L0.00882122 17.3766C-0.0227842 17.5474 0.0316376 17.7228 0.154438 17.8456C0.27738 17.9685 0.45281 18.0228 0.623352 17.9912L5.02734 17.1755C5.12912 17.1566 5.22917 17.105 5.3042 17.0299L17.4397 4.89346C18.1867 4.14646 18.1868 2.9373 17.4397 2.19019ZM1.1855 16.8144L1.67885 14.1501L3.84961 16.321L1.1855 16.8144ZM4.93133 15.9112L2.08863 13.0683L12.4671 2.68903L15.3098 5.53194L4.93133 15.9112ZM16.6939 4.14769L16.0555 4.78617L13.2128 1.94326L13.8512 1.30478C14.1853 0.97073 14.7287 0.970695 15.0628 1.30478L16.6939 2.93603C17.0288 3.2709 17.0288 3.8128 16.6939 4.14769Z" fill="#A5A5A5"/>
</svg>
