<svg width="400" height="328" viewBox="0 0 400 328" fill="none" xmlns="http://www.w3.org/2000/svg">
<path d="M35.7124 244.457L31.5394 242.082C30.447 243.83 29.129 245.426 27.6196 246.828C27.0713 247.329 26.3536 247.602 25.612 247.591C24.8705 247.581 24.1607 247.287 23.6268 246.771L23.4963 246.64C23.2066 246.361 22.9775 246.025 22.8234 245.652C22.6693 245.28 22.5934 244.88 22.6006 244.477C22.6077 244.074 22.6978 243.677 22.8651 243.311C23.0323 242.945 23.2733 242.617 23.5726 242.349C24.9751 241.114 26.1657 239.656 27.0969 238.033C28.5164 235.52 28.5216 233.251 26.7647 232.251C25.0959 231.3 23.2443 232.112 20.3036 234.749C16.0575 238.567 12.0425 240.535 7.78206 238.11C3.91714 235.91 2.43041 231.451 4.17296 226.209L0 223.834L2.44086 219.51L6.30578 221.711C7.12056 220.379 8.0766 219.141 9.15717 218.016C9.42842 217.739 9.75174 217.52 10.1084 217.369C10.4651 217.219 10.8479 217.141 11.2347 217.141C11.6216 217.14 12.0046 217.217 12.3617 217.366C12.7188 217.515 13.0428 217.734 13.3148 218.01C13.5868 218.286 13.8015 218.614 13.9464 218.974C14.0912 219.334 14.1634 219.719 14.1586 220.108C14.1538 220.496 14.0722 220.879 13.9186 221.236C13.7649 221.592 13.5423 221.914 13.2636 222.184C12.1849 223.232 11.2636 224.432 10.5284 225.746C8.90917 228.612 9.61467 230.237 10.8462 230.938C12.2957 231.763 14.0898 230.745 17.6127 227.797C22.4214 223.601 26.0318 222.86 29.9861 225.111C33.8954 227.339 35.6641 232.014 33.6781 237.585L38.1584 240.136L35.7124 244.457Z" fill="#FFCE88"/>
<path d="M236.428 311.693C246.951 297.477 255.401 297.354 255.401 297.354C255.401 297.354 259.236 272.379 256.176 261.755C253.116 251.131 239.279 260.444 239.279 260.444C239.279 260.444 257.625 224.348 250.101 220.292C236.085 212.739 214.01 251.028 214.01 251.028C214.01 251.028 219.181 234.175 209.269 234.237C194.324 234.332 193.029 272.974 193.029 272.974C193.029 272.974 190.082 265.361 180.86 269.722C170.926 274.42 168.236 302.712 167.671 324.575H220.034C227.525 319.97 233.644 315.454 236.431 311.69" fill="#2993F2"/>
<path d="M215.839 247.954C215.839 247.954 216.454 228.75 206.542 228.812C191.597 228.906 193.026 272.978 193.026 272.978C193.026 272.978 186.782 260.509 177.559 264.871C167.437 269.658 166.235 300.928 166.632 324.579H184.026L250.099 220.295C236.083 212.743 215.835 247.954 215.835 247.954" fill="#0E538B"/>
<path d="M297.228 323.332C297.228 323.332 344.945 328.846 356.503 324.783C368.061 320.719 360.407 314.222 360.407 314.222C360.407 314.222 384.852 311.088 387.21 303.785C389.568 296.482 378.002 296.435 378.002 296.435C378.002 296.435 402.541 282.846 399.784 277.576C394.653 267.762 367.121 281.153 367.121 281.153C367.121 281.153 376.626 273.483 370.907 269.649C362.277 263.866 346.557 285.577 346.557 285.577C346.557 285.577 347.814 280.05 340.821 278.956C328.276 276.991 297.231 323.332 297.231 323.332" fill="#2993F2"/>
<path d="M340.807 274.875C347.799 275.969 346.556 285.576 346.556 285.576C346.556 285.576 362.813 259.679 371.443 265.464C377.166 269.299 369.369 280.099 369.369 280.099C369.369 280.099 394.655 267.762 399.785 277.577L301.798 320.263C305.396 314.834 329.088 273.044 340.806 274.877" fill="#0E538B"/>
<path d="M296.934 324.028C296.934 324.028 340.355 293.702 346.6 280.371C352.845 267.039 340.884 268.15 340.884 268.15C340.884 268.15 358.745 244.541 354.507 236.383C350.268 228.226 340.513 238.112 340.513 238.112C340.513 238.112 349.548 205.642 342.747 203.579C330.078 199.739 317.685 240.856 317.685 240.856C317.685 240.856 312.954 218.107 304.881 219.797C292.708 222.347 304.855 255.978 304.855 255.978C304.855 255.978 301.265 245.023 294.459 250.104C282.252 259.223 296.934 324.028 296.934 324.028" fill="#2993F2"/>
<path d="M282.581 250.629C284.842 249.531 286.837 247.951 288.427 245.999C290.017 244.048 291.164 241.772 291.788 239.33C291.788 239.33 291.84 220.313 304.013 217.764C312.085 216.074 317.736 231.351 317.736 231.351C317.736 231.351 330.078 199.738 342.747 203.578L296.802 323.518C295.199 315.871 273.449 254.965 282.58 250.629" fill="#0E538B"/>
<path d="M283.546 324.122H195.988C195.319 324.129 194.656 324.004 194.035 323.752C193.415 323.501 192.851 323.128 192.376 322.656C191.9 322.184 191.523 321.622 191.265 321.002C191.007 320.383 190.875 319.718 190.875 319.047C190.875 318.376 191.007 317.711 191.265 317.091C191.523 316.472 191.9 315.91 192.376 315.438C192.851 314.966 193.415 314.593 194.035 314.342C194.656 314.09 195.319 313.964 195.988 313.972H283.546C284.215 313.964 284.878 314.09 285.498 314.342C286.118 314.593 286.682 314.966 287.158 315.438C287.634 315.91 288.011 316.472 288.269 317.091C288.527 317.711 288.659 318.376 288.659 319.047C288.659 319.718 288.527 320.383 288.269 321.002C288.011 321.622 287.634 322.184 287.158 322.656C286.682 323.128 286.118 323.501 285.498 323.752C284.878 324.004 284.215 324.129 283.546 324.122Z" fill="#D3D3D3"/>
<path d="M298.861 314.273H211.302C209.961 314.273 208.675 313.738 207.727 312.786C206.779 311.835 206.246 310.544 206.246 309.198C206.246 307.852 206.779 306.561 207.727 305.609C208.675 304.658 209.961 304.123 211.302 304.123H298.861C300.202 304.123 301.487 304.658 302.436 305.609C303.384 306.561 303.916 307.852 303.916 309.198C303.916 310.544 303.384 311.835 302.436 312.786C301.487 313.738 300.202 314.273 298.861 314.273Z" fill="#AAAAAA"/>
<path d="M286.609 304.944H199.049C198.38 304.951 197.716 304.826 197.096 304.574C196.476 304.322 195.912 303.95 195.437 303.478C194.961 303.006 194.583 302.444 194.326 301.824C194.068 301.205 193.935 300.54 193.935 299.869C193.935 299.197 194.068 298.533 194.326 297.913C194.583 297.294 194.961 296.732 195.437 296.26C195.912 295.788 196.476 295.415 197.096 295.163C197.716 294.912 198.38 294.786 199.049 294.794H286.607C287.276 294.786 287.939 294.912 288.559 295.163C289.179 295.415 289.743 295.788 290.219 296.26C290.695 296.732 291.072 297.294 291.33 297.913C291.587 298.533 291.72 299.197 291.72 299.869C291.72 300.54 291.587 301.205 291.33 301.824C291.072 302.444 290.695 303.006 290.219 303.478C289.743 303.95 289.179 304.322 288.559 304.574C287.939 304.826 287.276 304.951 286.607 304.944" fill="#D3D3D3"/>
<path d="M276.4 294.836H188.842C187.501 294.836 186.215 294.302 185.266 293.35C184.318 292.398 183.786 291.107 183.786 289.761C183.786 288.415 184.318 287.124 185.266 286.173C186.215 285.221 187.501 284.686 188.842 284.686H276.4C277.741 284.686 279.027 285.221 279.975 286.173C280.923 287.124 281.456 288.415 281.456 289.761C281.456 291.107 280.923 292.398 279.975 293.35C279.027 294.302 277.741 294.836 276.4 294.836" fill="#AAAAAA"/>
<path d="M338.422 283.129C338.422 291.82 335.855 300.317 331.044 307.543C326.234 314.77 319.397 320.402 311.397 323.728C303.398 327.054 294.595 327.925 286.103 326.229C277.611 324.533 269.811 320.348 263.688 314.202C257.566 308.057 253.396 300.226 251.707 291.702C250.018 283.178 250.885 274.342 254.198 266.312C257.512 258.282 263.123 251.419 270.322 246.591C277.521 241.762 285.985 239.185 294.644 239.185C300.393 239.184 306.086 240.321 311.397 242.529C316.709 244.738 321.535 247.975 325.6 252.055C329.665 256.136 332.89 260.98 335.09 266.312C337.29 271.644 338.422 277.358 338.422 283.129Z" fill="#FFCE88"/>
<path d="M331.38 283.129C331.38 290.422 329.226 297.552 325.189 303.616C321.153 309.68 315.415 314.406 308.703 317.197C301.99 319.988 294.604 320.718 287.478 319.296C280.352 317.873 273.806 314.361 268.669 309.204C263.531 304.047 260.032 297.476 258.615 290.323C257.197 283.17 257.925 275.756 260.705 269.017C263.486 262.279 268.194 256.52 274.235 252.468C280.277 248.417 287.379 246.254 294.645 246.254C304.388 246.254 313.731 250.139 320.621 257.054C327.51 263.97 331.38 273.349 331.38 283.129Z" fill="#FFBE55"/>
<path d="M283.271 306.807L285.36 301.019C282.93 300.011 280.645 298.685 278.562 297.074C277.816 296.488 277.319 295.638 277.174 294.698C277.028 293.758 277.245 292.797 277.779 292.011L277.91 291.814C278.198 291.388 278.571 291.026 279.005 290.752C279.44 290.477 279.926 290.295 280.434 290.218C280.941 290.141 281.459 290.17 281.955 290.303C282.451 290.437 282.914 290.671 283.315 290.993C285.165 292.503 287.25 293.697 289.487 294.527C292.946 295.786 295.797 295.307 296.678 292.87C297.514 290.555 296.099 288.387 292.159 285.228C286.457 280.672 283.127 276.014 285.262 270.104C287.198 264.744 292.479 261.91 299.435 262.994L301.523 257.207L307.471 259.368L305.535 264.729C307.38 265.475 309.14 266.42 310.782 267.546C311.181 267.833 311.519 268.196 311.777 268.614C312.035 269.032 312.209 269.497 312.289 269.983C312.368 270.468 312.351 270.965 312.239 271.444C312.128 271.923 311.923 272.375 311.637 272.775C311.351 273.175 310.99 273.514 310.573 273.773C310.157 274.033 309.693 274.207 309.21 274.287C308.726 274.367 308.231 274.35 307.754 274.238C307.277 274.125 306.826 273.92 306.428 273.633C304.881 272.492 303.177 271.583 301.37 270.934C297.426 269.498 295.535 270.737 294.919 272.446C294.193 274.456 295.855 276.508 300.31 280.335C306.607 285.523 308.31 289.933 306.329 295.416C304.372 300.838 298.876 304.076 291.456 302.753L289.211 308.967L283.271 306.807Z" fill="white"/>
<path d="M136.761 322.337C136.761 322.337 68.7313 288.664 57.0321 271.107C45.3329 253.55 62.5306 252.55 62.5306 252.55C62.5306 252.55 32.1718 222.913 36.4433 210.435C40.7149 197.958 56.6529 209.88 56.6529 209.88C56.6529 209.88 36.9204 165.783 46.1246 161.398C63.2681 153.231 87.3184 200.162 87.3184 200.162C87.3184 200.162 82.1502 179.775 93.9558 180.437C111.759 181.436 111.024 227.555 111.024 227.555C111.024 227.555 113.034 209.872 123.765 215.616C143.018 225.921 136.761 322.339 136.761 322.339" fill="#0E538B"/>
<path d="M127.639 208.48C119.259 203.812 110.914 217.455 110.914 217.455C110.914 217.455 111.762 181.434 93.9557 180.435C82.1501 179.772 87.3191 200.16 87.3191 200.16C87.3191 200.16 63.2687 153.229 46.1252 161.396L136.842 321.586C137.483 310.4 144.241 217.725 127.64 208.479" fill="#2993F2"/>
<path d="M135.003 322.754C135.003 322.754 79.3641 329.69 64.9577 323.508C50.5514 317.327 60.8761 309.691 60.8761 309.691C60.8761 309.691 29.941 303.588 27.5557 294.064C25.1703 284.539 39.9369 285.474 39.9369 285.474C39.9369 285.474 9.77781 266.018 13.7439 259.529C21.1311 247.442 55.1296 266.905 55.1296 266.905C55.1296 266.905 43.653 256.296 51.2843 251.895C62.7936 245.256 81.0035 274.321 81.0035 274.321C81.0035 274.321 79.8718 267.157 88.8906 266.363C105.071 264.938 135.003 322.754 135.003 322.754Z" fill="#0E538B"/>
<path d="M89.2554 261.158C80.2373 261.952 81.0035 274.321 81.0035 274.321C81.0035 274.321 62.464 239.868 50.9547 246.507C43.3228 250.908 52.3527 265.366 52.3527 265.366C52.3527 265.366 21.1305 247.442 13.7433 259.529L135.172 322.444C131.043 315.205 104.367 259.826 89.2554 261.157" fill="#2993F2"/>
<path d="M292.178 52.5391L290.195 57.5022L281.886 55.1805L278.094 62.0782L271.593 61.3615L271.232 64.6646L279.926 65.6237L283.52 59.0863L292.163 61.5017L295.148 54.0334L292.178 52.5391Z" fill="#2993F2"/>
<path d="M321.728 185.497L323.77 180.41C321.639 179.436 319.646 178.183 317.842 176.684C317.196 176.138 316.781 175.365 316.681 174.524C316.581 173.682 316.804 172.833 317.304 172.15L317.429 171.979C317.699 171.609 318.042 171.299 318.438 171.068C318.833 170.837 319.272 170.691 319.726 170.638C320.18 170.585 320.64 170.627 321.078 170.762C321.515 170.896 321.92 171.12 322.267 171.418C323.867 172.821 325.686 173.95 327.652 174.76C330.692 175.989 333.246 175.653 334.105 173.511C334.922 171.476 333.73 169.5 330.32 166.567C325.385 162.33 322.566 158.078 324.652 152.884C326.544 148.172 331.334 145.815 337.493 146.999L339.535 141.912L344.763 144.027L342.87 148.74C344.49 149.462 346.027 150.359 347.455 151.414C347.822 151.674 348.134 152.006 348.37 152.39C348.606 152.773 348.763 153.201 348.83 153.648C348.897 154.094 348.873 154.549 348.76 154.986C348.647 155.423 348.447 155.832 348.172 156.189C347.897 156.546 347.553 156.843 347.16 157.063C346.767 157.283 346.335 157.421 345.887 157.468C345.44 157.516 344.988 157.472 344.559 157.339C344.129 157.206 343.731 156.987 343.388 156.695C342.046 155.631 340.558 154.768 338.969 154.133C335.502 152.73 333.78 153.776 333.178 155.276C332.469 157.045 333.884 158.922 337.731 162.47C343.176 167.287 344.554 171.268 342.619 176.087C340.706 180.853 335.712 183.563 329.148 182.153L326.955 187.614L321.728 185.497Z" fill="#D3D3D3"/>
<path d="M209.52 324.063H106.676C104.721 324.045 102.852 323.252 101.475 321.857C100.099 320.463 99.3267 318.579 99.3267 316.616C99.3267 314.653 100.099 312.769 101.475 311.375C102.852 309.98 104.721 309.187 106.676 309.169H209.52C211.476 309.187 213.345 309.98 214.722 311.375C216.098 312.769 216.87 314.653 216.87 316.616C216.87 318.579 216.098 320.463 214.722 321.857C213.345 323.252 211.476 324.045 209.52 324.063Z" fill="#FFCE88"/>
<path d="M224.979 309.321H128.161C126.194 309.321 124.307 308.537 122.915 307.14C121.524 305.744 120.742 303.849 120.742 301.874C120.742 299.899 121.524 298.005 122.915 296.608C124.307 295.212 126.194 294.427 128.161 294.427H224.979C226.946 294.427 228.833 295.212 230.225 296.608C231.616 298.005 232.398 299.899 232.398 301.874C232.398 303.849 231.616 305.744 230.225 307.14C228.833 308.537 226.946 309.321 224.979 309.321Z" fill="#FFBE55"/>
<path d="M211.186 294.421H118.573C116.65 294.421 114.806 293.654 113.447 292.289C112.087 290.925 111.323 289.073 111.323 287.143V286.799C111.323 284.869 112.087 283.017 113.447 281.653C114.806 280.288 116.65 279.521 118.573 279.521H211.187C213.109 279.521 214.954 280.288 216.313 281.653C217.673 283.017 218.437 284.869 218.437 286.799V287.143C218.437 289.073 217.673 290.925 216.313 292.289C214.954 293.654 213.109 294.421 211.187 294.421" fill="#FFCE88"/>
<path d="M211.094 279.563H118.048C117.112 279.563 116.186 279.378 115.321 279.019C114.457 278.659 113.671 278.133 113.009 277.469C112.348 276.804 111.823 276.016 111.465 275.148C111.107 274.28 110.922 273.35 110.922 272.411V271.822C110.922 270.882 111.107 269.952 111.465 269.084C111.823 268.216 112.348 267.428 113.009 266.764C113.671 266.099 114.456 265.573 115.321 265.213C116.186 264.854 117.112 264.669 118.048 264.669H211.094C212.984 264.669 214.797 265.423 216.133 266.764C217.469 268.105 218.22 269.925 218.22 271.822V272.411C218.22 273.35 218.036 274.28 217.678 275.148C217.319 276.016 216.795 276.804 216.133 277.469C215.471 278.133 214.686 278.659 213.821 279.019C212.957 279.378 212.03 279.563 211.094 279.563Z" fill="#FFBE55"/>
<path d="M214.159 265.545H120.26C119.28 265.554 118.307 265.368 117.399 264.998C116.491 264.628 115.665 264.081 114.969 263.388C114.272 262.696 113.72 261.872 113.342 260.964C112.965 260.056 112.771 259.082 112.771 258.098C112.771 257.114 112.965 256.14 113.342 255.232C113.72 254.324 114.272 253.499 114.969 252.807C115.665 252.115 116.491 251.568 117.399 251.197C118.307 250.827 119.28 250.641 120.26 250.651H214.159C215.139 250.641 216.112 250.827 217.02 251.197C217.928 251.568 218.754 252.115 219.45 252.807C220.147 253.499 220.699 254.324 221.077 255.232C221.454 256.14 221.648 257.114 221.648 258.098C221.648 259.082 221.454 260.056 221.077 260.964C220.699 261.872 220.147 262.696 219.45 263.388C218.754 264.081 217.928 264.628 217.02 264.998C216.112 265.368 215.139 265.554 214.159 265.545" fill="#FFCE88"/>
<path d="M210.106 250.838H116.207C114.239 250.838 112.352 250.054 110.961 248.657C109.57 247.261 108.788 245.366 108.788 243.391C108.788 241.416 109.57 239.522 110.961 238.126C112.352 236.729 114.239 235.944 116.207 235.944H210.106C212.074 235.944 213.961 236.729 215.352 238.126C216.744 239.522 217.525 241.416 217.525 243.391C217.525 245.366 216.744 247.261 215.352 248.657C213.961 250.054 212.074 250.838 210.106 250.838Z" fill="#FFBE55"/>
<path d="M214.81 222.063H124.868C122.939 222.063 121.089 221.294 119.726 219.925C118.362 218.556 117.596 216.7 117.596 214.764V214.469C117.596 212.533 118.362 210.677 119.726 209.308C121.089 207.939 122.939 207.169 124.868 207.169H214.81C215.765 207.169 216.711 207.358 217.593 207.725C218.476 208.092 219.277 208.629 219.953 209.307C220.628 209.985 221.164 210.79 221.529 211.676C221.895 212.561 222.083 213.511 222.083 214.469V214.764C222.083 216.7 221.316 218.556 219.953 219.925C218.589 221.294 216.739 222.063 214.81 222.063Z" fill="#FFBE55"/>
<path d="M222.869 236.386H136.46C135.523 236.386 134.594 236.201 133.728 235.841C132.862 235.48 132.075 234.953 131.412 234.287C130.749 233.622 130.223 232.832 129.864 231.962C129.506 231.093 129.321 230.161 129.321 229.22V228.658C129.321 227.716 129.506 226.785 129.864 225.915C130.223 225.046 130.749 224.256 131.412 223.59C132.075 222.925 132.862 222.397 133.728 222.037C134.594 221.677 135.523 221.491 136.46 221.491H222.869C223.807 221.491 224.735 221.677 225.601 222.037C226.468 222.397 227.254 222.925 227.917 223.59C228.58 224.256 229.106 225.046 229.465 225.915C229.823 226.785 230.008 227.716 230.008 228.658V229.22C230.008 231.12 229.256 232.943 227.917 234.287C226.578 235.631 224.763 236.386 222.869 236.386Z" fill="#FFCE88"/>
<path d="M122.881 250.332C129.215 256.195 133.674 263.812 135.695 272.219C137.716 280.626 137.208 289.446 134.235 297.563C131.262 305.68 125.958 312.73 118.994 317.822C112.03 322.913 103.718 325.817 95.1093 326.166C86.5007 326.516 77.9822 324.295 70.6311 319.785C63.2799 315.275 57.4263 308.677 53.8104 300.828C50.1944 292.978 48.9786 284.228 50.3167 275.685C51.6548 267.141 55.4867 259.188 61.3277 252.831C69.1602 244.306 80.0455 239.254 91.589 238.785C103.133 238.317 114.389 242.47 122.881 250.332Z" fill="#FFCE88"/>
<path d="M118.131 255.502C123.445 260.422 127.187 266.813 128.882 273.868C130.578 280.922 130.152 288.323 127.657 295.134C125.163 301.945 120.712 307.861 114.868 312.133C109.024 316.405 102.049 318.842 94.8259 319.135C87.6023 319.429 80.4543 317.565 74.2859 313.78C68.1174 309.996 63.2055 304.46 60.1713 297.873C57.1371 291.286 56.1169 283.944 57.2397 276.775C58.3624 269.606 61.5777 262.933 66.479 257.598C73.0516 250.445 82.1859 246.205 91.8724 245.812C101.559 245.419 111.004 248.904 118.131 255.502Z" fill="#FFBE55"/>
<path d="M117.322 293.935C117.73 294.472 117.939 295.135 117.913 295.81C117.888 296.485 117.629 297.13 117.182 297.635C114.772 300.261 111.895 302.412 108.698 303.977C103.26 306.656 97.0153 307.476 91.1174 305.455C87.184 304.031 83.7599 301.468 81.2783 298.09L78.0654 299.673C77.541 299.931 76.9358 299.97 76.383 299.781C75.8302 299.591 75.375 299.189 75.1174 298.663L75.0769 298.58C74.8194 298.053 74.7808 297.446 74.9696 296.891C75.1583 296.336 75.5589 295.879 76.0833 295.621L78.72 294.322C78.192 293.452 77.8265 292.914 77.5844 292.418C77.1208 291.443 76.7303 290.434 76.4161 289.401L73.6973 290.741C73.1731 290.997 72.5691 291.034 72.0176 290.845C71.4661 290.655 71.0121 290.253 70.7551 289.728C70.4981 289.202 70.4591 288.596 70.6467 288.042C70.8342 287.488 71.233 287.031 71.7556 286.771L75.0515 285.147C74.0851 281.104 74.2431 276.872 75.5083 272.912C76.5859 269.885 78.2481 267.101 80.3997 264.72C82.5513 262.338 85.15 260.407 88.0468 259.036C90.6724 257.696 93.5142 256.835 96.4397 256.493C97.205 256.409 97.9728 256.627 98.5814 257.1C99.1901 257.573 99.5922 258.265 99.7029 259.029L99.7101 259.079C99.7656 259.47 99.7434 259.868 99.6447 260.251C99.5461 260.633 99.373 260.992 99.1353 261.307C98.8977 261.621 98.6003 261.886 98.2603 262.085C97.9202 262.283 97.5444 262.412 97.1543 262.465C94.885 262.798 92.684 263.497 90.6365 264.534C86.8308 266.315 83.8844 269.539 82.4439 273.498C81.5266 276.114 81.4485 278.952 82.2207 281.614L100.76 272.478C101.019 272.349 101.302 272.273 101.591 272.254C101.88 272.235 102.17 272.273 102.445 272.366C102.719 272.46 102.972 272.607 103.19 272.799C103.408 272.991 103.586 273.224 103.713 273.485C103.841 273.746 103.916 274.03 103.934 274.321C103.953 274.611 103.914 274.902 103.82 275.177C103.726 275.452 103.578 275.706 103.386 275.924C103.195 276.142 102.962 276.32 102.701 276.447L83.3387 285.989C83.7009 286.94 84.0631 287.889 84.347 288.469C84.7105 289.214 85.0747 289.958 85.6425 290.91L105.046 281.345C105.312 281.211 105.601 281.132 105.897 281.111C106.193 281.09 106.491 281.128 106.772 281.223C107.054 281.318 107.314 281.468 107.537 281.665C107.76 281.861 107.943 282.1 108.074 282.367C108.205 282.635 108.281 282.926 108.3 283.224C108.318 283.521 108.277 283.819 108.18 284.101C108.083 284.383 107.931 284.642 107.734 284.865C107.536 285.087 107.296 285.269 107.029 285.398L88.4488 294.554C90.0554 296.545 92.1736 298.057 94.5745 298.926C98.9563 300.358 102.818 299.892 106.938 297.863C109.167 296.762 111.214 295.323 113.008 293.598C113.302 293.314 113.654 293.095 114.039 292.956C114.424 292.817 114.834 292.762 115.242 292.793C115.65 292.825 116.046 292.943 116.406 293.139C116.765 293.335 117.079 293.606 117.327 293.932" fill="white"/>
<path d="M117.318 165.136C117.598 165.592 117.712 166.131 117.64 166.662C117.568 167.193 117.315 167.682 116.923 168.046C114.819 169.933 112.381 171.409 109.737 172.396C107.507 173.293 105.123 173.738 102.721 173.705C100.319 173.671 97.9481 173.161 95.744 172.203C92.7479 170.775 90.2413 168.487 88.5415 165.628L85.8833 166.63C85.4494 166.793 84.9688 166.776 84.5469 166.584C84.1251 166.392 83.7966 166.039 83.6336 165.604L83.6082 165.535C83.5276 165.319 83.4901 165.09 83.4978 164.86C83.5055 164.629 83.5584 164.403 83.6533 164.193C83.7482 163.984 83.8833 163.795 84.0509 163.637C84.2186 163.48 84.4154 163.358 84.6302 163.277L86.8113 162.454C86.4615 161.727 86.2142 161.275 86.0608 160.864C85.7694 160.058 85.5384 159.232 85.3697 158.392L83.12 159.24C82.9052 159.321 82.6766 159.358 82.4473 159.351C82.218 159.343 81.9925 159.29 81.7836 159.195C81.5747 159.099 81.3865 158.964 81.2298 158.795C81.0731 158.627 80.951 158.43 80.8704 158.214C80.7898 157.998 80.7523 157.769 80.76 157.539C80.7678 157.308 80.8206 157.082 80.9155 156.872C81.0104 156.663 81.1455 156.474 81.3131 156.317C81.4807 156.159 81.6776 156.037 81.8924 155.956L84.6191 154.929C84.1665 151.662 84.6165 148.333 85.9199 145.305C87.0029 142.998 88.529 140.929 90.4105 139.215C92.292 137.502 94.4919 136.178 96.8842 135.32C99.0599 134.465 101.37 134.005 103.706 133.962C104.316 133.955 104.905 134.186 105.349 134.607C105.792 135.027 106.056 135.604 106.085 136.216V136.256C106.099 136.569 106.051 136.881 105.943 137.176C105.836 137.47 105.672 137.74 105.46 137.97C105.248 138.2 104.993 138.386 104.71 138.516C104.426 138.647 104.119 138.72 103.807 138.731C101.99 138.818 100.199 139.2 98.5027 139.86C95.3617 140.972 92.7883 143.289 91.3472 146.303C90.4222 148.297 90.1426 150.532 90.5477 152.693L105.885 146.915C106.319 146.752 106.799 146.768 107.221 146.96C107.643 147.153 107.972 147.505 108.135 147.941C108.298 148.376 108.281 148.859 108.09 149.282C107.898 149.706 107.547 150.036 107.113 150.199L91.094 156.234C91.3067 157.012 91.5201 157.791 91.6996 158.27C91.93 158.886 92.1604 159.502 92.535 160.297L108.59 154.249C108.81 154.16 109.046 154.117 109.284 154.121C109.522 154.125 109.756 154.176 109.974 154.273C110.191 154.369 110.387 154.508 110.551 154.681C110.714 154.854 110.841 155.059 110.924 155.282C111.008 155.506 111.046 155.743 111.037 155.982C111.028 156.22 110.971 156.454 110.87 156.67C110.77 156.886 110.627 157.08 110.451 157.24C110.274 157.4 110.068 157.523 109.844 157.602L94.472 163.393C95.5883 165.089 97.1456 166.447 98.9752 167.318C102.325 168.788 105.41 168.719 108.818 167.435C110.661 166.738 112.388 165.761 113.936 164.538C114.191 164.336 114.485 164.191 114.8 164.111C115.114 164.031 115.442 164.019 115.762 164.076C116.082 164.132 116.386 164.256 116.654 164.438C116.923 164.621 117.15 164.859 117.321 165.136" fill="#D3D3D3"/>
<path d="M259.67 113.68L264.565 111.19L269.38 113.827C269.503 113.895 269.643 113.926 269.783 113.918C269.924 113.91 270.059 113.863 270.174 113.781C270.289 113.7 270.379 113.588 270.434 113.458C270.489 113.328 270.507 113.186 270.485 113.046L269.641 107.609L273.628 103.827C273.73 103.73 273.803 103.606 273.839 103.469C273.875 103.333 273.872 103.189 273.83 103.054C273.789 102.919 273.711 102.798 273.605 102.706C273.498 102.613 273.369 102.552 273.23 102.53L267.813 101.654L265.463 96.6794C265.403 96.5517 265.308 96.4435 265.19 96.367C265.072 96.2905 264.934 96.2489 264.794 96.2467C264.653 96.2445 264.514 96.2819 264.394 96.3547C264.273 96.4275 264.175 96.5327 264.111 96.6585L261.607 101.558L256.168 102.266C256.028 102.284 255.897 102.341 255.788 102.43C255.679 102.519 255.597 102.637 255.551 102.771C255.506 102.905 255.498 103.048 255.53 103.186C255.561 103.323 255.631 103.449 255.73 103.55L259.599 107.453L258.588 112.865C258.562 113.003 258.575 113.147 258.627 113.278C258.678 113.41 258.764 113.524 258.877 113.609C258.989 113.694 259.123 113.745 259.263 113.757C259.403 113.77 259.544 113.743 259.67 113.679" fill="#FFBE55"/>
<path d="M161.444 13.8325L156.386 14.3481L154.661 6.27115L147.173 6.10933L144.897 0.278809L141.956 1.43508L144.999 9.2362L152.095 9.39014L153.889 17.7927L161.5 17.017L161.444 13.8325Z" fill="#FFBE55"/>
<path d="M265.369 134.869L270.78 136.66C270.78 136.66 279.36 133.87 280.204 132.115C281.049 130.36 281.288 126.101 282.509 125.985C283.48 125.858 284.462 126.123 285.239 126.723C286.015 127.322 286.523 128.207 286.65 129.182C287.058 131.298 283.971 137.412 284.454 138.063C284.756 138.471 287.836 139.589 290.1 140.37C290.833 140.626 291.482 141.08 291.974 141.683C292.467 142.285 292.784 143.013 292.891 143.785V143.789C292.966 144.31 292.863 144.841 292.6 145.295C292.337 145.75 291.928 146.102 291.44 146.294L289.884 146.897L290.38 148.511C290.557 149.089 290.503 149.715 290.23 150.254C289.956 150.793 289.483 151.205 288.913 151.401L287.708 151.806L288.093 152.789C288.21 153.089 288.263 153.41 288.25 153.732C288.237 154.054 288.157 154.369 288.016 154.659C287.875 154.948 287.675 155.205 287.43 155.413C287.185 155.621 286.9 155.776 286.592 155.868L285.54 156.174L285.583 156.457C285.671 157.023 285.547 157.602 285.236 158.083C284.924 158.563 284.447 158.911 283.896 159.06L282.851 159.335L268.441 154.561C267.088 154.114 265.844 153.389 264.786 152.432L259.999 149.897C259.749 149.762 259.556 149.541 259.454 149.275C259.351 149.009 259.348 148.715 259.443 148.447L263.881 135.621C263.98 135.325 264.191 135.08 264.469 134.94C264.747 134.799 265.069 134.773 265.365 134.868" fill="#FFCE88"/>
<path d="M91.8797 117.367C91.8099 117.167 90.1176 114.258 87.9273 111.098C77.7514 96.3815 62.6618 82.1976 44.9661 82.7316L44.9537 82.6235C52.9544 81.7423 60.7933 83.8813 67.6753 87.6934C79.028 93.8364 90.0895 105.543 96.1408 114.541L91.8797 117.367Z" fill="#FFBE55"/>
<path d="M208.254 99.0048C208.662 97.891 208.828 96.7029 208.742 95.5195C208.663 92.8553 208.41 90.1992 207.983 87.5684C207.766 86.8426 217.46 83.7923 217.46 83.7923C217.46 83.7923 233.013 82.9938 235.328 81.2505C237.643 79.5072 239.59 78.7905 238.511 80.5954C236.557 83.8631 232 88.6533 230.987 89.3084C229.974 89.9635 217.894 93.0118 217.676 93.0118C217.459 93.0118 217.531 100.636 217.531 100.636L208.254 99.0048Z" fill="#F7A491"/>
<path d="M218.345 95.7548C218.345 95.7548 208.275 94.0365 208.091 95.0467C204.022 117.412 203.332 124.804 202.882 125.036C201.35 125.827 179.431 106.518 175.809 105.251C174.076 104.647 172.191 104.748 170.384 104.801C166.077 104.929 167.529 104.826 165.257 104.938V104.942L165.061 104.955L165.085 109.023C169.94 113.408 181.053 179.816 181.988 179.772C183.032 179.723 205 185.275 204.613 183.414C204.547 183.112 189.721 170.932 185.515 153.352C184.103 147.451 183.406 141.096 182.643 135.533C187.524 137.989 206.585 147.406 209.607 146.162C219.005 142.292 218.341 95.7502 218.341 95.7502" fill="#D3D3D3"/>
<path d="M256.174 213.667C256.174 213.667 276.61 229.736 277.292 232.584C278.274 236.688 296.988 231.294 292.475 230.458C291.437 230.267 288.114 229.42 287.841 229.273C286.38 228.487 268.197 206.493 268.197 206.493L256.174 213.667Z" fill="#F7A491"/>
<path d="M301.251 230.459L288.202 229.392C288.202 229.392 284.473 232.491 277.303 232.636C276.595 234.941 276.39 237.373 276.702 239.765C276.796 240.427 276.907 242.431 277.572 242.385C279.983 242.221 286.406 240.616 293.724 239.147C293.724 239.147 303.56 237.056 309.241 233.644C314.922 230.233 301.249 230.458 301.249 230.458" fill="#1E0F00"/>
<path d="M164.603 173.36C175.106 174.786 185.778 174.325 196.12 171.998C215.273 167.5 236.45 163.342 242.653 166.963C247.648 169.878 278.838 217.185 278.838 217.185L266.793 226.007L232.451 187.406C232.451 187.406 188.637 203.634 178.797 201.835C156.385 197.74 156.067 179.773 164.602 173.36" fill="#AEE0FF"/>
<path d="M180.964 163.812L195.938 181.675L168.16 190.171L164.603 173.358L180.964 163.812Z" fill="#AEE0FF"/>
<path d="M211.395 245.406C211.395 245.406 210.482 270.217 209.92 274.419C209.359 278.601 220.41 291.203 218.998 286.82C218.672 285.811 217.836 282.474 217.835 282.163C217.828 280.5 221.934 252.196 221.934 252.196L211.395 245.406Z" fill="#F7A491"/>
<path d="M223.168 294.57L217.904 282.538C217.904 282.538 213.415 280.716 209.882 274.454C207.525 274.923 205.296 275.898 203.348 277.31C202.811 277.708 199.156 280.389 199.41 281.01C200.348 283.289 205.325 288.17 210.766 293.5C210.766 293.5 218.48 299.746 224.17 303.143C229.86 306.54 223.166 294.57 223.166 294.57" fill="#1E0F00"/>
<path d="M235.653 196.489C230.419 189.483 188.184 182.831 188.184 182.831L176.407 160.109L150.367 176.23C150.367 176.23 152.97 197.03 154.925 202.588C157.529 209.995 175.03 210.372 185.719 210.262C195.555 210.161 213.522 212.174 213.522 212.174L207.446 265.981C207.446 265.981 219.389 268.709 222.745 268.268C223.125 268.218 242.169 205.202 235.659 196.489" fill="#CCE9FF"/>
<path d="M165.209 104.995L150.517 105.803C150.517 105.803 150.181 105.923 150.078 105.941C148.881 106.164 149.968 149.143 151.036 165.196C152.104 181.249 154.269 187.994 154.269 187.994C154.269 187.994 174.196 184.443 180.309 182.06C182.847 181.072 188.989 173.363 188.989 173.363C188.989 173.363 182.714 164.894 179.552 151.138C177.114 140.529 174.108 121.723 172.387 117.793C168.435 108.777 165.208 104.995 165.208 104.995" fill="white"/>
<path d="M150.939 92.7968L150.522 105.818C150.522 105.818 160.033 122.268 164.916 119.977C169.013 118.053 165.376 105.54 165.376 105.54C165.376 105.54 164.666 102.671 163.682 99.3747C162.966 97.233 162.556 94.9999 162.465 92.7424C162.567 88.2922 150.938 92.7941 150.938 92.7941" fill="#F7A491"/>
<path d="M162.301 63.0972C162.301 63.0972 167.147 70.4345 167.509 76.6037C167.763 80.0932 167.446 83.601 166.569 86.9873L151.016 68.3257L162.301 63.0972Z" fill="#1E0F00"/>
<path d="M169.12 75.3407C169.339 77.5026 168.502 79.3578 167.25 79.4856C165.999 79.6133 164.807 77.9657 164.588 75.8045C164.368 73.6432 165.205 71.7873 166.457 71.6589C167.708 71.5305 168.9 73.1788 169.12 75.34" fill="#F48C7F"/>
<path d="M145.984 71.3149C145.628 71.2389 145.662 89.2048 150.85 93.4322C156.038 97.6597 165.067 98.0311 167.704 93.7729C170.621 89.0626 167.846 70.1317 160.133 66.1106C152.42 62.0895 145.987 71.3149 145.987 71.3149" fill="#F7A491"/>
<path d="M144.668 60.1746C140.708 63.6605 138.791 66.2062 136.111 72.403C132.816 80.0226 139.353 87.9167 144.835 91.0541C150.316 94.1914 150.781 98.0422 150.781 98.0422L150.998 95.6458C151.165 94.2396 150.867 92.8174 150.15 91.5979C149.683 90.5968 148.185 87.166 147.6 86.2606C146.058 83.8728 145.754 83.3559 146.515 81.0852C147.102 79.338 146.422 75.4873 147.328 72.6074L154.707 71.0102C154.707 71.0102 159.325 69.8965 161.656 67.1961C168.351 59.4435 155.114 50.7979 144.67 60.1726" fill="#1E0F00"/>
<path d="M148.268 83.0534C149.177 85.0246 148.986 87.0536 147.847 87.5836C146.707 88.1135 145.04 86.9454 144.134 84.9742C143.229 83.003 143.417 80.9741 144.556 80.4441C145.696 79.9141 147.362 81.0822 148.268 83.0534Z" fill="#F7A491"/>
<path d="M48.8917 89.4902L47.6948 81.2141L53.8087 75.5323C53.9655 75.3864 54.0785 75.1994 54.1349 74.9923C54.1912 74.7853 54.1887 74.5665 54.1276 74.3609C54.0664 74.1552 53.9491 73.9709 53.7889 73.8287C53.6288 73.6865 53.4322 73.5922 53.2213 73.5565L45.0098 72.1414L41.5169 64.5492C41.4274 64.3545 41.2853 64.1889 41.1069 64.071C40.9284 63.9531 40.7206 63.8877 40.5071 63.8822C40.2935 63.8767 40.0827 63.9313 39.8984 64.0398C39.7141 64.1483 39.5638 64.3064 39.4644 64.4962L35.5864 71.899L27.3135 72.8889C27.1014 72.9142 26.9006 72.9986 26.7337 73.1325C26.5669 73.2665 26.4407 73.4446 26.3695 73.6468C26.2982 73.849 26.2848 74.0671 26.3306 74.2765C26.3765 74.486 26.4798 74.6784 26.6289 74.8319L32.4439 80.8217L30.8247 89.0257C30.7832 89.2363 30.8012 89.4543 30.8767 89.6551C30.9522 89.856 31.0822 90.0316 31.252 90.1621C31.4218 90.2926 31.6246 90.3727 31.8374 90.3935C32.0503 90.4143 32.2647 90.3748 32.4563 90.2796L39.9277 86.5795L47.2001 90.6602C47.3865 90.7649 47.5984 90.8151 47.8119 90.8052C48.0253 90.7953 48.2316 90.7256 48.4076 90.6041C48.5837 90.4825 48.7223 90.314 48.8078 90.1175C48.8934 89.921 48.9224 89.7043 48.8917 89.4921" fill="#FFBE55"/>
<path d="M97.9904 33.4934C98.829 36.9517 100.34 42.4173 100.34 42.4173C100.22 43.9195 99.7779 50.1732 99.2519 57.8374L110.477 53.3289C110.477 53.3289 110.343 40.8405 110.843 40.0766C111.267 39.43 111.978 40.2371 115.418 35.2943C116.411 33.8681 116.597 31.3197 116.597 31.3197C116.597 31.3197 116.801 28.183 116.1 27.8915C115.769 27.7796 115.409 27.7908 115.085 27.9231C114.762 28.0554 114.497 28.2999 114.338 28.6121C114.083 29.1539 114.149 30.4163 113.895 30.9587C113.641 31.5012 112.018 32.1537 111.334 32.1196C110.651 32.0855 111.42 22.8412 111.42 22.8412C111.42 22.8412 111.802 20.2207 111.995 19.3619C112.16 18.6308 112.823 16.4859 112.823 16.4859C112.823 16.4859 113.601 13.3748 112.639 13.137C112.072 12.9968 110.626 15.5249 109.637 18.2076C108.57 21.0966 107.965 24.1606 107.659 24.1193C106.941 24.0224 107.322 18.9544 107.322 18.9544C107.676 17.8436 107.91 16.6977 108.019 15.5367C108.693 14.1943 109.141 11.7036 107.954 11.4979C107.734 11.4599 106.17 14.6234 106.17 14.6234C106.17 14.6234 105.555 16.8508 105.196 17.8918C104.564 19.7261 104.468 22.6276 104.138 23.9064C103.863 24.9697 103.616 24.5327 103.503 24.5773C103.509 23.4235 103.589 22.2714 103.743 21.1281C103.737 20.0092 103.822 18.8918 103.999 17.787C104.244 16.6235 104.405 15.4436 104.479 14.2566C104.671 11.6361 103.027 11.9034 102.456 14.2998C102.239 15.213 102.011 16.2095 101.784 17.2197C100.901 21.1503 100.926 24.9356 100.504 24.9677C99.9555 25.0083 100.316 18.1146 100.316 18.1146C100.316 18.1146 99.4751 14.2992 98.6398 17.8401C98.0416 20.3306 97.7544 22.8862 97.7848 25.4479C97.8729 26.4516 97.1511 30.0383 97.9891 33.4966" fill="#F8A492"/>
<path d="M150.504 105.826C150.504 105.826 135.957 105.138 132.199 103.431C129.921 102.396 111.204 87.2573 111.204 87.2573L111.414 46.7227L98.2501 45.7178C98.2501 45.7178 91.4248 90.5211 93.7886 95.4259C96.2302 100.491 123.628 121.34 129.107 130.387C132.264 135.6 138.847 206.488 139.843 207.126C146.932 210.829 168.824 214.528 168.308 212.281C154.057 150.197 150.504 105.825 150.504 105.825" fill="#D3D3D3"/>
<path d="M259.321 44.2672C259.321 52.9587 256.754 61.4549 251.943 68.6815C247.133 75.9082 240.295 81.5407 232.296 84.8667C224.297 88.1927 215.494 89.063 207.002 87.3673C198.51 85.6716 190.709 81.4863 184.587 75.3405C178.464 69.1946 174.295 61.3644 172.606 52.84C170.917 44.3155 171.784 35.4798 175.097 27.45C178.411 19.4202 184.022 12.557 191.221 7.72843C198.421 2.89983 206.885 0.322624 215.544 0.322754C221.293 0.322754 226.985 1.45942 232.297 3.66784C237.608 5.87627 242.434 9.11322 246.499 13.1938C250.564 17.2745 253.789 22.1189 255.989 27.4505C258.189 32.7821 259.321 38.4964 259.321 44.2672Z" fill="#FFCE88"/>
<path d="M252.279 44.2672C252.279 51.5604 250.125 58.6899 246.088 64.754C242.052 70.8181 236.314 75.5445 229.602 78.3354C222.889 81.1264 215.503 81.8566 208.377 80.4337C201.251 79.0108 194.705 75.4988 189.567 70.3416C184.43 65.1845 180.931 58.6139 179.514 51.4608C178.096 44.3077 178.824 36.8933 181.604 30.1552C184.385 23.4172 189.094 17.6582 195.135 13.6063C201.176 9.55454 208.279 7.39196 215.544 7.39209C225.287 7.39226 234.631 11.2774 241.52 18.1928C248.409 25.1082 252.279 34.4874 252.279 44.2672Z" fill="#FFBE55"/>
<path d="M204.167 67.9438L206.255 62.1565C203.826 61.1483 201.54 59.8218 199.458 58.2114C198.711 57.6251 198.215 56.7755 198.069 55.8351C197.924 54.8947 198.14 53.934 198.675 53.148L198.809 52.9515C199.097 52.5243 199.47 52.1615 199.905 51.8862C200.339 51.6108 200.826 51.4287 201.334 51.3513C201.842 51.274 202.361 51.303 202.858 51.4367C203.354 51.5704 203.818 51.8057 204.219 52.128C206.069 53.639 208.154 54.8342 210.391 55.6656C213.85 56.9248 216.701 56.4459 217.581 54.0088C218.418 51.6943 217.003 49.5252 213.063 46.3676C207.361 41.8113 204.031 37.1527 206.166 31.2436C208.102 25.8828 213.383 23.0488 220.339 24.133L222.427 18.3457L228.375 20.5076L226.439 25.8684C228.284 26.6144 230.044 27.5589 231.687 28.6854C232.085 28.9724 232.423 29.3353 232.681 29.7534C232.939 30.1715 233.113 30.6366 233.193 31.1221C233.272 31.6076 233.255 32.1041 233.144 32.5832C233.032 33.0622 232.827 33.5145 232.541 33.9142C232.255 34.3138 231.894 34.653 231.477 34.9124C231.061 35.1719 230.597 35.3464 230.114 35.426C229.63 35.5057 229.135 35.4889 228.658 35.3767C228.181 35.2645 227.73 35.059 227.332 34.772C225.785 33.6315 224.082 32.7224 222.275 32.073C218.33 30.6376 216.44 31.8764 215.824 33.585C215.098 35.5955 216.759 37.6467 221.214 41.4745C227.512 46.6617 229.214 51.0726 227.234 56.5553C225.276 61.977 219.78 65.2152 212.361 63.8926L210.116 70.1063L204.167 67.9438Z" fill="white"/>
<path d="M214.422 88.4398C214.422 88.4398 218.473 86.6972 219.557 86.3343C220.642 85.9713 224.115 85.3175 224.115 85.3175C224.115 85.3175 229.504 79.7628 230.879 79.618C232.254 79.4732 227.732 85.6811 227.732 85.6811L225.851 87.4964C225.851 87.4964 228.89 84.8819 229.468 84.519C230.047 84.156 234.605 77.5479 235.762 77.9835C236.92 78.4192 233.809 83.0666 232.29 85.5357C230.77 88.0048 223.826 89.5319 223.826 89.5319L214.422 88.4398Z" fill="#F7A491"/>
<path d="M262.835 106.377C262.827 107.466 238.227 107.767 233.128 129.664L229.849 128.586C237.159 106.326 261.513 107.223 262.706 106.404C262.715 106.397 262.723 106.39 262.729 106.381L262.835 106.377Z" fill="#FFBE55"/>
<path d="M366.352 247.249L367.2 244.329C371.673 243.481 375.523 240.425 376.794 236.045C377.205 234.681 377.504 233.285 377.687 231.872L371.694 230.123L372.76 226.444L378.171 228.023C378.389 225.83 378.786 223.658 379.356 221.529C381.352 214.638 387.366 211.517 393.824 213.401C395.356 213.823 396.814 214.48 398.146 215.35C398.606 215.666 398.924 216.151 399.032 216.701C399.14 217.25 399.029 217.82 398.723 218.288C398.417 218.756 397.94 219.085 397.395 219.205C396.85 219.324 396.28 219.224 395.807 218.927C394.813 218.326 393.742 217.862 392.624 217.547C388.086 216.223 385.314 218.834 384.111 222.98C383.527 225.088 383.155 227.249 383.001 229.432L391.379 231.876L390.314 235.555L382.402 233.247C382.044 235.506 381.326 237.691 380.275 239.72C378.913 242.005 376.87 243.802 374.434 244.855L374.4 244.972L389.69 249.433C390.233 249.591 390.691 249.96 390.963 250.457C391.236 250.954 391.3 251.54 391.142 252.085L391.097 252.239C391.019 252.508 390.889 252.76 390.714 252.979C390.539 253.198 390.323 253.381 390.077 253.516C389.832 253.652 389.563 253.737 389.285 253.768C389.006 253.798 388.725 253.774 388.456 253.695L366.352 247.249Z" fill="#FFBE55"/>
</svg>
