<svg width="318" height="318" viewBox="0 0 318 318" fill="none" xmlns="http://www.w3.org/2000/svg">
<path d="M203.906 63.1206C211.585 63.2089 219.264 64.8608 226.222 68.1379C231.159 70.464 235.644 73.5115 239.233 77.3658C246.412 85.0773 249.247 96.3634 244.348 104.835C240.258 111.904 231.26 116.972 231.154 125.11C231.027 134.591 243.058 140.91 253.543 142.871C264.031 144.829 275.791 145.206 283.665 151.963C290.44 157.779 292.248 167.095 289.995 174.892C287.743 182.689 282.042 189.181 275.694 194.728C259.788 208.629 239.374 217.769 218.451 224.977C174.24 240.202 126.287 247.628 77.9865 246.721C65.9261 246.495 52.4582 245.193 44.0017 237.061C35.4746 228.863 35.2008 215.872 40.7805 206.483C46.3602 197.093 56.6304 190.783 67.3571 186.187C78.0837 181.59 89.5906 178.378 100.032 173.322C107.914 169.506 116.002 162.21 112.651 154.387C110.272 148.83 103.285 146.148 97.1342 143.89C88.4452 140.698 79.7914 136.982 72.6894 131.367C65.5874 125.752 60.1343 117.964 59.5926 109.705C59.0861 101.993 62.9109 94.6379 68.5584 89.1171C74.2088 83.5963 81.5669 79.7037 89.1077 76.3794C118.894 63.256 183.174 62.8762 203.906 63.1206Z" fill="#F7F7F7"/>
<path d="M114.33 133.236L111.006 132.206C111.006 132.206 105.411 127.789 103.35 128.083C101.289 128.378 97.1666 128.967 97.1666 128.967C97.1666 128.967 100.111 134.267 100.994 135.445C104.528 135.15 109.828 135.739 109.828 135.739L116.894 136.622L116.011 133.089L114.33 133.236Z" fill="#FCD2B1"/>
<path d="M295.605 302.574H28.2844C26.4942 302.574 25.0278 301.107 25.0278 299.317V282.386C25.0278 280.596 26.4942 279.13 28.2844 279.13H295.608C297.398 279.13 298.864 280.596 298.864 282.386V299.317C298.861 301.107 297.395 302.574 295.605 302.574Z" fill="#F2F2F2"/>
<path d="M182.473 283.5H273.58C281.23 283.5 287.431 277.299 287.431 269.649V82.2647C287.431 74.6151 281.23 68.4141 273.58 68.4141H182.473C174.823 68.4141 168.622 74.6151 168.622 82.2647V269.646C168.622 277.299 174.823 283.5 182.473 283.5Z" fill="#B6E7FF"/>
<path d="M183.624 276.946H272.432C277.096 276.946 280.876 273.165 280.876 268.501V83.8255C280.876 79.1615 277.096 75.3809 272.432 75.3809H183.624C178.96 75.3809 175.18 79.1615 175.18 83.8255V268.498C175.177 273.162 178.96 276.946 183.624 276.946Z" fill="white"/>
<path d="M261.826 74.5586L256.296 81.5958C254.088 84.4078 250.84 86.0272 247.422 86.0272H209.044C205.625 86.0272 202.378 84.4048 200.169 81.5958L194.64 74.5586H261.826Z" fill="#B6E7FF"/>
<path d="M157.528 105.705H306.517C308.46 105.705 310.05 107.295 310.05 109.238V141.627C310.05 143.571 308.46 145.161 306.517 145.161H157.528C155.584 145.161 153.994 143.571 153.994 141.627V109.238C153.994 107.295 155.584 105.705 157.528 105.705Z" stroke="#6EC1FF" stroke-miterlimit="10"/>
<path d="M153.406 102.172H302.394C304.338 102.172 305.928 103.762 305.928 105.705V138.094C305.928 140.037 304.338 141.627 302.394 141.627H153.406C151.462 141.627 149.872 140.037 149.872 138.094V105.705C149.872 103.762 151.462 102.172 153.406 102.172Z" fill="#6EC1FF"/>
<path d="M164.715 148.868C179.609 148.868 191.683 136.794 191.683 121.9C191.683 107.006 179.609 94.9316 164.715 94.9316C149.821 94.9316 137.747 107.006 137.747 121.9C137.747 136.794 149.821 148.868 164.715 148.868Z" fill="#CCE9FF" stroke="white" stroke-width="8" stroke-miterlimit="10"/>
<path d="M297.536 114.245H199.781C198.406 114.245 197.278 113.12 197.278 111.742C197.278 110.364 198.406 109.239 199.781 109.239H297.536C298.911 109.239 300.039 110.364 300.039 111.742C300.039 113.12 298.911 114.245 297.536 114.245Z" fill="white"/>
<path d="M268.51 124.55H199.781C198.406 124.55 197.278 123.426 197.278 122.048C197.278 120.67 198.406 119.545 199.781 119.545H268.51C269.885 119.545 271.013 120.67 271.013 122.048C271.013 123.426 269.885 124.55 268.51 124.55Z" stroke="white" stroke-miterlimit="10"/>
<path d="M268.51 134.855H199.781C198.406 134.855 197.278 133.73 197.278 132.352C197.278 130.974 198.406 129.85 199.781 129.85H268.51C269.885 129.85 271.013 130.974 271.013 132.352C271.013 133.73 269.885 134.855 268.51 134.855Z" stroke="white" stroke-miterlimit="10"/>
<path d="M183.566 153.848H272.488C274.431 153.848 276.021 155.438 276.021 157.381V176.814C276.021 178.758 274.431 180.348 272.488 180.348H183.566C181.622 180.348 180.032 178.758 180.032 176.814V157.381C180.032 155.438 181.622 153.848 183.566 153.848Z" fill="#CCE9FF"/>
<path d="M193.744 176.373C198.786 176.373 202.872 172.286 202.872 167.245C202.872 162.204 198.786 158.117 193.744 158.117C188.703 158.117 184.617 162.204 184.617 167.245C184.617 172.286 188.703 176.373 193.744 176.373Z" fill="#6EC1FF"/>
<path d="M271.036 163.417H208.32C207.427 163.417 206.7 162.689 206.7 161.797C206.7 160.905 207.427 160.178 208.32 160.178H271.036C271.928 160.178 272.656 160.905 272.656 161.797C272.656 162.689 271.928 163.417 271.036 163.417Z" fill="white"/>
<path d="M242.098 169.011H208.32C207.427 169.011 206.7 168.284 206.7 167.392C206.7 166.5 207.427 165.772 208.32 165.772H242.098C242.99 165.772 243.718 166.5 243.718 167.392C243.718 168.284 242.987 169.011 242.098 169.011Z" stroke="white" stroke-miterlimit="10"/>
<path d="M242.181 174.754H208.402C207.51 174.754 206.782 174.026 206.782 173.134C206.782 172.242 207.51 171.515 208.402 171.515H242.181C243.073 171.515 243.8 172.242 243.8 173.134C243.8 174.026 243.073 174.754 242.181 174.754Z" stroke="white" stroke-miterlimit="10"/>
<path d="M183.566 189.622H272.488C274.431 189.622 276.021 191.212 276.021 193.155V212.589C276.021 214.532 274.431 216.122 272.488 216.122H183.566C181.622 216.122 180.032 214.532 180.032 212.589V193.155C180.032 191.212 181.622 189.622 183.566 189.622Z" fill="#CCE9FF"/>
<path d="M193.744 212.147C198.786 212.147 202.872 208.061 202.872 203.019C202.872 197.978 198.786 193.892 193.744 193.892C188.703 193.892 184.617 197.978 184.617 203.019C184.617 208.061 188.703 212.147 193.744 212.147Z" fill="#6EC1FF"/>
<path d="M271.036 199.192H208.32C207.427 199.192 206.7 198.465 206.7 197.573C206.7 196.68 207.427 195.953 208.32 195.953H271.036C271.928 195.953 272.656 196.68 272.656 197.573C272.656 198.465 271.928 199.192 271.036 199.192Z" fill="white"/>
<path d="M242.098 204.786H208.32C207.427 204.786 206.7 204.058 206.7 203.166C206.7 202.274 207.427 201.547 208.32 201.547H242.098C242.99 201.547 243.718 202.274 243.718 203.166C243.718 204.058 242.987 204.786 242.098 204.786Z" stroke="white" stroke-miterlimit="10"/>
<path d="M242.181 210.528H208.402C207.51 210.528 206.782 209.801 206.782 208.909C206.782 208.016 207.51 207.289 208.402 207.289H242.181C243.073 207.289 243.8 208.016 243.8 208.909C243.8 209.801 243.073 210.528 242.181 210.528Z" stroke="white" stroke-miterlimit="10"/>
<path d="M183.566 225.397H272.488C274.431 225.397 276.021 226.987 276.021 228.931V248.364C276.021 250.307 274.431 251.897 272.488 251.897H183.566C181.622 251.897 180.032 250.307 180.032 248.364V228.931C180.032 226.987 181.622 225.397 183.566 225.397Z" fill="#CCE9FF"/>
<path d="M193.744 247.923C198.786 247.923 202.872 243.836 202.872 238.795C202.872 233.754 198.786 229.667 193.744 229.667C188.703 229.667 184.617 233.754 184.617 238.795C184.617 243.836 188.703 247.923 193.744 247.923Z" fill="#6EC1FF"/>
<path d="M271.036 234.966H208.32C207.427 234.966 206.7 234.239 206.7 233.347C206.7 232.455 207.427 231.728 208.32 231.728H271.036C271.928 231.728 272.656 232.455 272.656 233.347C272.656 234.239 271.928 234.966 271.036 234.966Z" fill="white"/>
<path d="M242.098 240.561H208.32C207.427 240.561 206.7 239.834 206.7 238.942C206.7 238.05 207.427 237.322 208.32 237.322H242.098C242.99 237.322 243.718 238.05 243.718 238.942C243.718 239.834 242.987 240.561 242.098 240.561Z" stroke="white" stroke-miterlimit="10"/>
<path d="M242.181 246.303H208.402C207.51 246.303 206.782 245.576 206.782 244.684C206.782 243.792 207.51 243.064 208.402 243.064H242.181C243.073 243.064 243.8 243.792 243.8 244.684C243.8 245.576 243.073 246.303 242.181 246.303Z" stroke="white" stroke-miterlimit="10"/>
<path d="M195.069 270.152H261.025C261.835 270.152 262.497 270.815 262.497 271.625C262.497 272.434 261.835 273.097 261.025 273.097H195.069C194.26 273.097 193.597 272.434 193.597 271.625C193.597 270.815 194.26 270.152 195.069 270.152Z" fill="#B6E7FF"/>
<path d="M162.46 132.011C168.425 131.599 179.122 131.702 181.384 145.794C163.178 151.863 152.381 149.598 146.415 144.56C147.443 134.685 152.79 133.348 162.46 132.011Z" fill="#2A94F4"/>
<path d="M153.921 109.074C153.185 106.607 154.265 103.842 156.162 102.102C158.058 100.362 160.64 99.5314 163.196 99.2429C165.207 99.0162 167.286 99.1015 169.197 99.767C171.108 100.432 172.848 101.719 173.816 103.498C174.879 105.45 174.935 107.77 175.091 109.987C175.247 112.204 175.598 114.563 177.076 116.223C178.26 117.554 179.988 118.232 181.557 119.077C183.875 120.325 185.95 122.024 187.632 124.053C188.974 125.675 190.084 127.551 190.458 129.621C190.832 131.694 190.391 133.978 188.966 135.527C187.649 136.961 185.691 137.606 183.786 138.012C181.843 138.428 179.791 138.648 177.894 138.059C175.792 137.406 174.09 135.807 172.851 133.984C171.611 132.165 170.772 130.107 169.862 128.101C168.693 125.528 167.362 122.969 165.348 120.988C163.213 118.888 160.449 117.566 158.081 115.735C155.714 113.903 153.632 111.221 153.844 108.235" fill="#0B4870"/>
<path d="M151 113.562C151.556 108.459 151.927 107.626 156.379 105.211C159.883 103.312 179.794 105.815 168.181 122.074C158.402 119.707 151 113.562 151 113.562Z" fill="#0B4870"/>
<path d="M170.424 119.264C171.056 118.062 171.016 116.798 170.336 116.44C169.655 116.082 168.591 116.766 167.958 117.967C167.326 119.169 167.366 120.434 168.047 120.792C168.727 121.15 169.792 120.466 170.424 119.264Z" fill="#FFE3CA"/>
<path d="M158.329 125.622C158.794 127.848 159.627 131.743 158.329 133.878C159.35 136.846 161.391 138.424 161.391 138.424L168.349 134.249C168.349 134.249 163.526 126.549 165.286 123.487C164.73 122.003 158.329 125.622 158.329 125.622Z" fill="#FCD2B1"/>
<path d="M151.185 117.272C151.185 123.011 154.027 127.848 158.794 127.848C163.558 127.848 169.276 123.105 169.276 117.366C169.276 111.627 164.577 106.884 159.813 106.884C155.049 106.884 151.185 111.533 151.185 117.272Z" fill="#FFE3CA"/>
<path d="M168.672 122.931C169.416 122.931 170.018 122.329 170.018 121.586C170.018 120.843 169.416 120.24 168.672 120.24C167.929 120.24 167.327 120.843 167.327 121.586C167.327 122.329 167.929 122.931 168.672 122.931Z" fill="#FFBE55"/>
<path d="M153.202 108.869C153.718 110.721 160.917 118.638 171.817 119.154C170.79 109.59 168.422 103.536 162.51 104.917C156.597 106.298 153.202 108.869 153.202 108.869Z" fill="#0B4870"/>
<path d="M153.544 133.887C147.278 135.795 119.218 132.524 111.862 131.435C111.044 134.703 112.136 137.156 112.136 137.156C112.136 137.156 136.917 141.628 151.933 144.278C164.595 146.634 153.544 133.887 153.544 133.887Z" fill="#2A94F4"/>
<path d="M93.9278 143.983C101.896 143.983 108.356 137.524 108.356 129.556C108.356 121.587 101.896 115.128 93.9278 115.128C85.9595 115.128 79.5 121.587 79.5 129.556C79.5 137.524 85.9595 143.983 93.9278 143.983Z" fill="#0E538C"/>
<path d="M87.8946 127.686H91.955V123.104C91.955 122.062 92.8 121.22 93.8394 121.22H94.0131C95.0555 121.22 95.8976 122.065 95.8976 123.104V127.686H99.958C101 127.686 101.842 128.531 101.842 129.57C101.842 130.613 100.997 131.455 99.958 131.455H95.9005V136.007C95.9005 137.049 95.0555 137.891 94.0161 137.891H93.8423C92.8 137.891 91.9579 137.046 91.9579 136.007V131.455H87.8975C86.8552 131.455 86.0131 130.61 86.0131 129.57C86.0101 128.528 86.8552 127.686 87.8946 127.686Z" fill="white"/>
<path d="M108.576 130.448C107.472 129.556 105.117 128.378 103.939 127.789C103.35 128.084 106.883 132.5 108.356 132.5C109.828 132.206 108.576 130.448 108.576 130.448Z" fill="#FCD2B1"/>
<path d="M199.781 177.256C201.488 177.256 202.872 175.871 202.872 174.164C202.872 172.456 201.488 171.072 199.781 171.072C198.073 171.072 196.689 172.456 196.689 174.164C196.689 175.871 198.073 177.256 199.781 177.256Z" fill="#0E538C"/>
<path d="M198.488 173.764H199.359V172.78C199.359 172.557 199.539 172.377 199.763 172.377H199.801C200.025 172.377 200.204 172.557 200.204 172.78V173.764H201.073C201.297 173.764 201.476 173.943 201.476 174.167C201.476 174.391 201.297 174.571 201.073 174.571H200.204V175.545C200.204 175.769 200.025 175.949 199.801 175.949H199.763C199.539 175.949 199.359 175.769 199.359 175.545V174.571H198.488C198.264 174.571 198.084 174.391 198.084 174.167C198.084 173.943 198.264 173.764 198.488 173.764Z" fill="white"/>
<path d="M199.781 213.177C201.488 213.177 202.872 211.793 202.872 210.086C202.872 208.378 201.488 206.994 199.781 206.994C198.073 206.994 196.689 208.378 196.689 210.086C196.689 211.793 198.073 213.177 199.781 213.177Z" fill="#0E538C"/>
<path d="M198.488 209.686H199.359V208.702C199.359 208.478 199.539 208.299 199.763 208.299H199.801C200.025 208.299 200.204 208.478 200.204 208.702V209.686H201.073C201.297 209.686 201.476 209.865 201.476 210.089C201.476 210.313 201.297 210.492 201.073 210.492H200.204V211.467C200.204 211.691 200.025 211.87 199.801 211.87H199.763C199.539 211.87 199.359 211.691 199.359 211.467V210.492H198.488C198.264 210.492 198.084 210.313 198.084 210.089C198.084 209.865 198.264 209.686 198.488 209.686Z" fill="white"/>
<path d="M199.781 249.1C201.488 249.1 202.872 247.716 202.872 246.009C202.872 244.301 201.488 242.917 199.781 242.917C198.073 242.917 196.689 244.301 196.689 246.009C196.689 247.716 198.073 249.1 199.781 249.1Z" fill="#0E538C"/>
<path d="M198.488 245.609H199.359V244.625C199.359 244.401 199.539 244.222 199.763 244.222H199.801C200.025 244.222 200.204 244.401 200.204 244.625V245.609H201.073C201.297 245.609 201.476 245.788 201.476 246.012C201.476 246.236 201.297 246.415 201.073 246.415H200.204V247.39C200.204 247.614 200.025 247.793 199.801 247.793H199.763C199.539 247.793 199.359 247.614 199.359 247.39V246.415H198.488C198.264 246.415 198.084 246.236 198.084 246.012C198.084 245.788 198.264 245.609 198.488 245.609Z" fill="white"/>
<path d="M68.9352 281.297L81.1311 287.852H63.1494V281.177L68.6526 279.463L68.9352 281.297Z" fill="#063149"/>
<path d="M67.098 199.023C67.098 199.023 72.5923 238.717 72.4009 241.223C72.2125 243.729 68.9353 281.3 68.9353 281.3H63.1672C63.1672 281.3 58.5738 253.337 61.795 243.417C59.3335 230.279 54.219 202.053 54.219 202.053L67.098 199.023Z" fill="#093E5B"/>
<path d="M38.0009 281.298L49.5402 287.973H31.5555V281.298L37.4062 279.79L38.0009 281.298Z" fill="#063149"/>
<path d="M64.0534 201.488L57.9348 208.305C57.9348 208.305 54.2837 240.479 52.888 243.417C51.4924 246.356 38.0009 281.3 38.0009 281.3H31.5585C31.5585 281.3 36.9939 246.076 41.4253 241.889C40.8217 231.46 42.0289 195.823 42.0289 195.823L64.0534 201.488Z" fill="#0B4870"/>
<path d="M84.7823 182.894L86.5872 183.221C86.5872 183.221 87.1614 181.908 88.9663 182.073C90.7713 182.238 91.9196 183.221 91.9196 183.221C91.9196 183.221 89.6229 187.709 88.9663 188.377C88.3097 189.045 86.3428 186.758 86.3428 186.758L83.7988 186.039L84.7823 182.894Z" fill="#FFE3CA"/>
<path d="M63.544 151.612C63.544 151.612 72.0269 181.104 85.698 182.19C84.7204 185.662 84.2876 186.748 84.2876 186.748C84.2876 186.748 74.5916 187.617 63.544 173.619C62.696 158.211 63.544 151.612 63.544 151.612Z" fill="#46ADF9"/>
<path d="M70.4546 181.808C70.4546 181.808 72.7454 179.164 74.1558 178.81C75.5662 178.457 79.5324 177.135 79.5324 177.135C79.5324 177.135 79.2674 177.753 78.7403 178.192C78.2103 178.633 76.1845 179.867 76.1845 179.867C76.1845 179.867 76.3612 183.48 76.0962 183.922C75.8312 184.363 69.3976 186.036 69.3976 186.036L70.4546 181.808Z" fill="#FFE3CA"/>
<path d="M80.5569 167.468H95.9417L97.6877 168.148L86.4282 195.708L70.1189 196.388L69.7067 195.708L80.5569 167.468Z" fill="#E8A442"/>
<path d="M80.9692 168.148H97.6877L86.8404 196.389H70.1189L80.9692 168.148Z" fill="#FFBE55"/>
<path d="M86.1154 183.63C86.8073 181.946 86.789 180.342 86.0745 180.049C85.36 179.755 84.2199 180.883 83.528 182.568C82.8361 184.252 82.8544 185.856 83.5689 186.149C84.2834 186.443 85.4235 185.315 86.1154 183.63Z" fill="#F7F7F7"/>
<path d="M46.9461 149.716C46.9461 149.716 38.0539 152.469 36.9527 153.205C35.8485 153.941 42.9564 185.927 42.9564 185.927L39.2788 198.794C41.1161 200.51 54.7195 207.986 68.9352 200.019C67.7104 191.807 63.544 151.612 63.544 151.612L46.9461 149.716Z" fill="#2A94F4"/>
<path d="M63.5794 128.416C64.3891 130.633 64.498 134.956 62.3898 134.956C60.0667 133.174 63.5794 128.416 63.5794 128.416Z" fill="#0E538C"/>
<path d="M51.7191 122.064C45.789 123.64 43.9899 128.374 44.5582 133.392C45.1265 138.409 45.839 143.618 47.803 144.377C49.7669 145.134 54.9285 137.655 54.9285 137.655L51.7191 122.064Z" fill="#0E538C"/>
<path d="M54.9286 145.099V152.098C54.1453 154.918 50.3647 155.428 48.8601 152.916L46.9462 149.715L47.803 139.849L54.9286 145.099Z" fill="#FCD2B1"/>
<path d="M62.8874 130.017C62.8874 130.017 63.3821 142.893 59.9165 145.367C56.4509 147.843 51.0037 145.367 47.538 140.414C45.5564 133.483 49.025 128.036 51.0037 127.044C52.9853 126.057 62.8874 130.017 62.8874 130.017Z" fill="#FFE3CA"/>
<path d="M62.9138 130.403C67.413 129.623 67.3452 124.076 65.8612 121.6C63.8796 123.087 61.4033 124.076 61.4033 124.076C61.4033 124.076 63.385 123.087 62.8903 121.6C60.9087 122.094 52.4905 120.61 49.5196 123.087C46.5486 125.563 48.0326 130.515 49.5196 131.01C51.0036 131.505 62.9138 130.403 62.9138 130.403Z" fill="#0E538C"/>
<path d="M51.1979 129.564L46.9462 136.451C46.9462 136.451 45.8567 128.166 46.104 128.083C46.3514 128.001 51.1979 129.564 51.1979 129.564Z" fill="#0E538C"/>
<path d="M47.4703 136.027C46.7489 134.905 45.4357 135.349 45.2885 135.72C44.9322 136.639 45.6595 139.966 47.7707 140.649C48.9455 139.392 47.4703 136.027 47.4703 136.027Z" fill="#FFE3CA"/>
<path d="M36.9498 153.205C34.1614 156.603 32.6273 198.644 71.1554 186.021C71.1554 185.252 71.1554 180.971 71.1554 180.971C71.1554 180.971 45.2031 192.54 42.4706 159.436C41.0426 154.165 36.9498 153.205 36.9498 153.205Z" fill="#46ADF9"/>
<path d="M93.2917 179.674C93.2917 179.674 90.0558 179.582 89.723 179.965C89.3903 180.348 88.133 185.38 88.6365 185.931C89.14 186.481 91.8342 186.59 91.8342 186.59L94.0985 180.274L93.2917 179.674Z" fill="#FCD2B1"/>
<path d="M24.2092 104.322L25.4047 104.087C27.4275 103.686 29.3767 105.041 29.7124 107.072L32.4272 123.588C32.7452 125.531 31.4673 127.374 29.5357 127.757L29.4032 127.784C27.4717 128.166 25.5872 126.947 25.1426 125.028L21.3649 108.721C20.8967 106.716 22.1864 104.72 24.2092 104.322ZM29.9479 131.193L30.3307 131.117C32.3064 130.725 34.2262 132.012 34.6178 133.988C35.0094 135.963 33.7227 137.883 31.747 138.275L31.3642 138.351C29.3885 138.743 27.4687 137.456 27.0771 135.48C26.6855 133.505 27.9693 131.585 29.9479 131.193Z" stroke="#FFBE55" stroke-miterlimit="10"/>
<path d="M25.3134 102.609L26.5089 102.373C28.5317 101.973 30.4809 103.327 30.8166 105.359L33.5314 121.874C33.8494 123.817 32.5715 125.661 30.6399 126.043L30.5074 126.07C28.5759 126.453 26.6914 125.234 26.2468 123.314L22.4691 107.008C22.0039 105.002 23.2906 103.009 25.3134 102.609ZM31.0521 129.482L31.4349 129.406C33.4106 129.014 35.3304 130.301 35.722 132.277C36.1136 134.252 34.8269 136.172 32.8512 136.564L32.4684 136.64C30.4927 137.032 28.5729 135.745 28.1813 133.77C27.7897 131.791 29.0764 129.874 31.0521 129.482Z" fill="#FFBE55"/>
<path d="M282.131 291.079C286.547 291.079 288.411 287.552 289.147 283.809C289.975 279.587 289.368 275.094 289.368 275.094H274.896C274.896 275.094 274.873 275.265 274.843 275.571C274.572 278.227 273.701 291.079 282.131 291.079Z" fill="#B6E7FF"/>
<path d="M274.893 275.094C274.893 275.409 278.132 275.665 282.131 275.665C286.126 275.665 289.368 275.409 289.368 275.094C289.368 274.779 286.129 274.522 282.131 274.522C278.135 274.52 274.893 274.776 274.893 275.094Z" fill="#85DDFF"/>
<path d="M262.536 234.97C262.536 234.97 270.168 246.583 274.746 253.67C279.325 260.757 280.526 262.229 281.071 264.517C281.615 266.808 282.107 275.256 282.107 275.256H282.446C282.446 275.256 282.328 268.083 281.916 265.669C281.515 263.337 281.945 262.497 282.272 260.045C282.599 257.592 283.035 253.667 280.556 250.94C278.076 248.214 278.73 245.543 277.858 243.744C276.987 241.945 270.226 239.763 269.355 237.911C268.477 236.059 264.661 234.914 262.536 234.97Z" fill="#2A94F4"/>
<path d="M262.536 234.97C262.536 234.97 264.935 237.696 266.569 238.624C268.204 239.551 268.969 238.733 270.221 240.968C271.475 243.202 271.522 244.183 272.67 245.328C273.819 246.474 275.182 246.527 275.291 249.035C275.4 251.544 274.746 253.67 274.746 253.67C274.746 253.67 263.024 235.567 262.536 234.97Z" fill="#41AAF7"/>
<path d="M281.501 275.256H281.159C281.159 275.256 281.056 272.936 280.135 271.808C279.54 271.081 277.013 270.253 274.517 269.264C273.141 268.719 271.775 268.124 270.745 267.468C267.841 265.625 265.074 259.68 264.838 258.623C264.753 258.255 264.717 258.031 264.72 257.878V257.875C264.726 257.589 264.868 257.548 265.112 257.259C265.23 257.121 265.583 257.168 266.016 257.301C267.267 257.683 268.324 258.54 268.978 259.674C269.585 260.722 270.55 262.032 271.737 262.347C273.786 262.895 273.616 263.234 274.372 265.318C275.126 267.403 277.031 267.742 279.422 270.2C281.81 272.659 281.501 275.256 281.501 275.256Z" fill="#2A94F4"/>
<path d="M274.517 269.264C273.141 268.719 271.775 268.125 270.745 267.468C267.841 265.625 265.074 259.68 264.838 258.623C264.753 258.255 264.717 258.031 264.72 257.878C264.729 257.949 264.865 258.888 266.375 259.512C267.945 260.16 268.251 260.16 268.457 261.152C268.663 262.141 268.834 263.201 269.652 263.408C270.471 263.614 270.983 262.689 271.631 264.194C272.282 265.695 272.591 266.208 273.186 266.414C273.783 266.62 274.234 266.311 274.369 267.474C274.449 268.178 274.493 268.852 274.517 269.264Z" fill="#41AAF7"/>
<path d="M284.009 275.256H284.416C284.416 275.256 285.208 260.881 286.3 259.544C287.004 258.682 289.327 257.139 292.283 255.967C293.912 255.322 295.531 254.618 296.75 253.841C300.189 251.656 303.466 244.619 303.746 243.365C303.846 242.929 303.89 242.664 303.887 242.481V242.476C303.881 242.137 303.714 242.087 303.425 241.748C303.287 241.583 302.866 241.639 302.356 241.795C300.872 242.249 299.621 243.262 298.846 244.604C298.128 245.847 296.983 247.399 295.578 247.773C293.152 248.42 293.352 248.824 292.457 251.291C291.565 253.759 289.306 254.162 286.477 257.074C283.647 259.989 284.009 275.256 284.009 275.256Z" fill="#2A94F4"/>
<path d="M292.283 255.967C293.911 255.322 295.531 254.618 296.75 253.841C300.189 251.656 303.466 244.619 303.746 243.365C303.846 242.929 303.89 242.664 303.887 242.481C303.878 242.564 303.716 243.677 301.926 244.419C300.068 245.184 299.703 245.184 299.462 246.359C299.22 247.531 299.014 248.785 298.045 249.03C297.074 249.271 296.467 248.182 295.702 249.96C294.933 251.739 294.565 252.345 293.858 252.59C293.152 252.831 292.616 252.469 292.457 253.844C292.363 254.683 292.31 255.478 292.283 255.967Z" fill="#41AAF7"/>
<path d="M282.131 291.079C286.547 291.079 288.411 287.551 289.147 283.809C284.819 282.169 279.363 279.536 274.84 275.57C274.572 278.226 273.701 291.079 282.131 291.079Z" fill="#CCE9FF"/>
</svg>
