<svg width="20" height="20" viewBox="0 0 20 20" fill="none" xmlns="http://www.w3.org/2000/svg">
<path d="M18.0446 11.5548C19.8413 9.78906 18.2732 6.71676 15.7716 7.20379C15.5141 6.94605 15.2225 6.72988 14.9072 6.55957C16.5297 4.98402 15.4261 2.16324 13.138 2.1582C10.8499 2.16324 9.74637 4.98461 11.369 6.55965C11.0537 6.72996 10.7621 6.94613 10.5046 7.20379C10.1804 7.13629 9.81992 7.13625 9.49566 7.20375C9.23828 6.94648 8.94633 6.73039 8.63059 6.56008C10.2538 4.98477 9.15043 2.16324 6.86199 2.1582C4.57387 2.16328 3.47027 4.98461 5.09301 6.55969C4.77766 6.73 4.48613 6.94617 4.22859 7.20383C1.72559 6.7166 0.159297 9.79047 1.95535 11.5548C0.791875 12.1854 0 13.4176 0 14.8313V17.2548C0 17.5784 0.262344 17.8407 0.585938 17.8407H19.4141C19.7377 17.8407 20 17.5784 20 17.2548V14.8313C20 13.4176 19.2081 12.1854 18.0446 11.5548ZM17.6465 9.71605C17.6465 10.4832 17.0318 11.1073 16.2761 11.1073C14.458 11.0311 14.4585 8.40066 16.2761 8.3248C17.0318 8.3248 17.6465 8.94895 17.6465 9.71605ZM11.7675 4.72133C11.7675 3.95418 12.3823 3.33008 13.138 3.33008C14.9561 3.40625 14.9555 6.03672 13.138 6.11258C12.3823 6.11258 11.7675 5.48848 11.7675 4.72133ZM13.138 7.28445C13.679 7.28445 14.1984 7.45606 14.6287 7.76609C13.4951 8.70902 13.4336 10.5382 14.5075 11.5548C13.9504 11.8567 13.4786 12.2964 13.138 12.828C12.7975 12.2964 12.3256 11.8567 11.7686 11.5548C12.8427 10.5377 12.7805 8.70863 11.6473 7.76609C12.0777 7.45609 12.5973 7.28445 13.138 7.28445ZM11.3705 9.71605C11.3705 10.4832 10.7557 11.1073 10 11.1073C8.18199 11.0312 8.18254 8.40062 10 8.3248C10.7557 8.3248 11.3705 8.94895 11.3705 9.71605ZM5.49148 4.72133C5.49148 3.95418 6.10629 3.33008 6.86199 3.33008C8.68 3.40621 8.67945 6.03676 6.86199 6.11258C6.10629 6.11258 5.49148 5.48848 5.49148 4.72133ZM6.86199 7.28445C7.40059 7.28445 7.92195 7.45598 8.35293 7.7659C7.2191 8.70875 7.15754 10.538 8.23141 11.5548C7.67438 11.8567 7.20254 12.2964 6.86199 12.828C6.52145 12.2964 6.04957 11.8567 5.49254 11.5548C6.56672 10.5377 6.50453 8.70863 5.37125 7.76609C5.80164 7.45613 6.32129 7.28445 6.86199 7.28445ZM2.35348 9.71605C2.35348 8.94891 2.96824 8.3248 3.72395 8.3248C5.54199 8.40098 5.54148 11.0314 3.72395 11.1073C2.96824 11.1073 2.35348 10.4832 2.35348 9.71605ZM1.17188 14.8313C1.31246 11.4448 6.13672 11.4474 6.27605 14.8313V16.6688H1.17188V14.8313ZM7.44793 14.8313C7.58852 11.4448 12.4127 11.4474 12.5521 14.8313V16.6688H7.44793V14.8313ZM18.8281 16.6688H13.7239V14.8313C13.8645 11.4448 18.6888 11.4474 18.8281 14.8313V16.6688Z" fill="#A5A5A5"/>
</svg>
