<svg width="510" height="364" viewBox="0 0 510 364" fill="none" xmlns="http://www.w3.org/2000/svg">
<g opacity="0.07">
<g opacity="0.07">
<path opacity="0.07" d="M453.462 137.735C459.868 149.479 469.282 160.544 470.059 173.744C471.321 195 450.647 210.918 442.203 230.621C431.817 254.789 440.553 283.227 431.332 307.783C424.635 325.545 408.329 339.813 389.111 344.472C374.746 347.966 359.605 346.413 344.755 346.51C302.631 346.898 260.605 361.457 218.966 354.857C198.389 351.557 178.978 343.21 158.401 340.589C133.651 337.386 104.824 341.269 87.1594 324.477C62.4092 300.989 80.7535 257.798 62.2151 229.65C56.1974 220.527 46.5886 213.441 43.3856 203.25C39.6003 191.215 45.715 178.5 53.2856 168.212C60.8563 158.021 70.2711 148.606 74.3475 136.667C78.0358 125.894 75.8034 114.15 71.2416 103.667C64.2534 87.5554 83.7623 50.6728 122.586 53.4875C140.348 54.7493 148.404 34.1727 167.913 28.4462C190.236 21.9432 218.287 27.1844 234.69 32.6198C251.384 38.1522 272.058 41.0639 281.666 26.8933C295.158 6.80197 335.534 3.69609 353.685 36.308C360.285 48.1493 366.205 57.467 380.279 56.4964C456.568 51.5464 443.853 120.361 453.462 137.735ZM245.463 27.7668C245.463 30.4845 245.463 35.1433 257.499 34.3669C261.187 34.1727 264.196 32.1345 264.196 29.4168C264.196 26.6992 261.187 24.4668 257.499 24.4668C253.81 24.5638 245.463 23.3991 245.463 27.7668ZM126.954 41.064C126.565 41.2581 126.371 41.6463 126.177 42.0345C125.401 43.1993 124.042 43.9757 122.683 44.5581C121.907 44.8493 121.033 45.1404 120.451 45.7228C119.48 46.6934 119.577 48.4405 120.645 49.2169C121.518 49.8964 122.683 49.9934 123.848 49.8964C128.021 49.7022 132.098 48.1493 135.398 45.6258C139.571 42.2287 129.283 39.8022 126.954 41.064ZM115.501 47.2757C114.045 46.3052 112.298 46.8875 110.842 47.5669C110.551 47.7611 110.26 47.9552 110.162 48.2463C109.968 48.9258 110.842 49.411 111.521 49.6052C112.589 49.8963 113.754 50.2846 114.821 49.8964C115.889 49.6052 116.957 48.2463 115.501 47.2757ZM62.3122 134.338C61.2445 131.135 58.818 129.582 55.0327 131.426C52.8004 132.494 51.2474 134.532 49.8886 136.57C47.7533 139.87 45.9091 143.559 46.3944 147.344C46.6856 150.159 48.3356 152.779 50.6651 154.429C51.6356 155.109 52.8004 155.594 53.9651 155.594C55.3239 155.594 56.4886 154.818 57.5562 154.041C59.9827 152.197 61.8269 149.673 63.671 147.344C64.6416 146.082 65.6122 144.723 65.8063 143.268C66.2916 139.87 63.2828 137.25 62.3122 134.338ZM452.491 232.368C451.52 232.756 450.55 233.242 450.065 234.115C449.676 234.795 449.482 235.571 449.482 236.348C449.288 237.998 449.191 239.55 449.191 241.2C449.191 242.948 449.385 244.889 450.744 246.15C452.588 247.801 455.5 247.218 457.829 246.539C459.188 246.151 460.644 245.762 461.518 244.695C462.197 243.918 462.391 242.948 462.585 241.977C463.168 238.774 464.915 233.921 462.973 232.174C460.838 230.427 455.888 231.009 452.491 232.368ZM317.675 356.992C317.19 357.478 316.705 357.963 316.414 358.545C315.637 360.195 316.414 362.331 318.161 363.01C319.034 363.398 320.005 363.398 320.976 363.301C329.031 363.204 337.67 362.913 344.076 358.254C344.852 357.672 345.629 356.895 345.532 356.022C345.337 354.857 343.979 354.372 342.814 354.178C334.758 352.722 324.081 350.975 317.675 356.992ZM165.292 344.569C158.304 343.598 147.239 342.336 147.239 347.966C147.239 350.101 157.139 352.139 158.692 352.528C163.739 353.789 168.495 355.536 173.348 357.381C182.472 360.778 189.848 356.216 182.569 351.072C176.648 346.898 170.922 345.345 165.292 344.569Z" fill="#2A94F4"/>
</g>
</g>
<g opacity="0.51">
<path opacity="0.51" d="M341.941 274.492C339.708 270.221 344.853 265.66 349.609 264.786C354.364 263.913 359.703 264.592 363.391 261.583C368.438 257.604 368.147 248.965 373.679 245.762C378.144 243.239 384.065 245.665 388.723 243.627C394.547 241.104 396.197 232.951 402.021 230.233C406.582 228.001 412.6 230.524 414.93 234.989C417.259 239.454 416.191 245.277 412.988 249.257C410.465 252.265 406.68 254.498 405.127 258.089C402.7 263.815 406.582 270.707 404.253 276.53C400.079 287.207 380.279 284.004 376.785 294.972C376.009 297.398 376.3 300.019 376.106 302.639C375.523 310.21 370.185 316.81 363.585 320.595C356.985 324.381 349.22 325.642 341.65 326.225C338.544 326.419 335.244 326.516 332.526 325.06C329.905 323.701 328.158 321.275 326.702 318.654C317.579 302.251 313.794 280.704 341.941 274.492Z" fill="#FFBE55"/>
</g>
<g opacity="0.51">
<path opacity="0.51" d="M194.12 259.643C197.226 254.596 191.402 248.578 185.676 247.122C179.949 245.666 173.446 245.957 169.079 241.978C163.352 236.64 164.42 226.06 157.917 221.692C152.676 218.198 145.299 220.625 139.67 217.713C132.681 214.122 131.517 203.931 124.723 200.048C119.287 196.942 111.717 199.369 108.417 204.707C105.117 210.045 105.893 217.228 109.484 222.372C112.299 226.351 116.667 229.36 118.317 233.922C120.84 241.104 115.405 249.257 117.637 256.537C121.811 270.028 146.367 267.893 149.473 281.675C150.152 284.781 149.57 287.887 149.57 291.09C149.57 300.408 155.49 309.046 163.255 314.287C171.02 319.528 180.338 321.858 189.558 323.217C193.344 323.799 197.323 324.187 200.817 322.634C204.117 321.275 206.544 318.364 208.582 315.355C221.297 295.846 227.897 269.834 194.12 259.643Z" fill="#FFBE55"/>
</g>
<path d="M397.168 26.3144L390.374 28.6439L387.462 20.1997C382.027 4.57312 364.847 -3.774 349.221 1.66133C333.594 7.09666 325.247 24.2762 330.682 39.9027L333.594 48.3469L326.8 50.6763C321.462 52.5204 318.647 58.344 320.491 63.6823L339.612 118.909C341.456 124.247 347.376 127.159 352.618 125.315L422.889 100.953C428.227 99.109 431.139 93.1883 429.295 87.8501L410.174 32.6233C408.427 27.285 402.603 24.3732 397.168 26.3144ZM343.591 35.3409C340.582 26.7997 345.144 17.385 353.685 14.3761C362.227 11.3673 371.641 15.9291 374.65 24.5674L377.562 33.0115L346.503 43.7851L343.591 35.3409ZM384.356 85.7148L389.209 99.7884C389.403 100.371 389.015 100.953 388.433 101.244L381.638 103.574C381.153 103.768 380.474 103.477 380.28 102.894L375.427 88.8207C370.185 88.6266 365.332 85.3265 363.488 79.9883C361.159 73.1941 364.75 65.7205 371.544 63.294C378.338 60.9646 385.812 64.5558 388.239 71.35C390.083 76.6883 388.336 82.3177 384.356 85.7148Z" fill="#FFBE55"/>
<path d="M324.275 299.731C331.166 296.819 337.281 291.287 342.425 286.045C356.208 271.778 364.749 253.239 369.311 234.021C373.387 216.648 374.261 198.789 373.484 181.027C373.387 179.571 371.058 179.474 371.155 181.027C373.096 220.918 365.137 269.739 329.516 294.004C327.478 295.363 325.44 296.722 323.208 297.692C321.752 298.275 322.916 300.313 324.275 299.731Z" fill="#FFBE55"/>
<path d="M369.604 227.326C369.604 227.326 371.836 214.417 388.918 212.379C389.015 212.379 382.707 227.617 369.604 227.326Z" fill="#FFBE55"/>
<path d="M364.068 246.349C364.068 246.349 369.31 234.313 386.392 236.352C386.295 236.352 376.686 249.746 364.068 246.349Z" fill="#FFBE55"/>
<path d="M356.789 263.236C356.789 263.236 364.554 252.657 380.763 258.48C380.763 258.48 368.339 269.351 356.789 263.236Z" fill="#FFBE55"/>
<path d="M372.224 207.234C372.224 207.234 374.456 194.519 391.247 192.578C391.247 192.578 385.133 207.622 372.224 207.234Z" fill="#FFBE55"/>
<path d="M372.514 185.2C372.514 185.2 362.906 176.562 370.185 161.227C370.185 161.324 379.6 174.427 372.514 185.2Z" fill="#FFBE55"/>
<path d="M372.514 198.301C372.514 198.301 359.799 195.972 357.955 179.181C358.052 179.084 372.999 185.393 372.514 198.301Z" fill="#FFBE55"/>
<path d="M371.253 217.619C371.253 217.619 358.538 215.289 356.694 198.498C356.791 198.498 371.739 204.71 371.253 217.619Z" fill="#FFBE55"/>
<path d="M367.951 235.77C367.951 235.77 355.43 232.567 354.848 215.679C354.848 215.582 369.31 222.861 367.951 235.77Z" fill="#FFBE55"/>
<path d="M362.224 253.82C362.224 253.82 349.703 250.617 349.121 233.729C349.121 233.729 363.583 241.008 362.224 253.82Z" fill="#FFBE55"/>
<path d="M194.41 294.875C187.519 291.963 181.404 286.431 176.26 281.19C162.477 266.922 153.936 248.384 149.374 229.166C145.298 211.792 144.424 193.933 145.201 176.172C145.298 174.716 147.627 174.619 147.53 176.172C145.589 216.063 153.548 264.884 189.169 289.149C191.207 290.508 193.245 291.866 195.478 292.837C196.934 293.419 195.769 295.458 194.41 294.875Z" fill="#FFBE55"/>
<path d="M149.083 222.469C149.083 222.469 146.85 209.56 129.768 207.521C129.671 207.521 135.979 222.76 149.083 222.469Z" fill="#FFBE55"/>
<path d="M154.714 241.493C154.714 241.493 149.473 229.458 132.391 231.496C132.391 231.496 142 244.89 154.714 241.493Z" fill="#FFBE55"/>
<path d="M161.992 258.381C161.992 258.381 154.227 247.801 138.018 253.625C137.921 253.625 150.345 264.495 161.992 258.381Z" fill="#FFBE55"/>
<path d="M146.463 202.377C146.463 202.377 144.231 189.662 127.439 187.721C127.439 187.721 133.554 202.765 146.463 202.377Z" fill="#FFBE55"/>
<path d="M146.269 180.345C146.269 180.345 155.878 171.706 148.598 156.371C148.598 156.468 139.087 169.571 146.269 180.345Z" fill="#FFBE55"/>
<path d="M146.173 193.446C146.173 193.446 158.887 191.117 160.732 174.325C160.732 174.228 145.687 180.537 146.173 193.446Z" fill="#FFBE55"/>
<path d="M147.433 212.761C147.433 212.761 160.148 210.432 161.992 193.641C161.992 193.641 146.948 199.852 147.433 212.761Z" fill="#FFBE55"/>
<path d="M150.735 230.913C150.735 230.913 163.255 227.71 163.838 210.821C163.838 210.724 149.376 218.004 150.735 230.913Z" fill="#FFBE55"/>
<path d="M156.46 248.964C156.46 248.964 168.981 245.761 169.563 228.873C169.563 228.873 155.101 236.153 156.46 248.964Z" fill="#FFBE55"/>
<path d="M317.287 328.653H207.318C195.962 328.653 186.839 319.432 186.839 308.173V53.1983C186.839 41.8423 196.06 32.7188 207.318 32.7188H317.19C328.546 32.7188 337.669 41.9394 337.669 53.1983V308.173C337.766 319.432 328.546 328.653 317.287 328.653Z" fill="#2A94F4"/>
<path d="M316.412 318.171H208.191C200.232 318.171 193.826 311.765 193.826 303.806V55.7222C193.826 47.7634 200.232 41.3574 208.191 41.3574H316.412C324.371 41.3574 330.777 47.7634 330.777 55.7222V303.806C330.777 311.765 324.371 318.171 316.412 318.171Z" fill="#F7F7F7"/>
<path d="M303.31 41.3536H294.381C291.663 41.3536 289.431 43.586 289.431 46.3036V49.7978C289.431 52.5154 287.198 54.7478 284.481 54.7478H244.783C242.066 54.7478 239.833 52.5154 239.833 49.7978V46.3036C239.833 43.586 237.601 41.3536 234.883 41.3536H209.551V38.8301H303.31V41.3536Z" fill="#2A94F4"/>
<path opacity="0.17" d="M260.409 158.02C271.345 158.02 280.21 149.155 280.21 138.22C280.21 127.285 271.345 118.42 260.409 118.42C249.474 118.42 240.609 127.285 240.609 138.22C240.609 149.155 249.474 158.02 260.409 158.02Z" fill="#2A94F4"/>
<path d="M268.078 133.658C268.078 137.929 264.68 141.326 260.41 141.326C256.139 141.326 252.742 137.929 252.742 133.658C252.742 129.387 256.139 125.99 260.41 125.99C264.68 125.99 268.078 129.387 268.078 133.658ZM271.96 165.202V154.235C271.96 148.12 267.01 143.073 260.798 143.073H259.925C253.81 143.073 248.763 148.023 248.763 154.235V165.202C248.763 166.949 250.122 168.308 251.869 168.308H268.854C270.601 168.308 271.96 166.949 271.96 165.202Z" fill="#2A94F4"/>
<path opacity="0.17" d="M307.872 180.64H212.948C208.58 180.64 205.086 177.146 205.086 172.778C205.086 168.41 208.58 164.916 212.948 164.916H307.872C312.24 164.916 315.734 168.41 315.734 172.778C315.734 177.048 312.24 180.64 307.872 180.64Z" fill="#2A94F4"/>
<path d="M304.573 174.813H216.249C215.084 174.813 214.211 173.939 214.211 172.775C214.211 171.61 215.084 170.736 216.249 170.736H304.573C305.738 170.736 306.612 171.61 306.612 172.775C306.612 173.842 305.738 174.813 304.573 174.813Z" fill="#2A94F4"/>
<path opacity="0.17" d="M307.969 208.78H213.044C208.677 208.78 205.183 205.286 205.183 200.918C205.183 196.551 208.677 193.057 213.044 193.057H307.969C312.336 193.057 315.83 196.551 315.83 200.918C315.83 205.286 312.239 208.78 307.969 208.78Z" fill="#2A94F4"/>
<path d="M215.471 203.153C214.306 203.153 213.433 202.279 213.433 201.114C213.433 199.95 214.306 199.076 215.471 199.076C216.636 199.076 217.509 199.95 217.509 201.114C217.509 202.279 216.539 203.153 215.471 203.153ZM223.624 201.114C223.624 199.95 222.75 199.076 221.586 199.076C220.421 199.076 219.547 199.95 219.547 201.114C219.547 202.279 220.421 203.153 221.586 203.153C222.653 203.153 223.624 202.279 223.624 201.114ZM229.642 201.114C229.642 199.95 228.768 199.076 227.603 199.076C226.439 199.076 225.565 199.95 225.565 201.114C225.565 202.279 226.439 203.153 227.603 203.153C228.768 203.153 229.642 202.279 229.642 201.114ZM235.756 201.114C235.756 199.95 234.883 199.076 233.718 199.076C232.553 199.076 231.68 199.95 231.68 201.114C231.68 202.279 232.553 203.153 233.718 203.153C234.883 203.153 235.756 202.279 235.756 201.114ZM241.871 201.114C241.871 199.95 240.997 199.076 239.833 199.076C238.668 199.076 237.795 199.95 237.795 201.114C237.795 202.279 238.668 203.153 239.833 203.153C240.997 203.153 241.871 202.279 241.871 201.114ZM247.986 201.114C247.986 199.95 247.112 199.076 245.948 199.076C244.783 199.076 243.909 199.95 243.909 201.114C243.909 202.279 244.783 203.153 245.948 203.153C247.015 203.153 247.986 202.279 247.986 201.114ZM254.1 201.114C254.1 199.95 253.227 199.076 252.062 199.076C250.898 199.076 250.024 199.95 250.024 201.114C250.024 202.279 250.898 203.153 252.062 203.153C253.13 203.153 254.1 202.279 254.1 201.114Z" fill="#2A94F4"/>
<path d="M131.224 299.732C131.224 299.732 129.185 310.991 128.7 312.932C128.312 314.485 127.147 315.65 125.982 316.815C125.594 317.203 125.303 317.98 125.109 318.562C124.915 319.047 125.012 319.63 125.303 320.115C130.447 328.365 141.221 329.918 141.318 329.238C141.512 327.977 139.474 325.841 137.144 324.968C134.815 324.191 133.068 322.056 132.485 319.63C132 317.688 132 315.65 132.582 313.709L135.106 305.071L131.224 299.732Z" fill="#B97A59"/>
<path d="M124.915 300.994L127.439 312.35C128.215 315.844 127.73 319.435 126.08 322.638C125.109 324.385 125.983 326.618 127.827 327.297C133.942 329.433 145.686 333.606 146.171 333.121C148.889 330.888 141.803 327.103 136.562 323.221C133.068 320.6 131.709 308.176 131.418 298.762L125.789 300.218C125.4 300.218 125.012 300.509 124.915 300.994Z" fill="#B97A59"/>
<path d="M135.398 326.424C137.921 327.298 140.639 327.492 143.162 327.88C143.453 327.88 143.745 328.074 143.939 328.171C146.365 330.015 147.627 331.957 146.171 333.121C145.589 333.607 131.709 328.657 126.371 326.813C125.206 326.424 124.721 325.065 125.303 323.998L126.371 322.057C129.186 323.804 132.195 325.357 135.398 326.424Z" fill="#0B4870"/>
<path d="M127.534 184.72C121.128 186.952 117.149 195.688 120.061 203.841C121.711 208.596 129.767 224.999 137.628 237.714C140.637 242.567 141.026 248.682 138.405 253.729C138.017 254.506 137.628 255.379 137.337 256.253C136.076 260.523 132.775 284.594 131.125 300.609C131.902 302.453 133.552 304.782 135.202 305.268C140.831 290.806 149.373 264.794 150.731 260.232C151.508 257.709 152.284 254.894 152.77 252.176C156.652 244.023 147.529 204.908 144.811 197.241C141.899 189.185 133.843 182.487 127.534 184.72Z" fill="#0B4870"/>
<path d="M131.516 139.391C137.198 139.391 141.804 133.438 141.804 126.094C141.804 118.75 137.198 112.797 131.516 112.797C125.834 112.797 121.228 118.75 121.228 126.094C121.228 133.438 125.834 139.391 131.516 139.391Z" fill="#0B4870"/>
<path d="M129.087 127.454C128.893 120.077 122.972 113.866 115.596 113.477C109.093 113.089 103.463 117.068 101.328 122.795C100.552 124.833 98.6105 126.095 96.4751 126.095C95.6016 126.095 94.7281 126.192 93.7575 126.386C88.4192 127.454 84.1486 132.016 83.6633 137.548C83.178 142.498 85.5074 146.866 89.1957 149.389C90.7486 150.457 91.7193 152.204 91.9134 154.145C93.1751 162.881 101.134 169.384 110.258 168.316C118.022 167.442 124.331 161.036 125.011 153.175C125.399 148.419 123.749 143.954 120.837 140.654C125.787 138.422 129.184 133.277 129.087 127.454Z" fill="#0B4870"/>
<path d="M131.516 108.429C131.516 108.429 137.339 112.118 136.563 116.971C136.563 116.971 139.669 114.738 140.348 107.265C140.93 102.023 131.516 108.429 131.516 108.429Z" fill="#0B4870"/>
<path d="M140.929 134.344C144.035 135.897 147.141 137.159 150.344 137.935C153.547 138.712 156.847 138.712 160.244 138.226C163.738 137.741 167.329 136.771 171.212 136.091C175.094 135.412 179.171 135.218 182.956 135.8C183.635 135.897 184.121 136.576 184.024 137.256C183.926 137.838 183.441 138.323 182.859 138.323C179.171 138.518 175.773 139.197 172.279 140.459C168.882 141.623 165.388 143.176 161.506 144.341C157.623 145.506 153.256 145.991 149.082 145.506C144.909 145.02 140.929 143.856 137.144 142.303C134.911 141.429 133.747 138.809 134.62 136.576C135.494 134.344 138.114 133.179 140.347 134.053C140.444 134.053 140.541 134.15 140.638 134.15L140.929 134.344Z" fill="#B97A59"/>
<path d="M138.018 163.852C140.348 156.864 145.006 142.013 144.618 137.258C144.327 134.152 141.803 131.822 138.698 131.822H118.412C115.112 131.822 112.297 134.443 112.2 137.84C112.006 143.664 114.724 156.961 116.277 163.949H138.018V163.852Z" fill="#FFBE55"/>
<path d="M131.321 301.092C131.612 300.898 131.806 300.509 131.806 300.121C131.418 285.271 130.448 266.344 130.156 262.753C130.156 262.365 130.059 261.977 129.962 261.491C133.165 243.924 133.651 206.265 133.942 199.665C134.33 191.026 129.089 181.223 122.392 180.835C115.597 180.544 108.318 187.532 106.183 195.491C104.727 200.732 110.259 228.685 116.277 248.971C117.539 253.241 117.733 257.706 117.053 262.074C116.568 265.083 116.471 268.286 116.665 270.615C116.956 274.206 120.936 288.668 124.721 301.189C124.818 301.577 125.109 301.868 125.498 301.868C127.536 302.353 129.477 302.256 131.321 301.092Z" fill="#0B4870"/>
<path d="M114.046 172.684C115.113 169.772 115.405 166.57 114.919 163.561C113.949 156.378 112.105 142.984 112.299 137.258C112.396 134.152 114.919 131.822 117.928 131.822H120.937C122.102 134.443 124.528 136.481 128.217 136.481C132.002 136.481 134.331 134.443 135.496 131.822H138.311C135.302 138.325 136.37 146.964 141.611 152.011C140.64 155.505 139.767 158.902 139.184 161.717C138.311 165.502 138.699 169.481 140.252 173.073C142.873 179.284 144.911 189.184 144.231 193.164C122.975 199.182 108.319 188.505 108.319 188.505L114.046 172.684Z" fill="#FFBE55"/>
<path d="M131.514 133.179L122.391 132.208L125.302 122.211L131.223 122.89L131.514 133.179Z" fill="#B97A59"/>
<path d="M131.222 122.888L125.301 122.111L124.428 125.217C125.787 126.673 127.437 129.973 129.572 129.973C130.251 129.973 130.834 129.779 131.416 129.391L131.222 122.888Z" fill="#AA6B4F"/>
<path d="M131.419 127.744C129.381 127.744 127.245 126.774 124.236 124.153C122.489 122.697 121.228 120.077 121.228 118.233V108.43H136.272C136.272 108.43 137.436 113.671 136.272 118.815C135.495 122.697 132.972 127.744 131.419 127.744Z" fill="#B97A59"/>
<path d="M123.75 116.386C123.75 118.327 122.877 119.88 121.712 119.88C120.548 119.88 119.383 117.356 119.383 115.512C119.383 113.571 120.645 112.989 121.712 112.989C122.877 112.892 123.75 114.445 123.75 116.386Z" fill="#B97A59"/>
<path d="M119.382 109.594C119.382 106.585 121.906 104.062 124.915 104.062H129.962C131.418 104.062 132.874 103.673 134.038 102.994C135.785 102.023 138.115 102.315 139.279 103.965C140.638 105.712 141.221 108.138 137.824 110.371C136.174 111.438 133.747 110.273 132.097 110.759C132 110.759 131.903 110.759 131.806 110.759H127.341C125.788 110.759 124.623 112.021 124.526 113.573C124.526 114.544 123.653 115.321 122.682 115.321H122.488L121.809 112.991L119.285 116.388V109.594H119.382Z" fill="#0B4870"/>
<path d="M188.296 134.73C188.296 134.73 185.87 139.485 184.22 139.194C182.57 138.903 181.405 138.515 181.696 135.991C181.987 133.565 183.54 130.265 184.802 128.518C186.064 126.771 189.558 124.732 190.14 124.732C191.984 124.829 189.267 127.741 188.005 129.294C186.743 130.75 185.481 132.594 186.355 132.982C187.228 133.371 189.461 130.362 190.625 130.459C191.79 130.556 188.296 134.73 188.296 134.73Z" fill="#B97A59"/>
<path d="M135.202 108.235C134.717 110.467 135.396 111.729 128.117 115.223C120.74 118.717 118.508 117.261 116.179 120.949C116.179 120.949 117.149 114.738 121.226 112.602C125.302 110.467 132.291 109.108 134.523 104.158C134.523 104.158 135.494 106.779 135.202 108.235Z" fill="#0B4870"/>
<path d="M118.412 140.947C118.024 141.238 117.732 141.432 117.441 141.724C117.15 141.918 116.859 142.112 116.568 142.306C115.985 142.694 115.403 143.082 114.821 143.374C113.656 144.053 112.394 144.635 111.132 145.218C108.609 146.285 105.891 146.965 103.173 147.45C97.6411 148.227 92.0116 147.45 86.9645 145.509C84.441 144.538 82.1115 143.277 79.8792 141.821C77.6468 140.365 75.6085 138.715 73.6674 136.968C69.882 133.474 66.582 129.397 63.7673 125.223C63.4761 124.738 63.5732 124.156 64.0585 123.865C64.4467 123.573 65.0291 123.671 65.3202 124.059C68.7173 127.747 72.2115 131.144 76.0938 134.056C79.9762 136.871 84.1498 139.297 88.6145 140.559C90.8469 141.141 93.0793 141.627 95.3116 141.724C97.544 141.821 99.7764 141.627 102.009 141.238C104.241 140.85 106.376 140.074 108.415 139.2C109.385 138.715 110.453 138.229 111.424 137.647C111.909 137.356 112.394 137.065 112.782 136.774C112.976 136.579 113.268 136.482 113.462 136.288L114.044 135.9L114.238 135.706C115.694 134.541 117.829 134.832 118.994 136.288C120.062 137.744 119.868 139.782 118.412 140.947Z" fill="#B97A59"/>
<path d="M133.747 108.723C133.747 108.723 134.038 116.294 140.638 119.885C140.638 119.885 137.727 114.159 137.921 110.47C138.115 106.685 133.359 106.103 133.747 108.723Z" fill="#0B4870"/>
<path d="M123.46 323.221C122.974 322.833 122.78 322.056 123.071 321.474C123.363 320.989 124.042 319.727 124.527 318.756C124.721 318.368 125.304 318.271 125.595 318.659C128.895 323.027 133.457 325.939 138.601 325.55C140.445 326.327 141.998 328.559 141.804 329.627C141.804 329.821 139.571 330.404 136.951 329.53C125.498 325.745 123.46 323.221 123.46 323.221Z" fill="#0B4870"/>
<path d="M65.7082 120.756C65.7082 120.756 68.9112 125.026 67.9406 126.482C66.97 127.938 65.9994 128.715 63.9611 127.356C61.8258 125.997 59.5935 123.182 58.5258 121.144C57.4582 119.106 57.2641 115.126 57.4582 114.641C58.4288 112.991 59.8847 116.776 60.6611 118.62C61.4376 120.465 62.5053 122.406 63.2817 121.726C64.0582 121.144 62.2141 117.747 62.8935 116.776C63.5729 115.709 65.7082 120.756 65.7082 120.756Z" fill="#B97A59"/>
<path d="M494.518 356.997H15.0442C6.6971 356.997 0 350.3 0 341.952C0 333.605 6.6971 326.908 15.0442 326.908H494.518C502.865 326.908 509.562 333.605 509.562 341.952C509.562 350.3 502.865 356.997 494.518 356.997Z" fill="#D3D3D3"/>
<path d="M119.189 69.6002L112.88 62.709L35.621 133.368C30.2827 129.971 23.4885 129.098 17.0826 131.524C6.40607 135.601 1.06779 147.539 5.24135 158.216C9.4149 168.892 21.2562 174.23 31.9327 170.057C42.6092 165.98 47.9475 154.042 43.7739 143.365C43.4828 142.589 43.0945 141.812 42.7063 141.036L101.233 86.3915L108.221 93.2827L115.21 86.1974L109.677 80.665L111.813 78.1415L117.539 83.2856L122.392 77.7532L116.374 72.2208L119.189 69.6002ZM29.3121 163.263C22.4209 165.883 14.559 162.486 11.9384 155.498C9.31784 148.607 12.7149 140.745 19.7032 138.124C26.5944 135.504 34.4562 138.901 37.0769 145.889C39.6975 152.877 36.2033 160.642 29.3121 163.263Z" fill="#FFBE55"/>
</svg>
