<svg width="32" height="32" viewBox="0 0 32 32" fill="none" xmlns="http://www.w3.org/2000/svg">
<path d="M25.8366 30.4828H4.69531V5.08594H26.8897L26.3941 5.49476C26.0336 5.7938 25.8284 6.24049 25.8366 6.70886V30.4828Z" fill="white"/>
<path d="M25.8239 8.65966V7.14204C25.8239 5.9926 26.7558 5.06074 27.9052 5.06074H5.67373L5.05429 6.01467C4.83579 6.35002 4.71957 6.74173 4.7198 7.14204V8.65966H1.41821C0.976864 8.65966 0.619141 8.30193 0.619141 7.86059V2.31665C0.619141 1.8753 0.976864 1.51758 1.41821 1.51758H30.5812C31.0225 1.51758 31.3803 1.8753 31.3803 2.31665V7.85439C31.3803 8.29574 31.0225 8.65346 30.5812 8.65346L25.8239 8.65966Z" fill="#FFA83D"/>
<path d="M8.24456 29.8633H6.67119C6.32911 29.8633 6.05176 30.1406 6.05176 30.4827C6.05176 30.8248 6.32911 31.1021 6.67119 31.1021H8.24456C8.58664 31.1021 8.86399 30.8248 8.86399 30.4827C8.86399 30.1406 8.58664 29.8633 8.24456 29.8633Z" fill="black"/>
<path d="M12.1225 29.8633H10.5491C10.207 29.8633 9.92969 30.1406 9.92969 30.4827C9.92969 30.8248 10.207 31.1021 10.5491 31.1021H12.1225C12.4646 31.1021 12.7419 30.8248 12.7419 30.4827C12.7419 30.1406 12.4646 29.8633 12.1225 29.8633Z" fill="black"/>
<path d="M15.9994 29.8633H14.4261C14.084 29.8633 13.8066 30.1406 13.8066 30.4827C13.8066 30.8248 14.084 31.1021 14.4261 31.1021H15.9994C16.3415 31.1021 16.6189 30.8248 16.6189 30.4827C16.6189 30.1406 16.3415 29.8633 15.9994 29.8633Z" fill="black"/>
<path d="M19.8774 29.8633H18.304C17.9619 29.8633 17.6846 30.1406 17.6846 30.4827C17.6846 30.8248 17.9619 31.1021 18.304 31.1021H19.8774C20.2195 31.1021 20.4968 30.8248 20.4968 30.4827C20.4968 30.1406 20.2195 29.8633 19.8774 29.8633Z" fill="black"/>
<path d="M23.7556 29.8633H22.1946C21.8525 29.8633 21.5752 30.1406 21.5752 30.4827C21.5752 30.8248 21.8525 31.1021 22.1946 31.1021H23.768C24.1101 31.1021 24.3874 30.8248 24.3874 30.4827C24.3874 30.1406 24.1101 29.8633 23.768 29.8633H23.7556Z" fill="black"/>
<path d="M30.5815 0.898438H1.41851C0.636469 0.901844 0.00340689 1.53491 0 2.31694V7.85469C0.00340689 8.63673 0.636469 9.26979 1.41851 9.2732H4.10066V30.4826C4.10066 30.8247 4.37801 31.1021 4.72009 31.1021C5.06218 31.1021 5.33953 30.8247 5.33953 30.4826V7.14234C5.33953 6.33498 5.99404 5.68047 6.80139 5.68047H25.6384C25.3558 6.1157 25.2052 6.62341 25.2048 7.14234L25.1676 30.4826C25.1676 30.8247 25.445 31.1021 25.7871 31.1021C26.1292 31.1021 26.4065 30.8247 26.4065 30.4826L26.4437 9.27939H30.5815C31.3635 9.27598 31.9966 8.64292 32 7.86088V2.31694C31.9966 1.53491 31.3635 0.901844 30.5815 0.898438ZM30.7611 7.86088C30.7611 7.96007 30.6807 8.04052 30.5815 8.04052H26.4437V7.14234C26.4437 6.33498 27.0982 5.68047 27.9055 5.68047H28.525C28.8671 5.68047 29.1444 5.40312 29.1444 5.06104C29.1444 4.71896 28.8671 4.4416 28.525 4.4416H3.32017C2.97809 4.4416 2.70074 4.71896 2.70074 5.06104C2.70074 5.40312 2.97809 5.68047 3.32017 5.68047H4.55904C4.27364 6.1147 4.12079 6.62271 4.11924 7.14234V8.04052H1.41851C1.31932 8.04052 1.23887 7.96007 1.23887 7.86088V2.31694C1.23887 2.21776 1.31932 2.13731 1.41851 2.13731H30.5815C30.6807 2.13731 30.7611 2.21776 30.7611 2.31694V7.86088Z" fill="black"/>
<path d="M8.65947 12.5943H15.6219C15.964 12.5943 16.2414 12.317 16.2414 11.9749C16.2414 11.6328 15.964 11.3555 15.6219 11.3555H8.65947C8.31739 11.3555 8.04004 11.6328 8.04004 11.9749C8.04004 12.317 8.31739 12.5943 8.65947 12.5943Z" fill="black"/>
<path d="M18.304 12.5943H21.7605C22.1025 12.5943 22.3799 12.317 22.3799 11.9749C22.3799 11.6328 22.1025 11.3555 21.7605 11.3555H18.304C17.9619 11.3555 17.6846 11.6328 17.6846 11.9749C17.6846 12.317 17.9619 12.5943 18.304 12.5943Z" fill="black"/>
<path d="M8.65947 16.2057H15.6219C15.964 16.2057 16.2414 15.9283 16.2414 15.5862C16.2414 15.2441 15.964 14.9668 15.6219 14.9668H8.65947C8.31739 14.9668 8.04004 15.2441 8.04004 15.5862C8.04004 15.9283 8.31739 16.2057 8.65947 16.2057Z" fill="black"/>
<path d="M18.304 16.2057H21.7605C22.1025 16.2057 22.3799 15.9283 22.3799 15.5862C22.3799 15.2441 22.1025 14.9668 21.7605 14.9668H18.304C17.9619 14.9668 17.6846 15.2441 17.6846 15.5862C17.6846 15.9283 17.9619 16.2057 18.304 16.2057Z" fill="black"/>
<path d="M8.65947 19.8228H15.6219C15.964 19.8228 16.2414 19.5455 16.2414 19.2034C16.2414 18.8613 15.964 18.584 15.6219 18.584H8.65947C8.31739 18.584 8.04004 18.8613 8.04004 19.2034C8.04004 19.5455 8.31739 19.8228 8.65947 19.8228Z" fill="black"/>
<path d="M18.304 19.8228H21.7605C22.1025 19.8228 22.3799 19.5455 22.3799 19.2034C22.3799 18.8613 22.1025 18.584 21.7605 18.584H18.304C17.9619 18.584 17.6846 18.8613 17.6846 19.2034C17.6846 19.5455 17.9619 19.8228 18.304 19.8228Z" fill="black"/>
</svg>
