<svg width="569" height="556" viewBox="0 0 569 556" fill="none" xmlns="http://www.w3.org/2000/svg">
<path d="M523.598 407.453H62.0327V445.449H523.598V407.453Z" fill="#F1F1F1"/>
<path opacity="0.63" d="M523.598 398.098H62.0327V421.105H523.598V398.098Z" fill="#A8A8A8"/>
<path d="M523.503 99.2861H296.209V277.237H523.503V99.2861Z" fill="#F1F1F1"/>
<path d="M322.781 277.237H296.209L451.339 99.2861H477.91L322.781 277.237Z" fill="white"/>
<path d="M368.469 277.237H355.183L510.313 99.2861H523.599L368.469 277.237Z" fill="white"/>
<path d="M238.955 99.2861H62.0327V277.237H238.955V99.2861Z" fill="#F1F1F1"/>
<path d="M193.267 99.2861L118.522 185.111L62.0327 249.838V219.479L118.522 154.657L166.791 99.2861H193.267Z" fill="white"/>
<path d="M83.8256 277.237H70.6353L225.765 99.2861H238.955L83.8256 277.237Z" fill="white"/>
<path d="M214.486 162.199L179.981 162.485C179.121 162.485 178.356 161.817 178.356 160.958L178.261 148.929C178.261 148.07 178.93 147.306 179.79 147.306L214.295 147.02C215.155 147.02 215.92 147.688 215.92 148.547L216.016 160.576C216.016 161.435 215.347 162.199 214.486 162.199Z" fill="#FABB58"/>
<path d="M191.355 159.24L195.083 166.305C195.561 167.164 196.804 167.259 197.282 166.4L201.583 159.24H191.355Z" fill="#FABB58"/>
<path d="M189.73 154.752C189.73 155.611 189.061 156.28 188.201 156.28C187.341 156.28 186.672 155.611 186.672 154.752C186.672 153.893 187.341 153.225 188.201 153.225C189.061 153.32 189.73 153.988 189.73 154.752Z" fill="white"/>
<path d="M198.715 154.752C198.715 155.611 198.046 156.28 197.186 156.28C196.326 156.28 195.657 155.611 195.657 154.752C195.657 153.893 196.326 153.225 197.186 153.225C197.951 153.225 198.62 153.893 198.715 154.752Z" fill="white"/>
<path d="M207.605 154.656C207.605 155.516 206.935 156.184 206.075 156.184C205.215 156.184 204.546 155.516 204.546 154.656C204.546 153.797 205.215 153.129 206.075 153.129C206.935 153.129 207.605 153.797 207.605 154.656Z" fill="white"/>
<path d="M147.961 413.468L145.571 390.938L131.616 390.27L134.101 414.996H145.476L147.961 413.468Z" fill="#FACBB6"/>
<path d="M132.286 408.217C132.286 408.217 144.329 413.181 149.873 404.971L175.871 420.341L128.75 420.627L132.286 408.217Z" fill="#01384F"/>
<path d="M175.859 420.376L128.737 420.709L128.769 425.196L175.891 424.863L175.859 420.376Z" fill="#01384F"/>
<path d="M116.992 251.366L127.602 398.958L149.49 398.767C149.49 398.767 148.534 307.214 139.836 249.934L116.992 251.366Z" fill="#01384F"/>
<path d="M114.985 413.659L115.367 391.129L101.508 390.461L101.125 415.282L112.5 415.187L114.985 413.659Z" fill="#FACBB6"/>
<path d="M99.31 408.408C99.31 408.408 111.353 413.372 116.897 405.162L142.895 420.532L95.7734 420.819L99.31 408.408Z" fill="#01384F"/>
<path d="M142.882 420.663L95.7603 420.996L95.7921 425.483L142.914 425.15L142.882 420.663Z" fill="#01384F"/>
<path d="M138.211 252.798L129.227 252.512V251.843L95.3907 251.652C92.0453 305.782 96.5377 399.149 96.5377 399.149L121.485 398.958L128.271 270.459L138.211 252.798Z" fill="#004970"/>
<path d="M101.126 148.929C101.126 148.929 100.839 138.046 117.279 137.282C131.521 136.614 133.433 142.533 134.675 146.543C135.918 150.552 118.617 161.436 118.617 161.436L101.126 148.929Z" fill="#181E22"/>
<path d="M109.92 185.206L109.06 163.344L123.11 162.771L123.97 183.87C124.162 187.784 121.103 189.502 117.184 189.693C113.265 189.789 110.015 189.025 109.92 185.206Z" fill="#FACBB6"/>
<path d="M109.059 165.73C109.059 165.73 107.052 178.714 123.875 181.864L123.397 171.84L109.059 165.73Z" fill="#F1C4B2"/>
<path d="M127.507 140.338C122.441 140.433 137.447 140.147 134.866 155.994L129.896 149.216L127.507 140.338Z" fill="#020102"/>
<path d="M121.198 177.474C128.749 177.093 134.675 172.319 134.293 164.777L133.528 149.789C133.337 146.543 130.565 143.966 127.315 144.156L111.831 144.92C108.581 145.111 106 147.88 106.192 151.126L106.765 164.014C107.243 171.46 114.89 177.761 121.198 177.474Z" fill="#FACBB6"/>
<path d="M107.721 159.717C107.721 159.717 115.177 154.753 111.927 144.824L104.28 145.206C104.28 145.206 103.133 143.488 101.604 145.874C100.075 148.165 103.611 159.049 103.611 159.049L107.721 159.717Z" fill="#020102"/>
<path d="M109.824 154.276L112.596 146.734C112.596 146.734 130.852 149.025 135.344 143.87C139.646 138.905 136.109 131.459 132.477 130.695C129.609 130.122 126.551 132.7 124.352 133.941C122.154 135.182 116.993 134.036 115.368 133.941C113.838 133.846 107.052 132.509 104.949 139.574C104.949 139.574 93.9573 143.679 105.332 162.199C105.427 162.199 109.92 159.431 109.824 154.276Z" fill="#020102"/>
<path d="M111.544 153.225C111.544 153.225 111.067 163.249 113.265 166.113C115.463 168.977 116.706 166.018 124.639 164.777C132.572 163.536 134.58 167.164 134.58 167.164C134.58 167.164 134.197 177.283 123.779 177.76C115.654 178.142 103.516 176.424 105.14 163.44C106.67 150.552 106.096 147.211 106.096 147.211L111.544 153.225Z" fill="#020102"/>
<path d="M126.168 193.798C126.168 193.798 123.396 200.194 137.16 232.462C137.16 232.462 144.042 246.305 147.196 246.687C152.453 247.355 174.15 245.732 185.238 229.503L170.327 216.519L153.887 226.161L143.946 201.149C143.946 201.149 138.116 184.538 126.168 193.798Z" fill="#2A94F4"/>
<path d="M109.632 184.826L90.2293 192.94C88.7 193.608 87.7442 195.327 87.9354 197.045L94.6261 254.898C94.6261 254.898 121.485 258.049 141.461 253.848L139.836 197.523C140.028 195.804 139.359 194.086 138.116 192.845L124.065 183.775L109.632 184.826Z" fill="#2A94F4"/>
<path d="M110.015 184.825L120.338 189.025L124.256 183.488L110.015 184.825Z" fill="#FACBB6"/>
<path d="M130.087 238.189C130.087 238.189 134.771 248.691 114.316 245.827L93.1924 247.45L94.9129 241.053L108.39 239.717L124.257 239.621L130.087 238.189Z" fill="#FACBB6"/>
<path d="M89.4648 193.512C89.4648 193.512 80.0977 196.376 68.819 228.262C68.819 228.262 64.6134 240.481 66.7162 242.868C70.2528 246.687 90.4206 252.415 109.441 247.832L107.243 237.904L88.5089 234.276L97.7804 210.028C97.7804 210.123 104.567 194.466 89.4648 193.512Z" fill="#2A94F4"/>
<path d="M102.751 240.194L140.123 239.908V235.707L102.751 235.993C101.604 235.993 100.648 236.948 100.648 238.094C100.648 239.239 101.604 240.194 102.751 240.194Z" fill="#FABB58"/>
<path d="M135.249 239.908L184.76 239.527C187.628 239.527 190.113 237.617 190.877 234.849L200.244 200.099C201.105 197.044 198.715 193.989 195.561 194.084L150.064 194.371C148.152 194.371 146.527 195.707 146.049 197.521L135.249 239.908Z" fill="#FABB58"/>
<path d="M166.122 217.092C166.122 219.67 168.224 221.77 170.805 221.77C173.386 221.77 175.489 219.67 175.489 217.092C175.489 214.514 173.386 212.414 170.805 212.414C168.224 212.414 166.122 214.514 166.122 217.092Z" fill="white"/>
<path d="M416.26 221.481L423.142 225.682L422.569 229.978L428.017 235.133L420.944 243.916L404.312 231.983C404.312 231.983 408.805 216.994 409.856 217.376C410.812 217.663 416.26 221.481 416.26 221.481Z" fill="#FACBB6"/>
<path d="M406.415 217.281L409.378 239.43L420.943 239.811L423.715 217.281H406.415Z" fill="#FDE6CF"/>
<path d="M403.931 217.568H425.723V215.372H423.716V211.936L405.938 214.418V215.659H403.931V217.855" fill="#01384F"/>
<path d="M405.459 232.365C401.445 232.747 406.511 222.054 406.511 222.054C406.511 222.054 417.407 221.386 417.503 221.863C417.598 222.436 417.598 223.391 416.738 223.582C415.878 223.773 409.091 224.632 409.091 224.632C409.091 224.632 416.164 224.918 416.069 225.682C415.878 226.732 415.018 226.828 412.915 227.209C411.099 227.496 407.18 227.591 407.18 227.591C407.18 227.591 414.635 227.782 414.54 228.164C414.348 228.641 414.826 230.073 412.341 229.787C406.32 229.119 405.459 232.365 405.459 232.365Z" fill="#FACBB6"/>
<path d="M422.951 223.201C422.951 223.201 425.532 218.141 428.781 218.428C428.781 218.428 424.958 223.01 424.385 225.97C423.907 229.025 423.62 231.125 423.62 231.125H421.899L422.951 223.201Z" fill="#FACBB6"/>
<path d="M454.493 275.041C454.493 275.041 443.405 350.174 448.567 366.117C453.728 382.06 455.735 396.475 455.735 396.475L481.447 389.22C481.447 389.22 472.94 351.606 471.602 344.446C470.359 337.19 483.55 278.573 483.55 278.573L454.493 275.041Z" fill="#183F71"/>
<path d="M466.632 280.481L478.771 401.151H503.431C503.431 401.151 495.498 273.416 496.931 272.271C498.365 271.316 466.632 280.481 466.632 280.481Z" fill="#07488C"/>
<path d="M456.978 206.877C456.978 206.877 454.397 247.355 448.758 245.923C443.118 244.491 427.921 233.894 427.921 233.894L418.649 243.632C418.649 243.632 446.751 273.608 458.316 261.389C469.881 249.073 456.978 206.877 456.978 206.877Z" fill="#07488C"/>
<path d="M464.625 421.39L463 413.18L480.969 406.307L483.837 418.431L482.881 418.622C478.866 420.436 459.272 429.123 456.213 429.314C452.581 429.601 464.625 421.39 464.625 421.39Z" fill="#01384F"/>
<path d="M507.254 302.535L505.247 305.208C505.247 305.208 504.291 307.022 501.997 309.791C501.424 310.554 500.659 311.127 499.894 311.605C498.939 312.177 497.6 312.941 496.645 313.132C495.593 313.323 495.307 314.755 496.262 315.137C497.218 315.519 500.181 314.946 502.953 312.941C505.821 310.841 504.482 316.091 504.005 318.001C503.527 319.91 502.475 325.829 502.953 326.497C503.718 327.357 504.769 326.784 505.247 324.874C505.629 322.965 507.254 317.333 508.306 317.619C509.357 317.905 506.872 327.548 506.872 327.548C506.872 327.548 506.012 329.552 507.159 329.934C509.262 330.602 511.078 320.101 511.173 319.146C511.269 318.478 512.416 318.669 512.225 319.433C512.033 320.197 509.548 328.98 511.747 329.743C513.372 330.221 513.276 321.151 514.901 319.624C516.43 318.096 514.232 326.497 515.857 326.975C516.43 327.166 516.908 327.166 517.482 322.106C518.055 316.951 517.195 302.726 517.195 302.726L506.968 302.822" fill="#FACBB6"/>
<path d="M471.602 193.32C471.793 191.697 470.933 184.919 470.933 184.919C470.933 184.919 464.433 184.442 463.86 178.332C463.286 172.222 463.191 158.093 463.191 158.093L474.756 152.27L487.947 161.243L491.005 167.926L487.086 183.869V191.888L471.602 193.32Z" fill="#FACBB6"/>
<path d="M470.933 184.918C470.933 184.918 475.234 184.823 479.249 181.959C479.249 181.959 477.528 186.541 471.029 186.446L470.933 184.918Z" fill="#EEC2B0"/>
<path d="M490.719 174.609C488.998 178.332 487.947 183.774 487.947 183.774C486.991 185.492 486.704 180.146 486.704 180.146C486.704 180.146 485.844 174.991 486.608 172.986C486.608 172.986 489.858 174.036 490.623 168.403C491.005 165.635 486.608 164.298 485.461 167.64L482.785 167.926C482.785 167.926 482.594 157.52 476.286 159.43C476.286 159.43 471.698 162.103 469.021 160.48C466.345 158.857 466.536 158.284 466.536 158.284C466.536 158.284 465.198 161.052 461.757 159.239C458.221 157.425 457.838 154.179 458.985 152.651C459.654 151.792 460.323 150.742 461.47 150.551C462.617 150.36 463.86 150.837 464.625 151.697C463.764 150.456 464.338 148.737 465.676 147.878C466.919 147.114 468.639 147.114 470.073 147.687C471.507 148.26 472.654 149.215 473.801 150.074C474.565 147.878 477.05 146.351 479.535 146.541C481.925 146.732 484.123 148.642 484.506 150.933C485.844 149.406 488.329 149.024 490.241 149.883C492.152 150.742 493.395 152.651 493.777 154.656C494.159 156.661 493.682 158.666 492.917 160.575C494.351 159.811 496.358 160.384 497.409 161.625C498.461 162.866 498.365 164.776 497.696 166.208C496.931 167.64 495.593 168.785 494.159 169.549C495.306 170.408 495.593 172.031 494.924 173.272C494.255 174.513 492.63 175.086 491.292 174.609" fill="#01384F"/>
<path d="M486.13 170.981C486.13 170.981 486.226 171.076 486.417 171.171C486.608 171.267 486.799 171.267 487.086 171.267C487.66 171.076 488.233 170.217 488.329 169.358C488.329 168.88 488.329 168.403 488.138 168.021C488.042 167.639 487.755 167.353 487.469 167.257C487.182 167.162 486.991 167.353 486.895 167.448C486.799 167.544 486.799 167.735 486.799 167.735C486.799 167.735 486.704 167.639 486.704 167.448C486.704 167.353 486.799 167.257 486.895 167.162C486.991 167.066 487.182 167.066 487.469 167.066C487.851 167.162 488.233 167.544 488.424 167.926C488.616 168.307 488.711 168.88 488.616 169.358C488.52 170.408 487.851 171.362 487.086 171.553C486.704 171.649 486.417 171.458 486.226 171.362C486.13 171.076 486.13 170.981 486.13 170.981Z" fill="#F19180"/>
<path d="M512.798 209.359C512.798 209.359 508.401 189.884 486.991 191.889C467.492 193.798 467.492 193.798 467.492 193.798C467.492 193.798 454.11 199.24 455.927 214.61C457.743 229.98 458.698 243.918 458.221 246.687C457.743 249.36 453.059 273.513 454.397 275.232C468.543 291.652 504.387 265.494 504.387 265.494L512.798 209.359Z" fill="#2A94F4"/>
<path d="M486.991 191.888L491.961 305.876L506.776 298.239L505.247 197.139C505.247 197.043 501.232 190.552 486.991 191.888Z" fill="#07488C"/>
<path d="M517.864 304.636L512.798 209.36C511.173 203.536 507.828 199.049 503.431 195.23V305.877L517.864 304.636Z" fill="#07488C"/>
<path d="M471.602 193.32C471.602 193.32 458.221 199.621 458.89 221.101C459.559 242.486 450.861 302.916 450.861 302.916L439.773 300.721C439.773 300.721 452.677 243.44 453.251 233.321C453.824 223.106 452.868 208.595 460.037 198.571C465.198 191.506 471.602 193.32 471.602 193.32Z" fill="#07488C"/>
<path d="M486.991 191.889C486.991 191.889 491.387 201.244 490.91 204.681C490.432 208.118 488.998 215.374 488.998 215.374C488.998 215.374 492.248 217.283 491.961 218.906C491.674 220.529 488.616 237.045 488.616 237.045L486.991 191.889Z" fill="#1E3058"/>
<path d="M501.041 215.182C501.041 215.182 501.137 215.468 501.233 216.136C501.328 216.709 501.328 217.664 501.424 218.809C501.615 221.101 501.806 224.442 501.997 228.547C502.38 236.757 502.571 248.118 502.762 260.624C502.953 273.13 503.144 284.491 503.24 292.701C503.335 296.806 503.431 300.052 503.431 302.438C503.431 303.584 503.431 304.443 503.431 305.112C503.431 305.684 503.431 306.066 503.335 306.066C503.335 306.066 503.24 305.78 503.144 305.112C503.049 304.539 503.049 303.584 502.953 302.438C502.762 300.147 502.571 296.806 502.38 292.701C501.997 284.491 501.806 273.13 501.615 260.624C501.424 248.118 501.233 236.757 501.137 228.547C501.041 224.442 500.946 221.196 500.946 218.809C500.946 217.664 500.946 216.805 500.946 216.136C500.946 215.468 501.041 215.182 501.041 215.182Z" fill="#1E3058"/>
<path d="M464.433 412.609C464.624 412.513 459.941 395.329 459.941 395.329L475.712 390.938L479.057 407.071L464.433 412.609Z" fill="#FACBB6"/>
<path d="M500.755 401.152H482.881V414.613H500.755V401.152Z" fill="#FACBB6"/>
<path d="M481.065 421.964L482.69 413.754H501.997L499.99 425.783L498.939 425.878C494.542 426.069 472.94 427.215 469.977 426.356C466.728 425.401 481.065 421.964 481.065 421.964Z" fill="#01384F"/>
<path d="M393.225 154.656C393.225 166.017 383.954 175.277 372.579 175.277C361.205 175.277 351.934 166.017 351.934 154.656C351.934 143.295 361.205 134.035 372.579 134.035C373.726 134.035 374.778 134.131 375.925 134.322L372.579 154.656L391.696 146.732C392.652 149.119 393.225 151.792 393.225 154.656Z" fill="#FABB58"/>
<path d="M398.578 139.859L379.461 147.783L382.807 127.448C389.975 128.498 395.902 133.367 398.578 139.859Z" fill="#FABB58"/>
<path d="M313.031 175.181H281.011C280.342 175.181 279.673 174.608 279.673 173.844V154.083C279.673 153.414 280.247 152.746 281.011 152.746H313.031C313.701 152.746 314.37 153.319 314.37 154.083V173.844C314.274 174.608 313.701 175.181 313.031 175.181Z" fill="#FABB58"/>
<path d="M282.159 155.609L297.069 166.875L312.363 154.846" fill="#FABB58"/>
<path d="M282.159 155.609L297.069 166.875L312.363 154.846" stroke="white" stroke-width="1.062" stroke-miterlimit="10"/>
<path d="M281.681 173.176L290.57 162.197" stroke="white" stroke-width="1.062" stroke-miterlimit="10"/>
<path d="M311.789 173.176L302.9 162.197" stroke="white" stroke-width="1.062" stroke-miterlimit="10"/>
<path d="M320.869 323.823C320.869 323.823 281.967 322.296 275.946 307.88C269.924 293.465 266.961 255.564 248.036 254.037C229.111 252.51 216.589 251.555 216.589 264.538C216.589 277.522 208.082 319.814 234.081 326.306C258.454 332.415 291.143 344.158 315.708 331.556C318.671 330.124 320.583 327.165 320.869 323.823Z" fill="#F9B03D"/>
<path d="M284.834 332.225L314.465 425.782L324.788 429.028L295.54 336.998C292.29 336.521 289.04 336.043 284.834 332.225Z" fill="#2A94F4"/>
<path d="M203.686 425.973L237.426 319.432H228.155L194.414 425.973H203.686Z" fill="#2A94F4"/>
<path d="M217.067 260.242C217.067 260.242 223.089 301.77 231.5 303.775C239.911 305.78 256.638 303.489 263.329 308.358C270.02 313.226 291.621 337.189 291.621 337.189C291.621 337.189 240.772 336.138 220.795 320.195C200.914 304.443 217.067 260.242 217.067 260.242Z" fill="#FBC36B"/>
<path d="M284.739 196.567C285.599 198.763 284.93 201.15 284.356 203.441C283.783 205.732 283.496 208.31 285.025 210.219C286.555 212.128 289.422 212.797 291.429 214.42C293.341 215.947 294.393 218.334 294.01 220.53C293.723 222.057 292.863 223.68 293.819 225.017C294.297 225.685 295.157 226.067 296.017 226.449C297.833 227.212 299.745 227.881 301.466 228.835C303.186 229.79 304.715 231.031 305.48 232.749C306.531 235.041 305.767 237.618 304.811 239.909C303.951 242.201 302.708 244.587 300.319 245.733C298.503 246.592 296.304 246.592 294.201 246.401C288.084 245.924 282.062 244.492 276.423 242.201C272.887 240.769 269.446 238.859 267.247 236.091C263.806 231.699 264.189 225.971 265.144 220.816C265.718 217.952 266.483 214.992 268.777 212.797C270.975 210.696 274.32 209.551 277.666 209.455C281.011 209.264 281.489 195.613 284.739 196.567Z" fill="#01384F"/>
<path d="M257.211 212.413C254.439 208.499 253.292 203.726 254.057 199.144C254.917 194.657 257.689 190.456 261.703 187.688" fill="#01384F"/>
<path d="M285.981 290.411C285.981 290.411 360.057 280.005 372.292 301.867C384.526 323.729 385.769 386.069 385.769 386.069L369.329 388.933C369.329 388.933 352.506 317.428 344.095 314.277C335.588 311.127 278.43 313.227 278.43 313.227L285.981 290.411Z" fill="#EFC5B4"/>
<path d="M385.769 386.068C385.769 386.068 402.496 386.641 399.151 388.264C395.805 389.887 369.616 392.656 369.616 392.656L369.329 388.455L385.769 386.068Z" fill="#01384F"/>
<path d="M334.346 297.57L332.052 286.209C313.796 285.732 294.584 288.787 275.181 292.892L334.346 297.57Z" fill="#07488C"/>
<path d="M278.622 231.221C278.622 231.221 292.29 230.839 294.871 251.269C298.694 280.769 338.456 266.162 338.456 266.162L350.117 274.086C350.117 274.086 328.038 292.797 298.694 280.769C269.446 268.74 278.622 231.221 278.622 231.221Z" fill="#FACBB6"/>
<path d="M242.492 251.556L240.58 266.64L236.279 294.803C247.94 300.912 264.858 301.294 281.489 304.158C277.475 290.029 276.137 276.091 281.871 262.248C281.871 262.248 288.084 259.671 285.312 256.138C281.776 251.747 281.011 248.024 281.011 248.024L244.308 247.355" fill="#CDEAFB"/>
<path d="M273.173 230.171C272.982 228.453 274.416 221.674 274.416 221.674C274.416 221.674 281.776 221.674 282.731 215.469C283.687 209.264 284.547 194.848 284.547 194.848L271.739 187.975L257.88 196.28L255.682 227.593L273.173 230.171Z" fill="#F6B69A"/>
<path d="M274.416 221.675C274.416 221.675 269.541 221.293 265.049 218.047C265.049 218.047 266.769 222.82 274.129 223.202L274.416 221.675Z" fill="#F19180"/>
<path d="M236.948 294.803C236.948 294.803 232.264 324.875 261.513 328.694L257.976 293.275L236.948 294.803Z" fill="#07488C"/>
<path d="M270.401 296.426C270.401 296.426 364.741 292.702 372.387 309.982C380.034 327.261 364.741 395.234 364.741 395.234L346.771 392.084C346.771 392.084 350.021 327.357 346.007 324.302C341.992 321.247 265.049 329.171 258.932 327.739C252.145 326.211 230.448 300.34 270.401 296.426Z" fill="#FACBB6"/>
<path d="M363.307 393.801C363.307 393.801 379.174 398.766 375.351 399.434C371.528 400.102 346.581 395.997 346.581 395.997V390.078L363.307 393.801Z" fill="#01384F"/>
<path d="M337.596 266.544L340.368 264.921C340.368 264.921 342.279 264.157 345.147 262.248C345.912 261.77 346.485 261.102 347.059 260.434C347.632 259.575 348.397 258.429 348.588 257.665C348.779 256.711 350.213 256.52 350.691 257.379C351.073 258.143 350.595 260.72 348.397 263.202C346.294 265.589 351.742 264.539 353.654 264.252C355.661 263.871 361.874 263.011 362.447 263.489C363.403 264.157 362.734 265.112 360.727 265.398C358.72 265.684 352.889 267.021 353.176 267.88C353.463 268.739 363.499 266.83 363.499 266.83C363.499 266.83 365.601 266.162 365.984 267.116C366.653 269.026 355.757 270.362 354.705 270.458C353.94 270.553 354.227 271.508 354.992 271.412C355.757 271.317 365.028 269.312 365.697 271.221C366.271 272.653 356.712 272.367 355.087 273.704C353.463 275.04 362.352 273.226 362.734 274.658C362.925 275.136 362.925 275.613 357.668 275.995C352.316 276.377 337.405 275.422 337.405 275.422V266.544" fill="#FACBB6"/>
<path d="M281.011 249.645V231.602L275.467 229.979L258.072 227.402C258.072 227.402 247.462 225.683 243.447 228.165C239.433 230.648 241.249 251.364 241.249 251.364L281.011 249.645Z" fill="#CDEAFB"/>
<path d="M251.859 226.735C251.859 226.735 229.779 220.434 228.728 253.274C227.581 286.688 285.504 297.571 285.504 297.571L287.893 285.256C287.893 285.256 246.793 271.318 245.072 257.189C243.256 243.059 251.859 226.735 251.859 226.735Z" fill="#FACBB6"/>
<path d="M333.199 299.289L359.388 260.529L356.712 258.811L330.236 296.329L290.856 289.646L290.187 291.938L333.199 299.289Z" fill="#A9CCEA"/>
<path d="M286.364 198.285C286.364 198.285 288.467 188.452 272.6 185.206C256.734 182.056 254.917 198.667 254.917 198.667L263.807 197.999L266.101 193.894L266.005 197.999L272.6 198.19L272.505 195.135L274.129 197.712L286.364 198.285Z" fill="#01384F"/>
<path d="M286.46 285.16C286.46 285.16 292.959 285.924 296.878 282.201C300.797 278.478 301.657 282.869 297.451 286.21C293.246 289.552 291.334 290.22 291.334 290.22C291.334 290.22 312.267 296.998 307.774 296.807C303.282 296.616 282.636 296.425 282.636 296.425L286.46 285.16Z" fill="#FACBB6"/>
<path d="M332.53 326.688L338.551 298.334C338.551 298.334 259.983 288.024 248.322 295.566C236.757 303.108 240.198 328.215 261.417 328.693C282.636 329.17 332.53 326.688 332.53 326.688Z" fill="#07488C"/>
<path d="M217.067 260.242C217.067 260.242 223.088 301.77 231.5 303.775C239.911 305.78 256.638 303.489 263.328 308.358C270.019 313.226 291.621 337.189 291.621 337.189C291.621 337.189 240.771 336.138 220.794 320.195C200.913 304.443 217.067 260.242 217.067 260.242Z" fill="#FBC36B"/>
<path d="M187.246 289.934H176.445V425.592H187.246V289.934Z" fill="#0E2537"/>
<path d="M127.698 289.934H116.897V425.592H127.698V289.934Z" fill="#0E2537"/>
<path d="M453.441 289.934H442.641V425.592H453.441V289.934Z" fill="#0B344C"/>
<path d="M393.894 289.934H383.093V425.592H393.894V289.934Z" fill="#0B344C"/>
<path d="M460.897 286.4H109.537V297.379H460.897V286.4Z" fill="#0B344C"/>
<path d="M187.628 286.4H109.537V297.379H187.628V286.4Z" fill="#2A94F4"/>
<path d="M367.417 285.255H302.804L314.274 251.555H378.983L367.417 285.255Z" fill="#D9D9D9"/>
<path d="M367.609 284.682H277.475V286.305H367.609V284.682Z" fill="#D9D9D9"/>
<path d="M346.676 269.311C346.676 270.934 345.051 272.271 343.044 272.271C341.037 272.271 339.412 270.934 339.412 269.311C339.412 267.688 341.037 266.352 343.044 266.352C345.051 266.352 346.676 267.688 346.676 269.311Z" fill="#D9D9D9"/>
<path d="M388.637 286.305H387.108C384.144 286.305 381.755 283.918 381.755 280.959V273.799H393.989V280.959C393.894 283.918 391.504 286.305 388.637 286.305Z" fill="#FABB58"/>
<path d="M394.754 281.817C394.181 281.817 393.703 281.722 393.129 281.531L393.798 280.385C395.328 280.958 396.284 280.099 396.857 279.24C397.717 277.808 397.622 276.185 397.048 275.898C395.519 275.135 393.607 276.185 393.607 276.28L392.747 275.23C392.843 275.135 395.423 273.703 397.908 274.848C399.533 275.612 399.438 278.094 398.291 279.908C397.431 281.054 396.188 281.817 394.754 281.817Z" fill="#FABB58"/>
</svg>
