<svg width="540" height="540" viewBox="0 0 540 540" fill="none" xmlns="http://www.w3.org/2000/svg">
<path d="M501 334C496.1 334 491.55 335.5 487.7 338.05C486.85 324.9 475.9 314.5 462.5 314.5C458.25 314.5 454.25 315.55 450.75 317.4C450.75 317.2 450.75 316.95 450.75 316.75C450.75 289.85 428.9 268 402 268C388.75 268 376.8 273.25 368 281.8C366.8 276.05 361.4 271.85 355.15 272.55C349.55 273.15 345.1 277.85 344.75 283.45C344.3 290.3 349.75 295.95 356.5 295.95C357 295.95 357.45 295.9 357.9 295.85C354.9 302.15 353.25 309.25 353.25 316.7C353.25 316.9 353.25 317.1 353.25 317.3L268.75 296L268.65 296.05L268.5 296V296.05L184 317.35C184 317.15 184 316.95 184 316.75C184 309.3 182.3 302.25 179.35 295.9C179.8 295.95 180.3 296 180.75 296C187.5 296 192.9 290.35 192.5 283.5C192.15 277.85 187.7 273.2 182.1 272.6C175.85 271.9 170.5 276.1 169.25 281.85C160.45 273.3 148.45 268.05 135.25 268.05C108.35 268.05 86.5 289.9 86.5 316.8C86.5 317 86.5 317.25 86.5 317.45C83 315.6 79 314.55 74.75 314.55C61.35 314.55 50.45 324.95 49.55 338.1C45.7 335.55 41.1 334.05 36.25 334.05C22.3 334 11 346.1 11 361V362.1C11 407.05 47.45 443.5 92.4 443.5H268.5H268.75H452.05C493.05 443.5 526.25 410.3 526.25 369.3V361C526.25 346.1 514.95 334 501 334Z" fill="#E9E9E9"/>
<path d="M275.45 157.5H268.95H268.7H268.45H261.95C256.45 193 194.45 316 99.9497 316C122.65 316 259.2 316 268.45 316C268.8 316 268.95 316 268.95 316C278.2 316 414.75 316 437.45 316C342.95 316 280.95 193 275.45 157.5Z" fill="#E9E9E9"/>
<path d="M524.8 476.65H15.2C12.35 476.65 10 474.3 10 471.45V440.7C10 437.85 12.35 435.5 15.2 435.5H524.8C527.65 435.5 530 437.85 530 440.7V471.45C530 474.35 527.65 476.65 524.8 476.65Z" fill="#F7F7F7"/>
<path d="M286.9 269.25C287.3 264.5 288.5 258.15 286.9 254.2C285.3 250.25 282.15 247.45 278.95 246.25C275.8 245.05 271.4 242.7 267.45 243.1C263.5 243.5 257.55 247.45 255.55 249.45C253.55 251.45 250.8 258.55 250.8 261.35C250.8 264.1 253.2 267.7 253.95 270.05C254.7 272.4 253.95 278.35 259.1 280.75C264.25 283.15 265.05 285.1 271.8 283.5C278.55 281.9 284.9 278.35 285.3 276.75C285.7 275.15 286.9 269.25 286.9 269.25Z" fill="#0E538C"/>
<path d="M270 278.1C290.75 278.1 307.75 295.1 307.75 315.85V378.55C307.75 381.15 305.6 383.3 303 383.3H237C234.4 383.3 232.25 381.15 232.25 378.55V315.85C232.25 295.05 249.25 278.1 270 278.1Z" fill="#E2E2E2"/>
<path d="M394 353.85H146V360.85H394V353.85Z" fill="#DCF2FF"/>
<path d="M376.2 360.85H163.85V457.9H376.2V360.85Z" fill="#B6E7FF"/>
<path d="M312.7 331.849L306.65 299.749C305.4 290.449 274.2 282.699 274.2 282.699C271.8 282.699 267.8 282.699 265.4 282.699C265.4 282.699 234.05 290.999 232.8 300.299L225 332.249C223.05 346.749 235.1 345.699 248.1 349.949L265.45 355.649C267.85 355.649 271.85 355.649 274.25 355.649L291.6 349.949C304.55 345.699 314.7 346.349 312.7 331.849Z" fill="#FFBE55"/>
<path d="M304.7 307.301V307.551L303.55 356.551C302.95 357.051 302.15 357.351 301.3 357.351H237.6C237.4 357.351 237.2 357.351 237.05 357.301L235.75 307.301H304.7Z" fill="#2A94F4"/>
<path d="M260.95 276.899L263.6 290.149L270.15 301.599L275.6 290.149L277.75 276.699L260.95 276.899Z" fill="#FCD2B1"/>
<path d="M285 264.25C285 278.65 282.5 284.3 273.5 287.6C271.2 288.45 268.75 288.35 266.4 287.65C257.55 285.05 255 278.5 255 264.25C255 255.1 260.35 252.15 268.65 252.15C276.95 252.15 285 255.1 285 264.25Z" fill="#FFE3CA"/>
<path d="M255.895 275.158C257.543 274.988 258.633 272.468 258.331 269.529C258.028 266.59 256.446 264.345 254.798 264.515C253.15 264.685 252.059 267.205 252.362 270.144C252.665 273.083 254.247 275.328 255.895 275.158Z" fill="#FFE3CA"/>
<path d="M288.064 270.18C288.367 267.241 287.276 264.721 285.628 264.551C283.98 264.381 282.399 266.626 282.096 269.565C281.793 272.504 282.883 275.024 284.531 275.194C286.18 275.364 287.761 273.119 288.064 270.18Z" fill="#FFE3CA"/>
<path d="M306.65 310.7L304.85 353.8C304.85 354.9 304.35 355.9 303.55 356.55C302.95 357.05 302.15 357.35 301.3 357.35H237.6C237.4 357.35 237.2 357.35 237.05 357.3C235.35 357.05 234.05 355.55 234.05 353.8L232.25 310.7C232.25 308.75 233.85 307.15 235.8 307.15H303.1C303.4 307.15 303.7 307.2 304 307.25C304.25 307.3 304.5 307.4 304.7 307.5C305.85 308.15 306.65 309.35 306.65 310.7Z" fill="#2A94F4"/>
<path d="M269.35 338.951C273.05 338.951 276.05 335.951 276.05 332.251C276.05 328.551 273.05 325.551 269.35 325.551C265.65 325.551 262.65 328.551 262.65 332.251C262.65 335.951 265.65 338.951 269.35 338.951Z" fill="white"/>
<path d="M195.9 355.651H191C188.5 355.651 186.45 353.601 186.45 351.101V336.451H200.45V351.101C200.45 353.601 198.4 355.651 195.9 355.651Z" fill="#FFBE55"/>
<path opacity="0.59" d="M194 334.75C193.75 334.75 193.55 334.65 193.35 334.55C193.15 334.4 193 334.2 192.85 334C192.6 333.6 192.45 333.1 192.45 332.55C192.45 332 192.75 331.4 193.1 331.05C193.45 330.65 193.75 330.4 193.9 330.2C194.1 330 194.15 329.9 194.25 329.65C194.3 329.45 194.35 329.15 194.35 328.85C194.35 328.25 194.1 327.5 193.9 326.65C194.3 326.8 194.7 327.05 195.05 327.35C195.4 327.65 195.7 328.05 195.85 328.5C196.05 328.95 196.15 329.45 196.1 330C196.1 330.3 196 330.55 195.85 330.85C195.7 331.1 195.55 331.35 195.35 331.55C195 331.95 194.65 332.15 194.45 332.35C194.25 332.55 194.1 332.65 194 332.85C193.9 333.05 193.8 333.4 193.8 333.7C193.75 334.05 193.75 334.4 194 334.75Z" fill="#FFBE55"/>
<path d="M198.8 347.951V346.751C200.6 346.751 201.85 346.201 202.35 345.151C202.75 344.351 202.65 343.401 202.05 342.651C201.35 341.751 200.2 341.351 198.9 341.601L198.7 340.451C200.45 340.151 202.1 340.701 203.05 341.951C203.9 343.051 204.05 344.501 203.45 345.701C203 346.551 201.85 347.951 198.8 347.951Z" fill="#FFBE55"/>
<path d="M340.05 333.8L337.2 334.35L334.4 319L335.3 315.85L337.25 318.5L340.05 333.8Z" fill="#2A94F4"/>
<path d="M349.45 337.049L346.65 336.349L350.35 321.249L352.5 318.699L353.2 321.949L349.45 337.049Z" fill="#DCF2FF"/>
<path d="M348.3 335.35L345.4 335L347.2 319.5L349 316.75L350.1 319.85L348.3 335.35Z" fill="#80D5FF"/>
<path d="M352.7 325.549L352.5 330.649L352 342.549L351.5 355.649H335.15L334.5 342.549L333.85 330.649L333.6 325.549H352.7Z" fill="#FFBE55"/>
<path d="M352.5 330.65L352 342.55H334.5L333.85 330.65H352.5Z" fill="#2A94F4"/>
<path d="M253.55 262.101C252.6 261.451 253.65 258.801 253.4 257.601C253.1 256.301 253.8 255.001 254.6 254.001C257.1 251.101 260.8 249.951 264.4 249.701C268 249.451 271.6 249.901 275.15 249.551C278.75 249.201 282.45 247.851 284.75 244.751C284.95 244.501 286.25 244.451 286.55 244.851C287.65 246.351 288.75 247.901 289.45 249.701C290.15 251.501 290.3 253.601 289.55 255.401C288.55 257.701 285.6 259.401 283.45 260.201C283.45 260.101 263.75 268.851 253.55 262.101Z" fill="#0E538C"/>
<path d="M280.15 258.95L284.5 268.05L286.9 257.35L280.15 258.95Z" fill="#0E538C"/>
<path d="M258.35 260.9C257.55 261.7 256.35 270 256.35 270L253.15 260.25L258.35 260.9Z" fill="#0E538C"/>
<path d="M376.1 361H163.95V364.4H376.1V361Z" fill="#80D5FF"/>
<path d="M251.3 128.15L238.35 144.8L258.95 171.45L259 152.9L251.3 128.15Z" fill="#FFBE55"/>
<path d="M286.1 128.199L299 144.849L278.35 171.499V152.899L286.1 128.199Z" fill="#FFBE55"/>
<path d="M276 149.85L275.25 157.5H261.9L261.35 149.85H276Z" fill="#0E538C"/>
<path d="M268.8 25C268.8 25 285.2 48.55 290.65 75.6C290.75 76.1 290.85 76.6 290.95 77.1C291.05 77.6 291.15 78.1 291.2 78.6C291.95 83.05 292.4 87.6 292.4 92.15C292.4 114 285.6 138.65 278.7 152.9H259C252.1 138.6 245.05 113.95 245.05 92.1C245.05 87.6 245.5 83.05 246.25 78.55C246.35 78.05 246.45 77.55 246.5 77.05C246.6 76.55 246.7 76.05 246.8 75.55C252.35 48.55 268.8 25 268.8 25Z" fill="#CCE9FF"/>
<path d="M268.8 25C268.8 25 285.2 48.55 290.65 75.6C290.75 76.1 290.85 76.6 290.95 77.1C284.15 81.85 276.45 84.4 268.75 84.35C261.05 84.35 253.4 81.8 246.55 77.05C246.65 76.55 246.75 76.05 246.85 75.55C252.35 48.55 268.8 25 268.8 25Z" fill="#FFBE55"/>
<path d="M246.85 75.5498C246.75 76.0498 246.65 76.5498 246.55 77.0498C246.45 77.5498 246.35 78.0498 246.3 78.5498C249.5 80.7498 252.9 82.4498 256.4 83.6498C260.4 85.0498 264.6 85.7498 268.75 85.7498C272.95 85.7498 277.1 85.0498 281.1 83.6998C284.6 82.4998 288 80.7998 291.2 78.5998C291.1 78.0998 291.05 77.5998 290.95 77.0998C290.85 76.5998 290.75 76.0998 290.65 75.5998C284.1 80.2998 276.65 82.9998 268.75 82.9998C260.85 82.9498 253.4 80.2998 246.85 75.5498Z" fill="#FFBE55"/>
<path d="M249.85 70.05C251.95 62.2 263.15 36.6 267.15 31C265.6 36.25 252.45 67.6 254.55 70.05C251.8 70.4 249.85 70.05 249.85 70.05Z" fill="white"/>
<path d="M271.3 128.199L271.25 162.899L268.65 171.449L266.05 162.899L266.1 128.199H271.3Z" fill="#FFBE55"/>
<path d="M504 312.5C513.941 312.5 522 304.441 522 294.5C522 284.559 513.941 276.5 504 276.5C494.059 276.5 486 284.559 486 294.5C486 304.441 494.059 312.5 504 312.5Z" fill="#F2F2F2"/>
<path d="M453.25 286.5C455.597 286.5 457.5 284.597 457.5 282.25C457.5 279.903 455.597 278 453.25 278C450.903 278 449 279.903 449 282.25C449 284.597 450.903 286.5 453.25 286.5Z" fill="#F2F2F2"/>
<path d="M467.75 260.5C473.411 260.5 478 255.911 478 250.25C478 244.589 473.411 240 467.75 240C462.089 240 457.5 244.589 457.5 250.25C457.5 255.911 462.089 260.5 467.75 260.5Z" fill="#F2F2F2"/>
<path d="M50.25 286.5C59.7769 286.5 67.5 278.777 67.5 269.25C67.5 259.723 59.7769 252 50.25 252C40.7231 252 33 259.723 33 269.25C33 278.777 40.7231 286.5 50.25 286.5Z" fill="#F2F2F2"/>
<path d="M86.75 286.5C89.0972 286.5 91 284.597 91 282.25C91 279.903 89.0972 278 86.75 278C84.4028 278 82.5 279.903 82.5 282.25C82.5 284.597 84.4028 286.5 86.75 286.5Z" fill="#F2F2F2"/>
<path d="M88.25 243C93.9109 243 98.5 238.411 98.5 232.75C98.5 227.089 93.9109 222.5 88.25 222.5C82.5891 222.5 78 227.089 78 232.75C78 238.411 82.5891 243 88.25 243Z" fill="#F2F2F2"/>
<path d="M448.35 449.25C440.2 449.25 436.75 442.7 435.35 435.8C433.8 428 434.95 419.65 434.95 419.65H461.75C461.75 419.65 461.8 419.95 461.85 420.55C462.3 425.5 463.95 449.25 448.35 449.25Z" fill="#B6E7FF"/>
<path d="M461.75 419.7C461.75 420.3 455.75 420.75 448.35 420.75C440.95 420.75 434.95 420.3 434.95 419.7C434.95 419.1 440.95 418.65 448.35 418.65C455.75 418.65 461.75 419.1 461.75 419.7Z" fill="#85DDFF"/>
<path d="M415 345.451C415 345.451 429.1 366.951 437.6 380.051C446.05 393.151 448.3 395.901 449.3 400.151C450.3 404.401 451.2 420.001 451.2 420.001H452.3C452.3 420.001 453 406.801 451.7 402.451C450.4 398.101 450.9 396.401 451.5 391.851C452.1 387.301 452.9 380.051 448.3 375.001C443.7 369.951 444.9 365.001 443.3 361.701C441.7 358.351 429.2 354.351 427.55 350.901C426 347.451 418.95 345.351 415 345.451Z" fill="#FFBE55"/>
<path opacity="0.26" d="M415 345.451C415 345.451 419.45 350.501 422.45 352.201C425.5 353.901 426.9 352.401 429.2 356.551C431.5 360.701 431.6 362.501 433.75 364.601C435.85 366.701 438.4 366.801 438.6 371.451C438.8 376.101 437.6 380.051 437.6 380.051C437.6 380.051 415.9 346.551 415 345.451Z" fill="white"/>
<path d="M447.9 420H446.9C446.9 420 446.6 413.15 443.85 409.8C442.1 407.65 434.65 405.2 427.25 402.3C423.2 400.7 419.15 398.95 416.1 397C407.5 391.55 399.35 374 398.65 370.85C398.4 369.75 398.3 369.1 398.3 368.65C398.3 367.8 398.75 367.7 399.45 366.85C399.8 366.45 400.85 366.6 402.1 366.95C405.8 368.1 408.9 370.6 410.85 373.95C412.65 377.05 415.5 380.9 419 381.85C425.05 383.45 424.55 384.45 426.8 390.65C429.05 396.8 434.65 397.8 441.7 405.05C448.8 412.35 447.9 420 447.9 420Z" fill="#FFBE55"/>
<path opacity="0.26" d="M427.25 402.3C423.2 400.7 419.15 398.95 416.1 397C407.5 391.55 399.35 374 398.65 370.85C398.4 369.75 398.3 369.1 398.3 368.65C398.3 368.85 398.7 371.65 403.2 373.5C407.85 375.4 408.75 375.4 409.35 378.35C409.95 381.25 410.45 384.4 412.9 385C415.3 385.6 416.85 382.9 418.75 387.3C420.65 391.75 421.6 393.25 423.35 393.85C425.1 394.45 426.45 393.55 426.85 397C427.05 399.1 427.2 401.05 427.25 402.3Z" fill="white"/>
<path d="M448.351 449.251C440.201 449.251 436.751 442.701 435.351 435.801C443.351 432.751 453.451 427.901 461.801 420.551C462.301 425.501 463.951 449.251 448.351 449.251Z" fill="#CCE9FF"/>
<path d="M97.5502 449.25C107.35 449.25 111.5 441.4 113.1 433.1C114.95 423.75 113.6 413.75 113.6 413.75H81.5002C81.5002 413.75 81.4502 414.15 81.4002 414.8C80.7502 420.75 78.8002 449.25 97.5502 449.25Z" fill="#B6E7FF"/>
<path d="M81.4502 413.799C81.4502 414.499 88.6502 415.049 97.5002 415.049C106.35 415.049 113.55 414.499 113.55 413.799C113.55 413.099 106.35 412.549 97.5002 412.549C88.6502 412.549 81.4502 413.099 81.4502 413.799Z" fill="#85DDFF"/>
<path d="M54.0503 324.799C54.0503 324.799 71.0003 350.549 81.1503 366.299C91.3003 382.049 93.9503 385.299 95.2003 390.349C96.4003 395.449 97.5003 414.199 97.5003 414.199H98.2503C98.2503 414.199 98.0003 398.299 97.0503 392.949C96.1503 387.749 97.1003 385.899 97.8503 380.449C98.6003 374.999 99.5503 366.299 94.0503 360.249C88.5503 354.199 90.0003 348.299 88.0503 344.299C86.1003 340.299 71.1003 335.449 69.2003 331.349C67.2503 327.199 58.7503 324.649 54.0503 324.799Z" fill="#FFBE55"/>
<path opacity="0.26" d="M54.0503 324.799C54.0503 324.799 59.3503 330.849 63.0003 332.899C66.6503 334.949 68.3003 333.149 71.1003 338.099C73.9003 343.049 74.0003 345.249 76.5503 347.799C79.1003 350.349 82.1003 350.449 82.3503 355.999C82.6003 361.549 81.1503 366.299 81.1503 366.299C81.1503 366.299 55.1503 326.099 54.0503 324.799Z" fill="white"/>
<path d="M96.15 414.149H95.4C95.4 414.149 95.15 408.999 93.15 406.499C91.85 404.899 86.25 403.049 80.7 400.849C77.65 399.649 74.6 398.299 72.35 396.849C65.9 392.749 59.75 379.549 59.25 377.199C59.05 376.399 59 375.899 59 375.549C59 374.899 59.35 374.799 59.85 374.199C60.1 373.899 60.9 373.999 61.85 374.299C64.65 375.149 66.95 377.049 68.4 379.549C69.75 381.899 71.9 384.799 74.5 385.499C79.05 386.699 78.65 387.449 80.35 392.099C82 396.699 86.25 397.499 91.55 402.949C96.8 408.399 96.15 414.149 96.15 414.149Z" fill="#FFBE55"/>
<path opacity="0.26" d="M80.6502 400.9C77.6002 399.7 74.5502 398.35 72.3002 396.9C65.8502 392.8 59.7002 379.6 59.2002 377.25C59.0002 376.45 58.9502 375.95 58.9502 375.6C58.9502 375.75 59.2502 377.85 62.6002 379.25C66.1002 380.7 66.7502 380.7 67.2002 382.9C67.6502 385.1 68.0502 387.45 69.8502 387.9C71.6502 388.35 72.8002 386.3 74.2502 389.65C75.7002 393 76.4002 394.1 77.7002 394.55C79.0002 395 80.0502 394.3 80.3002 396.9C80.5002 398.45 80.6002 399.95 80.6502 400.9Z" fill="white"/>
<path d="M101.7 414.149H102.6C102.6 414.149 104.35 382.249 106.8 379.299C108.35 377.399 113.5 373.949 120.1 371.349C123.7 369.899 127.3 368.349 130 366.649C137.65 361.799 144.9 346.199 145.5 343.399C145.7 342.449 145.8 341.849 145.8 341.449C145.8 340.699 145.4 340.599 144.75 339.849C144.45 339.499 143.5 339.599 142.4 339.949C139.1 340.949 136.35 343.199 134.6 346.199C133 348.949 130.45 352.399 127.35 353.249C121.95 354.699 122.4 355.599 120.45 361.049C118.45 366.549 113.45 367.399 107.2 373.899C100.9 380.299 101.7 414.149 101.7 414.149Z" fill="#FFBE55"/>
<path opacity="0.26" d="M120.05 371.4C123.65 369.95 127.25 368.4 129.95 366.7C137.6 361.85 144.85 346.25 145.45 343.45C145.65 342.5 145.75 341.9 145.75 341.5C145.75 341.7 145.35 344.15 141.4 345.8C137.3 347.5 136.45 347.5 135.95 350.1C135.4 352.7 134.95 355.5 132.8 356C130.65 356.55 129.3 354.1 127.6 358.05C125.9 362 125.1 363.35 123.5 363.9C121.95 364.45 120.75 363.65 120.4 366.7C120.25 368.5 120.1 370.3 120.05 371.4Z" fill="white"/>
<path d="M97.5503 449.249C107.35 449.249 111.5 441.399 113.1 433.099C103.5 429.449 91.4003 423.599 81.3503 414.799C80.7503 420.749 78.8003 449.249 97.5503 449.249Z" fill="#CCE9FF"/>
</svg>
