<svg width="24" height="25" viewBox="0 0 24 25" fill="none" xmlns="http://www.w3.org/2000/svg">
<g clip-path="url(#clip0)">
<path d="M23.2448 10.8784C23.6619 10.8784 24 10.5363 24 10.1142V6.24071C24 5.81866 23.6619 5.47656 23.2448 5.47656H0.75517C0.338127 5.47656 0 5.81866 0 6.24071V10.1142C0 10.5363 0.338127 10.8784 0.75517 10.8784C1.75544 10.8784 2.56923 11.7018 2.56923 12.714C2.56923 13.7263 1.75544 14.5496 0.75517 14.5496C0.338127 14.5496 0 14.8917 0 15.3138V19.1873C0 19.6094 0.338127 19.9515 0.75517 19.9515H23.2448C23.6619 19.9515 24 19.6094 24 19.1873V15.3138C24 14.8917 23.6619 14.5496 23.2448 14.5496C22.2446 14.5496 21.4308 13.7262 21.4308 12.714C21.4308 11.7018 22.2446 10.8784 23.2448 10.8784ZM1.51034 15.9904C2.98084 15.6434 4.07957 14.3061 4.07957 12.714C4.07957 11.1219 2.98084 9.78457 1.51034 9.43759V7.00482H7.17119V18.4232H1.51034V15.9904ZM22.4897 15.9904V18.4232H8.68153V7.00482H22.4897V9.43759C21.0192 9.78457 19.9204 11.1219 19.9204 12.714C19.9204 14.3062 21.0192 15.6434 22.4897 15.9904Z" fill="#A5A5A5"/>
</g>
<defs>
<clipPath id="clip0">
<rect width="24" height="24.2855" fill="white" transform="translate(0 0.570312)"/>
</clipPath>
</defs>
</svg>
