<svg width="24" height="16" viewBox="0 0 24 16" fill="none" xmlns="http://www.w3.org/2000/svg">
<path d="M23.2448 6.16546C23.6619 6.16546 24 5.82336 24 5.40131V1.52782C24 1.10577 23.6619 0.763672 23.2448 0.763672H0.75517C0.338127 0.763672 0 1.10577 0 1.52782V5.40131C0 5.82336 0.338127 6.16546 0.75517 6.16546C1.75544 6.16546 2.56923 6.98893 2.56923 8.00115C2.56923 9.01336 1.75544 9.83674 0.75517 9.83674C0.338127 9.83674 0 10.1788 0 10.6009V14.4744C0 14.8965 0.338127 15.2386 0.75517 15.2386H23.2448C23.6619 15.2386 24 14.8965 24 14.4744V10.6009C24 10.1788 23.6619 9.83674 23.2448 9.83674C22.2446 9.83674 21.4308 9.01332 21.4308 8.0011C21.4308 6.98889 22.2446 6.16546 23.2448 6.16546ZM1.51034 11.2775C2.98084 10.9305 4.07957 9.59321 4.07957 8.0011C4.07957 6.40899 2.98084 5.07168 1.51034 4.7247V2.29193H7.17119V13.7103H1.51034V11.2775ZM22.4897 11.2775V13.7103H8.68153V2.29193H22.4897V4.7247C21.0192 5.07168 19.9204 6.40904 19.9204 8.00115C19.9204 9.59326 21.0192 10.9305 22.4897 11.2775Z" fill="#FFA83D"/>
</svg>
