<svg width="24" height="26" viewBox="0 0 24 26" fill="none" xmlns="http://www.w3.org/2000/svg">
<g clip-path="url(#clip0)">
<path d="M21.8906 0.904297H2.10938C0.946266 0.904297 0 1.86182 0 3.03876V22.9604C0 24.1374 0.946266 25.0949 2.10938 25.0949H21.8906C23.0537 25.0949 24 24.1374 24 22.9604V3.03876C24 1.86182 23.0537 0.904297 21.8906 0.904297ZM2.10938 2.32727H21.8906C22.2783 2.32727 22.5938 2.64645 22.5938 3.03876V6.59621H1.40625V3.03876C1.40625 2.64645 1.72167 2.32727 2.10938 2.32727ZM21.8906 23.6719H2.10938C1.72167 23.6719 1.40625 23.3528 1.40625 22.9604V8.01918H22.5938V22.9604C22.5938 23.3528 22.2783 23.6719 21.8906 23.6719Z" fill="#A5A5A5"/>
<path d="M20.4375 9.44336H3.5625C3.17419 9.44336 2.85938 9.76192 2.85938 10.1548V14.4238C2.85938 14.8167 3.17419 15.1353 3.5625 15.1353H20.4375C20.8258 15.1353 21.1406 14.8167 21.1406 14.4238V10.1548C21.1406 9.76192 20.8258 9.44336 20.4375 9.44336ZM19.7344 13.7123H4.26562V10.8663H19.7344V13.7123Z" fill="#A5A5A5"/>
<path d="M10.5938 16.5566H3.5625C3.17419 16.5566 2.85938 16.8752 2.85938 17.2681V21.5371C2.85938 21.93 3.17419 22.2485 3.5625 22.2485H10.5938C10.9821 22.2485 11.2969 21.93 11.2969 21.5371V17.2681C11.2969 16.8752 10.9821 16.5566 10.5938 16.5566ZM9.89062 20.8256H4.26562V17.9796H9.89062V20.8256Z" fill="#A5A5A5"/>
<path d="M3.5625 5.17298C3.95083 5.17298 4.26562 4.85443 4.26562 4.46149C4.26562 4.06854 3.95083 3.75 3.5625 3.75C3.17417 3.75 2.85938 4.06854 2.85938 4.46149C2.85938 4.85443 3.17417 5.17298 3.5625 5.17298Z" fill="#A5A5A5"/>
<path d="M6.375 5.17298C6.76333 5.17298 7.07812 4.85443 7.07812 4.46149C7.07812 4.06854 6.76333 3.75 6.375 3.75C5.98667 3.75 5.67188 4.06854 5.67188 4.46149C5.67188 4.85443 5.98667 5.17298 6.375 5.17298Z" fill="#A5A5A5"/>
<path d="M9.1875 5.17298C9.57583 5.17298 9.89062 4.85443 9.89062 4.46149C9.89062 4.06854 9.57583 3.75 9.1875 3.75C8.79917 3.75 8.48438 4.06854 8.48438 4.46149C8.48438 4.85443 8.79917 5.17298 9.1875 5.17298Z" fill="#A5A5A5"/>
<path d="M16.2188 5.17298H20.4375C20.8258 5.17298 21.1406 4.85442 21.1406 4.46149C21.1406 4.06856 20.8258 3.75 20.4375 3.75H16.2188C15.8304 3.75 15.5156 4.06856 15.5156 4.46149C15.5156 4.85442 15.8304 5.17298 16.2188 5.17298Z" fill="#A5A5A5"/>
<path d="M20.4375 16.5566H13.4062C13.0179 16.5566 12.7031 16.8752 12.7031 17.2681V21.5371C12.7031 21.93 13.0179 22.2485 13.4062 22.2485H20.4375C20.8258 22.2485 21.1406 21.93 21.1406 21.5371V17.2681C21.1406 16.8752 20.8258 16.5566 20.4375 16.5566ZM19.7344 20.8256H14.1094V17.9796H19.7344V20.8256Z" fill="#A5A5A5"/>
</g>
<defs>
<clipPath id="clip0">
<rect width="24" height="24.2855" fill="white" transform="translate(0 0.857422)"/>
</clipPath>
</defs>
</svg>
